STARTFONT 2.1
FONT -DEC-VT220-medium-r-DoubleWide-136col-80-800-75-75-m-680-iso10646-1
SIZE 80 75 75
FONTBOUNDINGBOX 68 80 0 -16
STARTPROPERTIES 22
FONTNAME_REGISTRY ""
FOUNDRY "DEC"
FAMILY_NAME "vt220_136col_DoubleWide_rwidth50"
WEIGHT_NAME "medium"
RELATIVE_SETWIDTH 50
SLANT r
SETWIDTH_NAME "DoubleWide"
ADD_STYLE_NAME "136col"
PIXEL_SIZE 80
POINT_SIZE 800
RESOLUTION_X 75
RESOLUTION_Y 75
SPACING "m"
CHARSET_REGISTRY "ISO10646"
CHARSET_ENCODING "1"
CAP_HEIGHT 56
X_HEIGHT 40
WEIGHT 10
QUAD_WIDTH 68
DEFAULT_CHAR 9670
FONT_ASCENT 64
FONT_DESCENT 16
AVERAGE_WIDTH 680
ENDPROPERTIES
CHARS 288
STARTCHAR U+00FD
ENCODING 253
SWIDTH 1000 0
BBX 68 80 0 -16
DWIDTH 68 0
BITMAP
000000000000000000
000000000000000000
000000000000000000
000000000000000000
000000000000000000
000000000000000000
000000000000000000
000000000000000000
FFF00000FFF0000000
FFF00000FFF0000000
FFF00000FFF0000000
FFF00000FFF0000000
FFF00000FFF0000000
FFF00000FFF0000000
FFF00000FFF0000000
FFF00000FFF0000000
FFFFF000FFF0000000
FFFFF000FFF0000000
FFFFF000FFF0000000
FFFFF000FFF0000000
FFFFF000FFF0000000
FFFFF000FFF0000000
FFFFF000FFF0000000
FFFFF000FFF0000000
FFF0FFF0FFF0000000
FFF0FFF0FFF0000000
FFF0FFF0FFF0000000
FFF0FFF0FFF0000000
FFF0FFF0FFF0000000
FFF0FFF0FFF0000000
FFF0FFF0FFF0000000
FFF0FFF0FFF0000000
FFF000FFFFF0000000
FFF000FFFFF0000000
FFF000FFFFF0000000
FFF000FFFFF0000000
FFF000FFFFF0000000
FFF000FFFFF0000000
FFF000FFFFF0000000
FFF000FFFFF0000000
FFF000FFFFF0FFF000
FFF000FFFFF0FFF000
FFF000FFFFF0FFF000
FFF000FFFFF0FFF000
FFF000FFFFF0FFF000
FFF000FFFFF0FFF000
FFF000FFFFF0FFF000
FFF000FFFFF0FFF000
000000FFF000FFF000
000000FFF000FFF000
000000FFF000FFF000
000000FFF000FFF000
000000FFF000FFF000
000000FFF000FFF000
000000FFF000FFF000
000000FFF000FFF000
000000FFF000FFF000
000000FFF000FFF000
000000FFF000FFF000
000000FFF000FFF000
000000FFF000FFF000
000000FFF000FFF000
000000FFF000FFF000
000000FFF000FFF000
000000FFF000FFF000
000000FFF000FFF000
000000FFF000FFF000
000000FFF000FFF000
000000FFF000FFF000
000000FFF000FFF000
000000FFF000FFF000
000000FFF000FFF000
00000000FFFFF00000
00000000FFFFF00000
00000000FFFFF00000
00000000FFFFF00000
00000000FFFFF00000
00000000FFFFF00000
00000000FFFFF00000
00000000FFFFF00000
ENDCHAR
STARTCHAR U+25A1
ENCODING 9633
SWIDTH 1000 0
BBX 68 80 0 -16
DWIDTH 68 0
BITMAP
000000000000000000
000000000000000000
000000000000000000
000000000000000000
000000000000000000
000000000000000000
000000000000000000
000000000000000000
FFFFFFFFFFFFFFF000
FFFFFFFFFFFFFFF000
FFFFFFFFFFFFFFF000
FFFFFFFFFFFFFFF000
FFFFFFFFFFFFFFF000
FFFFFFFFFFFFFFF000
FFFFFFFFFFFFFFF000
FFFFFFFFFFFFFFF000
FFF000000000FFF000
FFF000000000FFF000
FFF000000000FFF000
FFF000000000FFF000
FFF000000000FFF000
FFF000000000FFF000
FFF000000000FFF000
FFF000000000FFF000
FFF000000000FFF000
FFF000000000FFF000
FFF000000000FFF000
FFF000000000FFF000
FFF000000000FFF000
FFF000000000FFF000
FFF000000000FFF000
FFF000000000FFF000
FFF000000000FFF000
FFF000000000FFF000
FFF000000000FFF000
FFF000000000FFF000
FFF000000000FFF000
FFF000000000FFF000
FFF000000000FFF000
FFF000000000FFF000
FFF000000000FFF000
FFF000000000FFF000
FFF000000000FFF000
FFF000000000FFF000
FFF000000000FFF000
FFF000000000FFF000
FFF000000000FFF000
FFF000000000FFF000
FFF000000000FFF000
FFF000000000FFF000
FFF000000000FFF000
FFF000000000FFF000
FFF000000000FFF000
FFF000000000FFF000
FFF000000000FFF000
FFF000000000FFF000
FFFFFFFFFFFFFFF000
FFFFFFFFFFFFFFF000
FFFFFFFFFFFFFFF000
FFFFFFFFFFFFFFF000
FFFFFFFFFFFFFFF000
FFFFFFFFFFFFFFF000
FFFFFFFFFFFFFFF000
FFFFFFFFFFFFFFF000
000000000000000000
000000000000000000
000000000000000000
000000000000000000
000000000000000000
000000000000000000
000000000000000000
000000000000000000
000000000000000000
000000000000000000
000000000000000000
000000000000000000
000000000000000000
000000000000000000
000000000000000000
000000000000000000
ENDCHAR
STARTCHAR U+00FE
ENCODING 254
SWIDTH 1000 0
BBX 68 80 0 -16
DWIDTH 68 0
BITMAP
000000000000000000
000000000000000000
000000000000000000
000000000000000000
000000000000000000
000000000000000000
000000000000000000
000000000000000000
FFFFFFFFF000000000
FFFFFFFFF000000000
FFFFFFFFF000000000
FFFFFFFFF000000000
FFFFFFFFF000000000
FFFFFFFFF000000000
FFFFFFFFF000000000
FFFFFFFFF000000000
FFF000000000000000
FFF000000000000000
FFF000000000000000
FFF000000000000000
FFF000000000000000
FFF000000000000000
FFF000000000000000
FFF000000000000000
FFFFFFF00000000000
FFFFFFF00000000000
FFFFFFF00000000000
FFFFFFF00000000000
FFFFFFF00000000000
FFFFFFF00000000000
FFFFFFF00000000000
FFFFFFF00000000000
FFF000000000000000
FFF000000000000000
FFF000000000000000
FFF000000000000000
FFF000000000000000
FFF000000000000000
FFF000000000000000
FFF000000000000000
FFF000FFFFFFFFF000
FFF000FFFFFFFFF000
FFF000FFFFFFFFF000
FFF000FFFFFFFFF000
FFF000FFFFFFFFF000
FFF000FFFFFFFFF000
FFF000FFFFFFFFF000
FFF000FFFFFFFFF000
000000FFF000000000
000000FFF000000000
000000FFF000000000
000000FFF000000000
000000FFF000000000
000000FFF000000000
000000FFF000000000
000000FFF000000000
000000FFFFFFF00000
000000FFFFFFF00000
000000FFFFFFF00000
000000FFFFFFF00000
000000FFFFFFF00000
000000FFFFFFF00000
000000FFFFFFF00000
000000FFFFFFF00000
000000FFF000000000
000000FFF000000000
000000FFF000000000
000000FFF000000000
000000FFF000000000
000000FFF000000000
000000FFF000000000
000000FFF000000000
000000FFFFFFFFF000
000000FFFFFFFFF000
000000FFFFFFFFF000
000000FFFFFFFFF000
000000FFFFFFFFF000
000000FFFFFFFFF000
000000FFFFFFFFF000
000000FFFFFFFFF000
ENDCHAR
STARTCHAR U+00FF
ENCODING 255
SWIDTH 1000 0
BBX 68 80 0 -16
DWIDTH 68 0
BITMAP
000000000000000000
000000000000000000
000000000000000000
000000000000000000
000000000000000000
000000000000000000
000000000000000000
000000000000000000
00FFF00000FFF00000
00FFF00000FFF00000
00FFF00000FFF00000
00FFF00000FFF00000
00FFF00000FFF00000
00FFF00000FFF00000
00FFF00000FFF00000
00FFF00000FFF00000
000000000000000000
000000000000000000
000000000000000000
000000000000000000
000000000000000000
000000000000000000
000000000000000000
000000000000000000
FFF0000000FFF00000
FFF0000000FFF00000
FFF0000000FFF00000
FFF0000000FFF00000
FFF0000000FFF00000
FFF0000000FFF00000
FFF0000000FFF00000
FFF0000000FFF00000
FFF0000000FFF00000
FFF0000000FFF00000
FFF0000000FFF00000
FFF0000000FFF00000
FFF0000000FFF00000
FFF0000000FFF00000
FFF0000000FFF00000
FFF0000000FFF00000
FFF00000FFFFF00000
FFF00000FFFFF00000
FFF00000FFFFF00000
FFF00000FFFFF00000
FFF00000FFFFF00000
FFF00000FFFFF00000
FFF00000FFFFF00000
FFF00000FFFFF00000
00FFFFFFF0FFF00000
00FFFFFFF0FFF00000
00FFFFFFF0FFF00000
00FFFFFFF0FFF00000
00FFFFFFF0FFF00000
00FFFFFFF0FFF00000
00FFFFFFF0FFF00000
00FFFFFFF0FFF00000
0000000000FFF00000
0000000000FFF00000
0000000000FFF00000
0000000000FFF00000
0000000000FFF00000
0000000000FFF00000
0000000000FFF00000
0000000000FFF00000
FFF0000000FFF00000
FFF0000000FFF00000
FFF0000000FFF00000
FFF0000000FFF00000
FFF0000000FFF00000
FFF0000000FFF00000
FFF0000000FFF00000
FFF0000000FFF00000
00FFFFFFFFF0000000
00FFFFFFFFF0000000
00FFFFFFFFF0000000
00FFFFFFFFF0000000
00FFFFFFFFF0000000
00FFFFFFFFF0000000
00FFFFFFFFF0000000
00FFFFFFFFF0000000
ENDCHAR
STARTCHAR U+00FC
ENCODING 252
SWIDTH 1000 0
BBX 68 80 0 -16
DWIDTH 68 0
BITMAP
000000000000000000
000000000000000000
000000000000000000
000000000000000000
000000000000000000
000000000000000000
000000000000000000
000000000000000000
00FFF00000FFF00000
00FFF00000FFF00000
00FFF00000FFF00000
00FFF00000FFF00000
00FFF00000FFF00000
00FFF00000FFF00000
00FFF00000FFF00000
00FFF00000FFF00000
000000000000000000
000000000000000000
000000000000000000
000000000000000000
000000000000000000
000000000000000000
000000000000000000
000000000000000000
FFF0000000FFF00000
FFF0000000FFF00000
FFF0000000FFF00000
FFF0000000FFF00000
FFF0000000FFF00000
FFF0000000FFF00000
FFF0000000FFF00000
FFF0000000FFF00000
FFF0000000FFF00000
FFF0000000FFF00000
FFF0000000FFF00000
FFF0000000FFF00000
FFF0000000FFF00000
FFF0000000FFF00000
FFF0000000FFF00000
FFF0000000FFF00000
FFF0000000FFF00000
FFF0000000FFF00000
FFF0000000FFF00000
FFF0000000FFF00000
FFF0000000FFF00000
FFF0000000FFF00000
FFF0000000FFF00000
FFF0000000FFF00000
FFF0000000FFF00000
FFF0000000FFF00000
FFF0000000FFF00000
FFF0000000FFF00000
FFF0000000FFF00000
FFF0000000FFF00000
FFF0000000FFF00000
FFF0000000FFF00000
00FFFFFFFFF0FFF000
00FFFFFFFFF0FFF000
00FFFFFFFFF0FFF000
00FFFFFFFFF0FFF000
00FFFFFFFFF0FFF000
00FFFFFFFFF0FFF000
00FFFFFFFFF0FFF000
00FFFFFFFFF0FFF000
000000000000000000
000000000000000000
000000000000000000
000000000000000000
000000000000000000
000000000000000000
000000000000000000
000000000000000000
000000000000000000
000000000000000000
000000000000000000
000000000000000000
000000000000000000
000000000000000000
000000000000000000
000000000000000000
ENDCHAR
STARTCHAR U+00FB
ENCODING 251
SWIDTH 1000 0
BBX 68 80 0 -16
DWIDTH 68 0
BITMAP
0000FFFFFFF0000000
0000FFFFFFF0000000
0000FFFFFFF0000000
0000FFFFFFF0000000
0000FFFFFFF0000000
0000FFFFFFF0000000
0000FFFFFFF0000000
0000FFFFFFF0000000
00FFF00000FFF00000
00FFF00000FFF00000
00FFF00000FFF00000
00FFF00000FFF00000
00FFF00000FFF00000
00FFF00000FFF00000
00FFF00000FFF00000
00FFF00000FFF00000
000000000000000000
000000000000000000
000000000000000000
000000000000000000
000000000000000000
000000000000000000
000000000000000000
000000000000000000
FFF0000000FFF00000
FFF0000000FFF00000
FFF0000000FFF00000
FFF0000000FFF00000
FFF0000000FFF00000
FFF0000000FFF00000
FFF0000000FFF00000
FFF0000000FFF00000
FFF0000000FFF00000
FFF0000000FFF00000
FFF0000000FFF00000
FFF0000000FFF00000
FFF0000000FFF00000
FFF0000000FFF00000
FFF0000000FFF00000
FFF0000000FFF00000
FFF0000000FFF00000
FFF0000000FFF00000
FFF0000000FFF00000
FFF0000000FFF00000
FFF0000000FFF00000
FFF0000000FFF00000
FFF0000000FFF00000
FFF0000000FFF00000
FFF0000000FFF00000
FFF0000000FFF00000
FFF0000000FFF00000
FFF0000000FFF00000
FFF0000000FFF00000
FFF0000000FFF00000
FFF0000000FFF00000
FFF0000000FFF00000
00FFFFFFFFF0FFF000
00FFFFFFFFF0FFF000
00FFFFFFFFF0FFF000
00FFFFFFFFF0FFF000
00FFFFFFFFF0FFF000
00FFFFFFFFF0FFF000
00FFFFFFFFF0FFF000
00FFFFFFFFF0FFF000
000000000000000000
000000000000000000
000000000000000000
000000000000000000
000000000000000000
000000000000000000
000000000000000000
000000000000000000
000000000000000000
000000000000000000
000000000000000000
000000000000000000
000000000000000000
000000000000000000
000000000000000000
000000000000000000
ENDCHAR
STARTCHAR U+00FA
ENCODING 250
SWIDTH 1000 0
BBX 68 80 0 -16
DWIDTH 68 0
BITMAP
000000000000000000
000000000000000000
000000000000000000
000000000000000000
000000000000000000
000000000000000000
000000000000000000
000000000000000000
000000FFFFF0000000
000000FFFFF0000000
000000FFFFF0000000
000000FFFFF0000000
000000FFFFF0000000
000000FFFFF0000000
000000FFFFF0000000
000000FFFFF0000000
00FFFFF00000000000
00FFFFF00000000000
00FFFFF00000000000
00FFFFF00000000000
00FFFFF00000000000
00FFFFF00000000000
00FFFFF00000000000
00FFFFF00000000000
FFF0000000FFF00000
FFF0000000FFF00000
FFF0000000FFF00000
FFF0000000FFF00000
FFF0000000FFF00000
FFF0000000FFF00000
FFF0000000FFF00000
FFF0000000FFF00000
FFF0000000FFF00000
FFF0000000FFF00000
FFF0000000FFF00000
FFF0000000FFF00000
FFF0000000FFF00000
FFF0000000FFF00000
FFF0000000FFF00000
FFF0000000FFF00000
FFF0000000FFF00000
FFF0000000FFF00000
FFF0000000FFF00000
FFF0000000FFF00000
FFF0000000FFF00000
FFF0000000FFF00000
FFF0000000FFF00000
FFF0000000FFF00000
FFF0000000FFF00000
FFF0000000FFF00000
FFF0000000FFF00000
FFF0000000FFF00000
FFF0000000FFF00000
FFF0000000FFF00000
FFF0000000FFF00000
FFF0000000FFF00000
00FFFFFFFFF0FFF000
00FFFFFFFFF0FFF000
00FFFFFFFFF0FFF000
00FFFFFFFFF0FFF000
00FFFFFFFFF0FFF000
00FFFFFFFFF0FFF000
00FFFFFFFFF0FFF000
00FFFFFFFFF0FFF000
000000000000000000
000000000000000000
000000000000000000
000000000000000000
000000000000000000
000000000000000000
000000000000000000
000000000000000000
000000000000000000
000000000000000000
000000000000000000
000000000000000000
000000000000000000
000000000000000000
000000000000000000
000000000000000000
ENDCHAR
STARTCHAR U+00F9
ENCODING 249
SWIDTH 1000 0
BBX 68 80 0 -16
DWIDTH 68 0
BITMAP
000000000000000000
000000000000000000
000000000000000000
000000000000000000
000000000000000000
000000000000000000
000000000000000000
000000000000000000
00FFFFF00000000000
00FFFFF00000000000
00FFFFF00000000000
00FFFFF00000000000
00FFFFF00000000000
00FFFFF00000000000
00FFFFF00000000000
00FFFFF00000000000
000000FFFFF0000000
000000FFFFF0000000
000000FFFFF0000000
000000FFFFF0000000
000000FFFFF0000000
000000FFFFF0000000
000000FFFFF0000000
000000FFFFF0000000
FFF0000000FFF00000
FFF0000000FFF00000
FFF0000000FFF00000
FFF0000000FFF00000
FFF0000000FFF00000
FFF0000000FFF00000
FFF0000000FFF00000
FFF0000000FFF00000
FFF0000000FFF00000
FFF0000000FFF00000
FFF0000000FFF00000
FFF0000000FFF00000
FFF0000000FFF00000
FFF0000000FFF00000
FFF0000000FFF00000
FFF0000000FFF00000
FFF0000000FFF00000
FFF0000000FFF00000
FFF0000000FFF00000
FFF0000000FFF00000
FFF0000000FFF00000
FFF0000000FFF00000
FFF0000000FFF00000
FFF0000000FFF00000
FFF0000000FFF00000
FFF0000000FFF00000
FFF0000000FFF00000
FFF0000000FFF00000
FFF0000000FFF00000
FFF0000000FFF00000
FFF0000000FFF00000
FFF0000000FFF00000
00FFFFFFFFF0FFF000
00FFFFFFFFF0FFF000
00FFFFFFFFF0FFF000
00FFFFFFFFF0FFF000
00FFFFFFFFF0FFF000
00FFFFFFFFF0FFF000
00FFFFFFFFF0FFF000
00FFFFFFFFF0FFF000
000000000000000000
000000000000000000
000000000000000000
000000000000000000
000000000000000000
000000000000000000
000000000000000000
000000000000000000
000000000000000000
000000000000000000
000000000000000000
000000000000000000
000000000000000000
000000000000000000
000000000000000000
000000000000000000
ENDCHAR
STARTCHAR U+00F8
ENCODING 248
SWIDTH 1000 0
BBX 68 80 0 -16
DWIDTH 68 0
BITMAP
000000000000000000
000000000000000000
000000000000000000
000000000000000000
000000000000000000
000000000000000000
000000000000000000
000000000000000000
000000000000000000
000000000000000000
000000000000000000
000000000000000000
000000000000000000
000000000000000000
000000000000000000
000000000000000000
000000000000FFF000
000000000000FFF000
000000000000FFF000
000000000000FFF000
000000000000FFF000
000000000000FFF000
000000000000FFF000
000000000000FFF000
00FFFFFFFFFFF00000
00FFFFFFFFFFF00000
00FFFFFFFFFFF00000
00FFFFFFFFFFF00000
00FFFFFFFFFFF00000
00FFFFFFFFFFF00000
00FFFFFFFFFFF00000
00FFFFFFFFFFF00000
FFF00000FFF0FFF000
FFF00000FFF0FFF000
FFF00000FFF0FFF000
FFF00000FFF0FFF000
FFF00000FFF0FFF000
FFF00000FFF0FFF000
FFF00000FFF0FFF000
FFF00000FFF0FFF000
FFF000FFF000FFF000
FFF000FFF000FFF000
FFF000FFF000FFF000
FFF000FFF000FFF000
FFF000FFF000FFF000
FFF000FFF000FFF000
FFF000FFF000FFF000
FFF000FFF000FFF000
FFF0FFF00000FFF000
FFF0FFF00000FFF000
FFF0FFF00000FFF000
FFF0FFF00000FFF000
FFF0FFF00000FFF000
FFF0FFF00000FFF000
FFF0FFF00000FFF000
FFF0FFF00000FFF000
00FFFFFFFFFFF00000
00FFFFFFFFFFF00000
00FFFFFFFFFFF00000
00FFFFFFFFFFF00000
00FFFFFFFFFFF00000
00FFFFFFFFFFF00000
00FFFFFFFFFFF00000
00FFFFFFFFFFF00000
FFF000000000000000
FFF000000000000000
FFF000000000000000
FFF000000000000000
FFF000000000000000
FFF000000000000000
FFF000000000000000
FFF000000000000000
000000000000000000
000000000000000000
000000000000000000
000000000000000000
000000000000000000
000000000000000000
000000000000000000
000000000000000000
ENDCHAR
STARTCHAR U+0152
ENCODING 338
SWIDTH 1000 0
BBX 68 80 0 -16
DWIDTH 68 0
BITMAP
000000000000000000
000000000000000000
000000000000000000
000000000000000000
000000000000000000
000000000000000000
000000000000000000
000000000000000000
000000000000000000
000000000000000000
000000000000000000
000000000000000000
000000000000000000
000000000000000000
000000000000000000
000000000000000000
000000000000000000
000000000000000000
000000000000000000
000000000000000000
000000000000000000
000000000000000000
000000000000000000
000000000000000000
00FFFFF0FFFFF00000
00FFFFF0FFFFF00000
00FFFFF0FFFFF00000
00FFFFF0FFFFF00000
00FFFFF0FFFFF00000
00FFFFF0FFFFF00000
00FFFFF0FFFFF00000
00FFFFF0FFFFF00000
FFF000FFF000FFF000
FFF000FFF000FFF000
FFF000FFF000FFF000
FFF000FFF000FFF000
FFF000FFF000FFF000
FFF000FFF000FFF000
FFF000FFF000FFF000
FFF000FFF000FFF000
FFF000FFFFFFFFF000
FFF000FFFFFFFFF000
FFF000FFFFFFFFF000
FFF000FFFFFFFFF000
FFF000FFFFFFFFF000
FFF000FFFFFFFFF000
FFF000FFFFFFFFF000
FFF000FFFFFFFFF000
FFF000FFF000000000
FFF000FFF000000000
FFF000FFF000000000
FFF000FFF000000000
FFF000FFF000000000
FFF000FFF000000000
FFF000FFF000000000
FFF000FFF000000000
00FFFFF0FFFFFFF000
00FFFFF0FFFFFFF000
00FFFFF0FFFFFFF000
00FFFFF0FFFFFFF000
00FFFFF0FFFFFFF000
00FFFFF0FFFFFFF000
00FFFFF0FFFFFFF000
00FFFFF0FFFFFFF000
000000000000000000
000000000000000000
000000000000000000
000000000000000000
000000000000000000
000000000000000000
000000000000000000
000000000000000000
000000000000000000
000000000000000000
000000000000000000
000000000000000000
000000000000000000
000000000000000000
000000000000000000
000000000000000000
ENDCHAR
STARTCHAR U+00F6
ENCODING 246
SWIDTH 1000 0
BBX 68 80 0 -16
DWIDTH 68 0
BITMAP
000000000000000000
000000000000000000
000000000000000000
000000000000000000
000000000000000000
000000000000000000
000000000000000000
000000000000000000
00FFF00000FFF00000
00FFF00000FFF00000
00FFF00000FFF00000
00FFF00000FFF00000
00FFF00000FFF00000
00FFF00000FFF00000
00FFF00000FFF00000
00FFF00000FFF00000
000000000000000000
000000000000000000
000000000000000000
000000000000000000
000000000000000000
000000000000000000
000000000000000000
000000000000000000
00FFFFFFFFFFF00000
00FFFFFFFFFFF00000
00FFFFFFFFFFF00000
00FFFFFFFFFFF00000
00FFFFFFFFFFF00000
00FFFFFFFFFFF00000
00FFFFFFFFFFF00000
00FFFFFFFFFFF00000
FFF000000000FFF000
FFF000000000FFF000
FFF000000000FFF000
FFF000000000FFF000
FFF000000000FFF000
FFF000000000FFF000
FFF000000000FFF000
FFF000000000FFF000
FFF000000000FFF000
FFF000000000FFF000
FFF000000000FFF000
FFF000000000FFF000
FFF000000000FFF000
FFF000000000FFF000
FFF000000000FFF000
FFF000000000FFF000
FFF000000000FFF000
FFF000000000FFF000
FFF000000000FFF000
FFF000000000FFF000
FFF000000000FFF000
FFF000000000FFF000
FFF000000000FFF000
FFF000000000FFF000
00FFFFFFFFFFF00000
00FFFFFFFFFFF00000
00FFFFFFFFFFF00000
00FFFFFFFFFFF00000
00FFFFFFFFFFF00000
00FFFFFFFFFFF00000
00FFFFFFFFFFF00000
00FFFFFFFFFFF00000
000000000000000000
000000000000000000
000000000000000000
000000000000000000
000000000000000000
000000000000000000
000000000000000000
000000000000000000
000000000000000000
000000000000000000
000000000000000000
000000000000000000
000000000000000000
000000000000000000
000000000000000000
000000000000000000
ENDCHAR
STARTCHAR U+00F5
ENCODING 245
SWIDTH 1000 0
BBX 68 80 0 -16
DWIDTH 68 0
BITMAP
00FFFFF000FFF00000
00FFFFF000FFF00000
00FFFFF000FFF00000
00FFFFF000FFF00000
00FFFFF000FFF00000
00FFFFF000FFF00000
00FFFFF000FFF00000
00FFFFF000FFF00000
FFF000FFFFF0000000
FFF000FFFFF0000000
FFF000FFFFF0000000
FFF000FFFFF0000000
FFF000FFFFF0000000
FFF000FFFFF0000000
FFF000FFFFF0000000
FFF000FFFFF0000000
000000000000000000
000000000000000000
000000000000000000
000000000000000000
000000000000000000
000000000000000000
000000000000000000
000000000000000000
00FFFFFFFFFFF00000
00FFFFFFFFFFF00000
00FFFFFFFFFFF00000
00FFFFFFFFFFF00000
00FFFFFFFFFFF00000
00FFFFFFFFFFF00000
00FFFFFFFFFFF00000
00FFFFFFFFFFF00000
FFF000000000FFF000
FFF000000000FFF000
FFF000000000FFF000
FFF000000000FFF000
FFF000000000FFF000
FFF000000000FFF000
FFF000000000FFF000
FFF000000000FFF000
FFF000000000FFF000
FFF000000000FFF000
FFF000000000FFF000
FFF000000000FFF000
FFF000000000FFF000
FFF000000000FFF000
FFF000000000FFF000
FFF000000000FFF000
FFF000000000FFF000
FFF000000000FFF000
FFF000000000FFF000
FFF000000000FFF000
FFF000000000FFF000
FFF000000000FFF000
FFF000000000FFF000
FFF000000000FFF000
00FFFFFFFFFFF00000
00FFFFFFFFFFF00000
00FFFFFFFFFFF00000
00FFFFFFFFFFF00000
00FFFFFFFFFFF00000
00FFFFFFFFFFF00000
00FFFFFFFFFFF00000
00FFFFFFFFFFF00000
000000000000000000
000000000000000000
000000000000000000
000000000000000000
000000000000000000
000000000000000000
000000000000000000
000000000000000000
000000000000000000
000000000000000000
000000000000000000
000000000000000000
000000000000000000
000000000000000000
000000000000000000
000000000000000000
ENDCHAR
STARTCHAR U+00F4
ENCODING 244
SWIDTH 1000 0
BBX 68 80 0 -16
DWIDTH 68 0
BITMAP
0000FFFFFFF0000000
0000FFFFFFF0000000
0000FFFFFFF0000000
0000FFFFFFF0000000
0000FFFFFFF0000000
0000FFFFFFF0000000
0000FFFFFFF0000000
0000FFFFFFF0000000
00FFF00000FFF00000
00FFF00000FFF00000
00FFF00000FFF00000
00FFF00000FFF00000
00FFF00000FFF00000
00FFF00000FFF00000
00FFF00000FFF00000
00FFF00000FFF00000
000000000000000000
000000000000000000
000000000000000000
000000000000000000
000000000000000000
000000000000000000
000000000000000000
000000000000000000
00FFFFFFFFFFF00000
00FFFFFFFFFFF00000
00FFFFFFFFFFF00000
00FFFFFFFFFFF00000
00FFFFFFFFFFF00000
00FFFFFFFFFFF00000
00FFFFFFFFFFF00000
00FFFFFFFFFFF00000
FFF000000000FFF000
FFF000000000FFF000
FFF000000000FFF000
FFF000000000FFF000
FFF000000000FFF000
FFF000000000FFF000
FFF000000000FFF000
FFF000000000FFF000
FFF000000000FFF000
FFF000000000FFF000
FFF000000000FFF000
FFF000000000FFF000
FFF000000000FFF000
FFF000000000FFF000
FFF000000000FFF000
FFF000000000FFF000
FFF000000000FFF000
FFF000000000FFF000
FFF000000000FFF000
FFF000000000FFF000
FFF000000000FFF000
FFF000000000FFF000
FFF000000000FFF000
FFF000000000FFF000
00FFFFFFFFFFF00000
00FFFFFFFFFFF00000
00FFFFFFFFFFF00000
00FFFFFFFFFFF00000
00FFFFFFFFFFF00000
00FFFFFFFFFFF00000
00FFFFFFFFFFF00000
00FFFFFFFFFFF00000
000000000000000000
000000000000000000
000000000000000000
000000000000000000
000000000000000000
000000000000000000
000000000000000000
000000000000000000
000000000000000000
000000000000000000
000000000000000000
000000000000000000
000000000000000000
000000000000000000
000000000000000000
000000000000000000
ENDCHAR
STARTCHAR U+00F3
ENCODING 243
SWIDTH 1000 0
BBX 68 80 0 -16
DWIDTH 68 0
BITMAP
000000000000000000
000000000000000000
000000000000000000
000000000000000000
000000000000000000
000000000000000000
000000000000000000
000000000000000000
000000FFFFF0000000
000000FFFFF0000000
000000FFFFF0000000
000000FFFFF0000000
000000FFFFF0000000
000000FFFFF0000000
000000FFFFF0000000
000000FFFFF0000000
00FFFFF00000000000
00FFFFF00000000000
00FFFFF00000000000
00FFFFF00000000000
00FFFFF00000000000
00FFFFF00000000000
00FFFFF00000000000
00FFFFF00000000000
00FFFFFFFFFFF00000
00FFFFFFFFFFF00000
00FFFFFFFFFFF00000
00FFFFFFFFFFF00000
00FFFFFFFFFFF00000
00FFFFFFFFFFF00000
00FFFFFFFFFFF00000
00FFFFFFFFFFF00000
FFF000000000FFF000
FFF000000000FFF000
FFF000000000FFF000
FFF000000000FFF000
FFF000000000FFF000
FFF000000000FFF000
FFF000000000FFF000
FFF000000000FFF000
FFF000000000FFF000
FFF000000000FFF000
FFF000000000FFF000
FFF000000000FFF000
FFF000000000FFF000
FFF000000000FFF000
FFF000000000FFF000
FFF000000000FFF000
FFF000000000FFF000
FFF000000000FFF000
FFF000000000FFF000
FFF000000000FFF000
FFF000000000FFF000
FFF000000000FFF000
FFF000000000FFF000
FFF000000000FFF000
00FFFFFFFFFFF00000
00FFFFFFFFFFF00000
00FFFFFFFFFFF00000
00FFFFFFFFFFF00000
00FFFFFFFFFFF00000
00FFFFFFFFFFF00000
00FFFFFFFFFFF00000
00FFFFFFFFFFF00000
000000000000000000
000000000000000000
000000000000000000
000000000000000000
000000000000000000
000000000000000000
000000000000000000
000000000000000000
000000000000000000
000000000000000000
000000000000000000
000000000000000000
000000000000000000
000000000000000000
000000000000000000
000000000000000000
ENDCHAR
STARTCHAR U+00F2
ENCODING 242
SWIDTH 1000 0
BBX 68 80 0 -16
DWIDTH 68 0
BITMAP
000000000000000000
000000000000000000
000000000000000000
000000000000000000
000000000000000000
000000000000000000
000000000000000000
000000000000000000
0000FFFFF000000000
0000FFFFF000000000
0000FFFFF000000000
0000FFFFF000000000
0000FFFFF000000000
0000FFFFF000000000
0000FFFFF000000000
0000FFFFF000000000
00000000FFFFF00000
00000000FFFFF00000
00000000FFFFF00000
00000000FFFFF00000
00000000FFFFF00000
00000000FFFFF00000
00000000FFFFF00000
00000000FFFFF00000
00FFFFFFFFFFF00000
00FFFFFFFFFFF00000
00FFFFFFFFFFF00000
00FFFFFFFFFFF00000
00FFFFFFFFFFF00000
00FFFFFFFFFFF00000
00FFFFFFFFFFF00000
00FFFFFFFFFFF00000
FFF000000000FFF000
FFF000000000FFF000
FFF000000000FFF000
FFF000000000FFF000
FFF000000000FFF000
FFF000000000FFF000
FFF000000000FFF000
FFF000000000FFF000
FFF000000000FFF000
FFF000000000FFF000
FFF000000000FFF000
FFF000000000FFF000
FFF000000000FFF000
FFF000000000FFF000
FFF000000000FFF000
FFF000000000FFF000
FFF000000000FFF000
FFF000000000FFF000
FFF000000000FFF000
FFF000000000FFF000
FFF000000000FFF000
FFF000000000FFF000
FFF000000000FFF000
FFF000000000FFF000
00FFFFFFFFFFF00000
00FFFFFFFFFFF00000
00FFFFFFFFFFF00000
00FFFFFFFFFFF00000
00FFFFFFFFFFF00000
00FFFFFFFFFFF00000
00FFFFFFFFFFF00000
00FFFFFFFFFFF00000
000000000000000000
000000000000000000
000000000000000000
000000000000000000
000000000000000000
000000000000000000
000000000000000000
000000000000000000
000000000000000000
000000000000000000
000000000000000000
000000000000000000
000000000000000000
000000000000000000
000000000000000000
000000000000000000
ENDCHAR
STARTCHAR U+00F1
ENCODING 241
SWIDTH 1000 0
BBX 68 80 0 -16
DWIDTH 68 0
BITMAP
00FFFFF000FFF00000
00FFFFF000FFF00000
00FFFFF000FFF00000
00FFFFF000FFF00000
00FFFFF000FFF00000
00FFFFF000FFF00000
00FFFFF000FFF00000
00FFFFF000FFF00000
FFF000FFFFF0000000
FFF000FFFFF0000000
FFF000FFFFF0000000
FFF000FFFFF0000000
FFF000FFFFF0000000
FFF000FFFFF0000000
FFF000FFFFF0000000
FFF000FFFFF0000000
000000000000000000
000000000000000000
000000000000000000
000000000000000000
000000000000000000
000000000000000000
000000000000000000
000000000000000000
FFF0FFFFFFFFF00000
FFF0FFFFFFFFF00000
FFF0FFFFFFFFF00000
FFF0FFFFFFFFF00000
FFF0FFFFFFFFF00000
FFF0FFFFFFFFF00000
FFF0FFFFFFFFF00000
FFF0FFFFFFFFF00000
FFFFF0000000FFF000
FFFFF0000000FFF000
FFFFF0000000FFF000
FFFFF0000000FFF000
FFFFF0000000FFF000
FFFFF0000000FFF000
FFFFF0000000FFF000
FFFFF0000000FFF000
FFF000000000FFF000
FFF000000000FFF000
FFF000000000FFF000
FFF000000000FFF000
FFF000000000FFF000
FFF000000000FFF000
FFF000000000FFF000
FFF000000000FFF000
FFF000000000FFF000
FFF000000000FFF000
FFF000000000FFF000
FFF000000000FFF000
FFF000000000FFF000
FFF000000000FFF000
FFF000000000FFF000
FFF000000000FFF000
FFF000000000FFF000
FFF000000000FFF000
FFF000000000FFF000
FFF000000000FFF000
FFF000000000FFF000
FFF000000000FFF000
FFF000000000FFF000
FFF000000000FFF000
000000000000000000
000000000000000000
000000000000000000
000000000000000000
000000000000000000
000000000000000000
000000000000000000
000000000000000000
000000000000000000
000000000000000000
000000000000000000
000000000000000000
000000000000000000
000000000000000000
000000000000000000
000000000000000000
ENDCHAR
STARTCHAR U+00F0
ENCODING 240
SWIDTH 1000 0
BBX 68 80 0 -16
DWIDTH 68 0
BITMAP
000000000000000000
000000000000000000
000000000000000000
000000000000000000
000000000000000000
000000000000000000
000000000000000000
000000000000000000
FFFFFFFFF000000000
FFFFFFFFF000000000
FFFFFFFFF000000000
FFFFFFFFF000000000
FFFFFFFFF000000000
FFFFFFFFF000000000
FFFFFFFFF000000000
FFFFFFFFF000000000
FFF000000000000000
FFF000000000000000
FFF000000000000000
FFF000000000000000
FFF000000000000000
FFF000000000000000
FFF000000000000000
FFF000000000000000
FFFFFFF00000000000
FFFFFFF00000000000
FFFFFFF00000000000
FFFFFFF00000000000
FFFFFFF00000000000
FFFFFFF00000000000
FFFFFFF00000000000
FFFFFFF00000000000
FFF000000000000000
FFF000000000000000
FFF000000000000000
FFF000000000000000
FFF000000000000000
FFF000000000000000
FFF000000000000000
FFF000000000000000
FFF00000FFFFF00000
FFF00000FFFFF00000
FFF00000FFFFF00000
FFF00000FFFFF00000
FFF00000FFFFF00000
FFF00000FFFFF00000
FFF00000FFFFF00000
FFF00000FFFFF00000
000000FFF000FFF000
000000FFF000FFF000
000000FFF000FFF000
000000FFF000FFF000
000000FFF000FFF000
000000FFF000FFF000
000000FFF000FFF000
000000FFF000FFF000
000000FFF000FFF000
000000FFF000FFF000
000000FFF000FFF000
000000FFF000FFF000
000000FFF000FFF000
000000FFF000FFF000
000000FFF000FFF000
000000FFF000FFF000
000000FFF000FFF000
000000FFF000FFF000
000000FFF000FFF000
000000FFF000FFF000
000000FFF000FFF000
000000FFF000FFF000
000000FFF000FFF000
000000FFF000FFF000
00000000FFFFF00000
00000000FFFFF00000
00000000FFFFF00000
00000000FFFFF00000
00000000FFFFF00000
00000000FFFFF00000
00000000FFFFF00000
00000000FFFFF00000
ENDCHAR
STARTCHAR U+00EF
ENCODING 239
SWIDTH 1000 0
BBX 68 80 0 -16
DWIDTH 68 0
BITMAP
000000000000000000
000000000000000000
000000000000000000
000000000000000000
000000000000000000
000000000000000000
000000000000000000
000000000000000000
00FFF00000FFF00000
00FFF00000FFF00000
00FFF00000FFF00000
00FFF00000FFF00000
00FFF00000FFF00000
00FFF00000FFF00000
00FFF00000FFF00000
00FFF00000FFF00000
000000000000000000
000000000000000000
000000000000000000
000000000000000000
000000000000000000
000000000000000000
000000000000000000
000000000000000000
0000FFFFF000000000
0000FFFFF000000000
0000FFFFF000000000
0000FFFFF000000000
0000FFFFF000000000
0000FFFFF000000000
0000FFFFF000000000
0000FFFFF000000000
000000FFF000000000
000000FFF000000000
000000FFF000000000
000000FFF000000000
000000FFF000000000
000000FFF000000000
000000FFF000000000
000000FFF000000000
000000FFF000000000
000000FFF000000000
000000FFF000000000
000000FFF000000000
000000FFF000000000
000000FFF000000000
000000FFF000000000
000000FFF000000000
000000FFF000000000
000000FFF000000000
000000FFF000000000
000000FFF000000000
000000FFF000000000
000000FFF000000000
000000FFF000000000
000000FFF000000000
00FFFFFFFFFFF00000
00FFFFFFFFFFF00000
00FFFFFFFFFFF00000
00FFFFFFFFFFF00000
00FFFFFFFFFFF00000
00FFFFFFFFFFF00000
00FFFFFFFFFFF00000
00FFFFFFFFFFF00000
000000000000000000
000000000000000000
000000000000000000
000000000000000000
000000000000000000
000000000000000000
000000000000000000
000000000000000000
000000000000000000
000000000000000000
000000000000000000
000000000000000000
000000000000000000
000000000000000000
000000000000000000
000000000000000000
ENDCHAR
STARTCHAR U+00EE
ENCODING 238
SWIDTH 1000 0
BBX 68 80 0 -16
DWIDTH 68 0
BITMAP
0000FFFFFFF0000000
0000FFFFFFF0000000
0000FFFFFFF0000000
0000FFFFFFF0000000
0000FFFFFFF0000000
0000FFFFFFF0000000
0000FFFFFFF0000000
0000FFFFFFF0000000
00FFF00000FFF00000
00FFF00000FFF00000
00FFF00000FFF00000
00FFF00000FFF00000
00FFF00000FFF00000
00FFF00000FFF00000
00FFF00000FFF00000
00FFF00000FFF00000
000000000000000000
000000000000000000
000000000000000000
000000000000000000
000000000000000000
000000000000000000
000000000000000000
000000000000000000
0000FFFFF000000000
0000FFFFF000000000
0000FFFFF000000000
0000FFFFF000000000
0000FFFFF000000000
0000FFFFF000000000
0000FFFFF000000000
0000FFFFF000000000
000000FFF000000000
000000FFF000000000
000000FFF000000000
000000FFF000000000
000000FFF000000000
000000FFF000000000
000000FFF000000000
000000FFF000000000
000000FFF000000000
000000FFF000000000
000000FFF000000000
000000FFF000000000
000000FFF000000000
000000FFF000000000
000000FFF000000000
000000FFF000000000
000000FFF000000000
000000FFF000000000
000000FFF000000000
000000FFF000000000
000000FFF000000000
000000FFF000000000
000000FFF000000000
000000FFF000000000
00FFFFFFFFFFF00000
00FFFFFFFFFFF00000
00FFFFFFFFFFF00000
00FFFFFFFFFFF00000
00FFFFFFFFFFF00000
00FFFFFFFFFFF00000
00FFFFFFFFFFF00000
00FFFFFFFFFFF00000
000000000000000000
000000000000000000
000000000000000000
000000000000000000
000000000000000000
000000000000000000
000000000000000000
000000000000000000
000000000000000000
000000000000000000
000000000000000000
000000000000000000
000000000000000000
000000000000000000
000000000000000000
000000000000000000
ENDCHAR
STARTCHAR U+00ED
ENCODING 237
SWIDTH 1000 0
BBX 68 80 0 -16
DWIDTH 68 0
BITMAP
000000000000000000
000000000000000000
000000000000000000
000000000000000000
000000000000000000
000000000000000000
000000000000000000
000000000000000000
000000FFFFF0000000
000000FFFFF0000000
000000FFFFF0000000
000000FFFFF0000000
000000FFFFF0000000
000000FFFFF0000000
000000FFFFF0000000
000000FFFFF0000000
00FFFFF00000000000
00FFFFF00000000000
00FFFFF00000000000
00FFFFF00000000000
00FFFFF00000000000
00FFFFF00000000000
00FFFFF00000000000
00FFFFF00000000000
0000FFFFF000000000
0000FFFFF000000000
0000FFFFF000000000
0000FFFFF000000000
0000FFFFF000000000
0000FFFFF000000000
0000FFFFF000000000
0000FFFFF000000000
000000FFF000000000
000000FFF000000000
000000FFF000000000
000000FFF000000000
000000FFF000000000
000000FFF000000000
000000FFF000000000
000000FFF000000000
000000FFF000000000
000000FFF000000000
000000FFF000000000
000000FFF000000000
000000FFF000000000
000000FFF000000000
000000FFF000000000
000000FFF000000000
000000FFF000000000
000000FFF000000000
000000FFF000000000
000000FFF000000000
000000FFF000000000
000000FFF000000000
000000FFF000000000
000000FFF000000000
00FFFFFFFFFFF00000
00FFFFFFFFFFF00000
00FFFFFFFFFFF00000
00FFFFFFFFFFF00000
00FFFFFFFFFFF00000
00FFFFFFFFFFF00000
00FFFFFFFFFFF00000
00FFFFFFFFFFF00000
000000000000000000
000000000000000000
000000000000000000
000000000000000000
000000000000000000
000000000000000000
000000000000000000
000000000000000000
000000000000000000
000000000000000000
000000000000000000
000000000000000000
000000000000000000
000000000000000000
000000000000000000
000000000000000000
ENDCHAR
STARTCHAR U+00EC
ENCODING 236
SWIDTH 1000 0
BBX 68 80 0 -16
DWIDTH 68 0
BITMAP
000000000000000000
000000000000000000
000000000000000000
000000000000000000
000000000000000000
000000000000000000
000000000000000000
000000000000000000
00FFFFF00000000000
00FFFFF00000000000
00FFFFF00000000000
00FFFFF00000000000
00FFFFF00000000000
00FFFFF00000000000
00FFFFF00000000000
00FFFFF00000000000
000000FFFFF0000000
000000FFFFF0000000
000000FFFFF0000000
000000FFFFF0000000
000000FFFFF0000000
000000FFFFF0000000
000000FFFFF0000000
000000FFFFF0000000
0000FFFFF000000000
0000FFFFF000000000
0000FFFFF000000000
0000FFFFF000000000
0000FFFFF000000000
0000FFFFF000000000
0000FFFFF000000000
0000FFFFF000000000
000000FFF000000000
000000FFF000000000
000000FFF000000000
000000FFF000000000
000000FFF000000000
000000FFF000000000
000000FFF000000000
000000FFF000000000
000000FFF000000000
000000FFF000000000
000000FFF000000000
000000FFF000000000
000000FFF000000000
000000FFF000000000
000000FFF000000000
000000FFF000000000
000000FFF000000000
000000FFF000000000
000000FFF000000000
000000FFF000000000
000000FFF000000000
000000FFF000000000
000000FFF000000000
000000FFF000000000
00FFFFFFFFFFF00000
00FFFFFFFFFFF00000
00FFFFFFFFFFF00000
00FFFFFFFFFFF00000
00FFFFFFFFFFF00000
00FFFFFFFFFFF00000
00FFFFFFFFFFF00000
00FFFFFFFFFFF00000
000000000000000000
000000000000000000
000000000000000000
000000000000000000
000000000000000000
000000000000000000
000000000000000000
000000000000000000
000000000000000000
000000000000000000
000000000000000000
000000000000000000
000000000000000000
000000000000000000
000000000000000000
000000000000000000
ENDCHAR
STARTCHAR U+00EB
ENCODING 235
SWIDTH 1000 0
BBX 68 80 0 -16
DWIDTH 68 0
BITMAP
000000000000000000
000000000000000000
000000000000000000
000000000000000000
000000000000000000
000000000000000000
000000000000000000
000000000000000000
00FFF00000FFF00000
00FFF00000FFF00000
00FFF00000FFF00000
00FFF00000FFF00000
00FFF00000FFF00000
00FFF00000FFF00000
00FFF00000FFF00000
00FFF00000FFF00000
000000000000000000
000000000000000000
000000000000000000
000000000000000000
000000000000000000
000000000000000000
000000000000000000
000000000000000000
00FFFFFFFFFFF00000
00FFFFFFFFFFF00000
00FFFFFFFFFFF00000
00FFFFFFFFFFF00000
00FFFFFFFFFFF00000
00FFFFFFFFFFF00000
00FFFFFFFFFFF00000
00FFFFFFFFFFF00000
FFF000000000FFF000
FFF000000000FFF000
FFF000000000FFF000
FFF000000000FFF000
FFF000000000FFF000
FFF000000000FFF000
FFF000000000FFF000
FFF000000000FFF000
FFFFFFFFFFFFFFF000
FFFFFFFFFFFFFFF000
FFFFFFFFFFFFFFF000
FFFFFFFFFFFFFFF000
FFFFFFFFFFFFFFF000
FFFFFFFFFFFFFFF000
FFFFFFFFFFFFFFF000
FFFFFFFFFFFFFFF000
FFF000000000000000
FFF000000000000000
FFF000000000000000
FFF000000000000000
FFF000000000000000
FFF000000000000000
FFF000000000000000
FFF000000000000000
00FFFFFFFFFFF00000
00FFFFFFFFFFF00000
00FFFFFFFFFFF00000
00FFFFFFFFFFF00000
00FFFFFFFFFFF00000
00FFFFFFFFFFF00000
00FFFFFFFFFFF00000
00FFFFFFFFFFF00000
000000000000000000
000000000000000000
000000000000000000
000000000000000000
000000000000000000
000000000000000000
000000000000000000
000000000000000000
000000000000000000
000000000000000000
000000000000000000
000000000000000000
000000000000000000
000000000000000000
000000000000000000
000000000000000000
ENDCHAR
STARTCHAR U+00EA
ENCODING 234
SWIDTH 1000 0
BBX 68 80 0 -16
DWIDTH 68 0
BITMAP
0000FFFFFFF0000000
0000FFFFFFF0000000
0000FFFFFFF0000000
0000FFFFFFF0000000
0000FFFFFFF0000000
0000FFFFFFF0000000
0000FFFFFFF0000000
0000FFFFFFF0000000
00FFF00000FFF00000
00FFF00000FFF00000
00FFF00000FFF00000
00FFF00000FFF00000
00FFF00000FFF00000
00FFF00000FFF00000
00FFF00000FFF00000
00FFF00000FFF00000
000000000000000000
000000000000000000
000000000000000000
000000000000000000
000000000000000000
000000000000000000
000000000000000000
000000000000000000
00FFFFFFFFFFF00000
00FFFFFFFFFFF00000
00FFFFFFFFFFF00000
00FFFFFFFFFFF00000
00FFFFFFFFFFF00000
00FFFFFFFFFFF00000
00FFFFFFFFFFF00000
00FFFFFFFFFFF00000
FFF000000000FFF000
FFF000000000FFF000
FFF000000000FFF000
FFF000000000FFF000
FFF000000000FFF000
FFF000000000FFF000
FFF000000000FFF000
FFF000000000FFF000
FFFFFFFFFFFFFFF000
FFFFFFFFFFFFFFF000
FFFFFFFFFFFFFFF000
FFFFFFFFFFFFFFF000
FFFFFFFFFFFFFFF000
FFFFFFFFFFFFFFF000
FFFFFFFFFFFFFFF000
FFFFFFFFFFFFFFF000
FFF000000000000000
FFF000000000000000
FFF000000000000000
FFF000000000000000
FFF000000000000000
FFF000000000000000
FFF000000000000000
FFF000000000000000
00FFFFFFFFFFF00000
00FFFFFFFFFFF00000
00FFFFFFFFFFF00000
00FFFFFFFFFFF00000
00FFFFFFFFFFF00000
00FFFFFFFFFFF00000
00FFFFFFFFFFF00000
00FFFFFFFFFFF00000
000000000000000000
000000000000000000
000000000000000000
000000000000000000
000000000000000000
000000000000000000
000000000000000000
000000000000000000
000000000000000000
000000000000000000
000000000000000000
000000000000000000
000000000000000000
000000000000000000
000000000000000000
000000000000000000
ENDCHAR
STARTCHAR U+00E9
ENCODING 233
SWIDTH 1000 0
BBX 68 80 0 -16
DWIDTH 68 0
BITMAP
000000000000000000
000000000000000000
000000000000000000
000000000000000000
000000000000000000
000000000000000000
000000000000000000
000000000000000000
000000FFFFF0000000
000000FFFFF0000000
000000FFFFF0000000
000000FFFFF0000000
000000FFFFF0000000
000000FFFFF0000000
000000FFFFF0000000
000000FFFFF0000000
00FFFFF00000000000
00FFFFF00000000000
00FFFFF00000000000
00FFFFF00000000000
00FFFFF00000000000
00FFFFF00000000000
00FFFFF00000000000
00FFFFF00000000000
00FFFFFFFFFFF00000
00FFFFFFFFFFF00000
00FFFFFFFFFFF00000
00FFFFFFFFFFF00000
00FFFFFFFFFFF00000
00FFFFFFFFFFF00000
00FFFFFFFFFFF00000
00FFFFFFFFFFF00000
FFF000000000FFF000
FFF000000000FFF000
FFF000000000FFF000
FFF000000000FFF000
FFF000000000FFF000
FFF000000000FFF000
FFF000000000FFF000
FFF000000000FFF000
FFFFFFFFFFFFFFF000
FFFFFFFFFFFFFFF000
FFFFFFFFFFFFFFF000
FFFFFFFFFFFFFFF000
FFFFFFFFFFFFFFF000
FFFFFFFFFFFFFFF000
FFFFFFFFFFFFFFF000
FFFFFFFFFFFFFFF000
FFF000000000000000
FFF000000000000000
FFF000000000000000
FFF000000000000000
FFF000000000000000
FFF000000000000000
FFF000000000000000
FFF000000000000000
00FFFFFFFFFFF00000
00FFFFFFFFFFF00000
00FFFFFFFFFFF00000
00FFFFFFFFFFF00000
00FFFFFFFFFFF00000
00FFFFFFFFFFF00000
00FFFFFFFFFFF00000
00FFFFFFFFFFF00000
000000000000000000
000000000000000000
000000000000000000
000000000000000000
000000000000000000
000000000000000000
000000000000000000
000000000000000000
000000000000000000
000000000000000000
000000000000000000
000000000000000000
000000000000000000
000000000000000000
000000000000000000
000000000000000000
ENDCHAR
STARTCHAR U+00E8
ENCODING 232
SWIDTH 1000 0
BBX 68 80 0 -16
DWIDTH 68 0
BITMAP
000000000000000000
000000000000000000
000000000000000000
000000000000000000
000000000000000000
000000000000000000
000000000000000000
000000000000000000
0000FFFFF000000000
0000FFFFF000000000
0000FFFFF000000000
0000FFFFF000000000
0000FFFFF000000000
0000FFFFF000000000
0000FFFFF000000000
0000FFFFF000000000
00000000FFFFF00000
00000000FFFFF00000
00000000FFFFF00000
00000000FFFFF00000
00000000FFFFF00000
00000000FFFFF00000
00000000FFFFF00000
00000000FFFFF00000
00FFFFFFFFFFF00000
00FFFFFFFFFFF00000
00FFFFFFFFFFF00000
00FFFFFFFFFFF00000
00FFFFFFFFFFF00000
00FFFFFFFFFFF00000
00FFFFFFFFFFF00000
00FFFFFFFFFFF00000
FFF000000000FFF000
FFF000000000FFF000
FFF000000000FFF000
FFF000000000FFF000
FFF000000000FFF000
FFF000000000FFF000
FFF000000000FFF000
FFF000000000FFF000
FFFFFFFFFFFFFFF000
FFFFFFFFFFFFFFF000
FFFFFFFFFFFFFFF000
FFFFFFFFFFFFFFF000
FFFFFFFFFFFFFFF000
FFFFFFFFFFFFFFF000
FFFFFFFFFFFFFFF000
FFFFFFFFFFFFFFF000
FFF000000000000000
FFF000000000000000
FFF000000000000000
FFF000000000000000
FFF000000000000000
FFF000000000000000
FFF000000000000000
FFF000000000000000
00FFFFFFFFFFF00000
00FFFFFFFFFFF00000
00FFFFFFFFFFF00000
00FFFFFFFFFFF00000
00FFFFFFFFFFF00000
00FFFFFFFFFFF00000
00FFFFFFFFFFF00000
00FFFFFFFFFFF00000
000000000000000000
000000000000000000
000000000000000000
000000000000000000
000000000000000000
000000000000000000
000000000000000000
000000000000000000
000000000000000000
000000000000000000
000000000000000000
000000000000000000
000000000000000000
000000000000000000
000000000000000000
000000000000000000
ENDCHAR
STARTCHAR U+00E7
ENCODING 231
SWIDTH 1000 0
BBX 68 80 0 -16
DWIDTH 68 0
BITMAP
000000000000000000
000000000000000000
000000000000000000
000000000000000000
000000000000000000
000000000000000000
000000000000000000
000000000000000000
000000000000000000
000000000000000000
000000000000000000
000000000000000000
000000000000000000
000000000000000000
000000000000000000
000000000000000000
000000000000000000
000000000000000000
000000000000000000
000000000000000000
000000000000000000
000000000000000000
000000000000000000
000000000000000000
00FFFFFFFFFFF00000
00FFFFFFFFFFF00000
00FFFFFFFFFFF00000
00FFFFFFFFFFF00000
00FFFFFFFFFFF00000
00FFFFFFFFFFF00000
00FFFFFFFFFFF00000
00FFFFFFFFFFF00000
FFF000000000FFF000
FFF000000000FFF000
FFF000000000FFF000
FFF000000000FFF000
FFF000000000FFF000
FFF000000000FFF000
FFF000000000FFF000
FFF000000000FFF000
FFF000000000000000
FFF000000000000000
FFF000000000000000
FFF000000000000000
FFF000000000000000
FFF000000000000000
FFF000000000000000
FFF000000000000000
FFF000000000FFF000
FFF000000000FFF000
FFF000000000FFF000
FFF000000000FFF000
FFF000000000FFF000
FFF000000000FFF000
FFF000000000FFF000
FFF000000000FFF000
00FFFFFFFFFFF00000
00FFFFFFFFFFF00000
00FFFFFFFFFFF00000
00FFFFFFFFFFF00000
00FFFFFFFFFFF00000
00FFFFFFFFFFF00000
00FFFFFFFFFFF00000
00FFFFFFFFFFF00000
00000000FFF0000000
00000000FFF0000000
00000000FFF0000000
00000000FFF0000000
00000000FFF0000000
00000000FFF0000000
00000000FFF0000000
00000000FFF0000000
0000FFFFFFF0000000
0000FFFFFFF0000000
0000FFFFFFF0000000
0000FFFFFFF0000000
0000FFFFFFF0000000
0000FFFFFFF0000000
0000FFFFFFF0000000
0000FFFFFFF0000000
ENDCHAR
STARTCHAR U+00E6
ENCODING 230
SWIDTH 1000 0
BBX 68 80 0 -16
DWIDTH 68 0
BITMAP
000000000000000000
000000000000000000
000000000000000000
000000000000000000
000000000000000000
000000000000000000
000000000000000000
000000000000000000
000000000000000000
000000000000000000
000000000000000000
000000000000000000
000000000000000000
000000000000000000
000000000000000000
000000000000000000
000000000000000000
000000000000000000
000000000000000000
000000000000000000
000000000000000000
000000000000000000
000000000000000000
000000000000000000
00FFFFF0FFFFF00000
00FFFFF0FFFFF00000
00FFFFF0FFFFF00000
00FFFFF0FFFFF00000
00FFFFF0FFFFF00000
00FFFFF0FFFFF00000
00FFFFF0FFFFF00000
00FFFFF0FFFFF00000
000000FFF000FFF000
000000FFF000FFF000
000000FFF000FFF000
000000FFF000FFF000
000000FFF000FFF000
000000FFF000FFF000
000000FFF000FFF000
000000FFF000FFF000
00FFFFFFFFFFFFF000
00FFFFFFFFFFFFF000
00FFFFFFFFFFFFF000
00FFFFFFFFFFFFF000
00FFFFFFFFFFFFF000
00FFFFFFFFFFFFF000
00FFFFFFFFFFFFF000
00FFFFFFFFFFFFF000
FFF000FFF000000000
FFF000FFF000000000
FFF000FFF000000000
FFF000FFF000000000
FFF000FFF000000000
FFF000FFF000000000
FFF000FFF000000000
FFF000FFF000000000
00FFFFFFFFFFFFF000
00FFFFFFFFFFFFF000
00FFFFFFFFFFFFF000
00FFFFFFFFFFFFF000
00FFFFFFFFFFFFF000
00FFFFFFFFFFFFF000
00FFFFFFFFFFFFF000
00FFFFFFFFFFFFF000
000000000000000000
000000000000000000
000000000000000000
000000000000000000
000000000000000000
000000000000000000
000000000000000000
000000000000000000
000000000000000000
000000000000000000
000000000000000000
000000000000000000
000000000000000000
000000000000000000
000000000000000000
000000000000000000
ENDCHAR
STARTCHAR U+00E5
ENCODING 229
SWIDTH 1000 0
BBX 68 80 0 -16
DWIDTH 68 0
BITMAP
0000FFFFFFF0000000
0000FFFFFFF0000000
0000FFFFFFF0000000
0000FFFFFFF0000000
0000FFFFFFF0000000
0000FFFFFFF0000000
0000FFFFFFF0000000
0000FFFFFFF0000000
00FFF00000FFF00000
00FFF00000FFF00000
00FFF00000FFF00000
00FFF00000FFF00000
00FFF00000FFF00000
00FFF00000FFF00000
00FFF00000FFF00000
00FFF00000FFF00000
0000FFFFFFF0000000
0000FFFFFFF0000000
0000FFFFFFF0000000
0000FFFFFFF0000000
0000FFFFFFF0000000
0000FFFFFFF0000000
0000FFFFFFF0000000
0000FFFFFFF0000000
00FFFFFFFFFFF00000
00FFFFFFFFFFF00000
00FFFFFFFFFFF00000
00FFFFFFFFFFF00000
00FFFFFFFFFFF00000
00FFFFFFFFFFF00000
00FFFFFFFFFFF00000
00FFFFFFFFFFF00000
000000000000FFF000
000000000000FFF000
000000000000FFF000
000000000000FFF000
000000000000FFF000
000000000000FFF000
000000000000FFF000
000000000000FFF000
00FFFFFFFFFFFFF000
00FFFFFFFFFFFFF000
00FFFFFFFFFFFFF000
00FFFFFFFFFFFFF000
00FFFFFFFFFFFFF000
00FFFFFFFFFFFFF000
00FFFFFFFFFFFFF000
00FFFFFFFFFFFFF000
FFF0000000FFFFF000
FFF0000000FFFFF000
FFF0000000FFFFF000
FFF0000000FFFFF000
FFF0000000FFFFF000
FFF0000000FFFFF000
FFF0000000FFFFF000
FFF0000000FFFFF000
00FFFFFFFFF0FFF000
00FFFFFFFFF0FFF000
00FFFFFFFFF0FFF000
00FFFFFFFFF0FFF000
00FFFFFFFFF0FFF000
00FFFFFFFFF0FFF000
00FFFFFFFFF0FFF000
00FFFFFFFFF0FFF000
000000000000000000
000000000000000000
000000000000000000
000000000000000000
000000000000000000
000000000000000000
000000000000000000
000000000000000000
000000000000000000
000000000000000000
000000000000000000
000000000000000000
000000000000000000
000000000000000000
000000000000000000
000000000000000000
ENDCHAR
STARTCHAR U+00E4
ENCODING 228
SWIDTH 1000 0
BBX 68 80 0 -16
DWIDTH 68 0
BITMAP
000000000000000000
000000000000000000
000000000000000000
000000000000000000
000000000000000000
000000000000000000
000000000000000000
000000000000000000
00FFF00000FFF00000
00FFF00000FFF00000
00FFF00000FFF00000
00FFF00000FFF00000
00FFF00000FFF00000
00FFF00000FFF00000
00FFF00000FFF00000
00FFF00000FFF00000
000000000000000000
000000000000000000
000000000000000000
000000000000000000
000000000000000000
000000000000000000
000000000000000000
000000000000000000
00FFFFFFFFFFF00000
00FFFFFFFFFFF00000
00FFFFFFFFFFF00000
00FFFFFFFFFFF00000
00FFFFFFFFFFF00000
00FFFFFFFFFFF00000
00FFFFFFFFFFF00000
00FFFFFFFFFFF00000
000000000000FFF000
000000000000FFF000
000000000000FFF000
000000000000FFF000
000000000000FFF000
000000000000FFF000
000000000000FFF000
000000000000FFF000
00FFFFFFFFFFFFF000
00FFFFFFFFFFFFF000
00FFFFFFFFFFFFF000
00FFFFFFFFFFFFF000
00FFFFFFFFFFFFF000
00FFFFFFFFFFFFF000
00FFFFFFFFFFFFF000
00FFFFFFFFFFFFF000
FFF0000000FFFFF000
FFF0000000FFFFF000
FFF0000000FFFFF000
FFF0000000FFFFF000
FFF0000000FFFFF000
FFF0000000FFFFF000
FFF0000000FFFFF000
FFF0000000FFFFF000
00FFFFFFFFF0FFF000
00FFFFFFFFF0FFF000
00FFFFFFFFF0FFF000
00FFFFFFFFF0FFF000
00FFFFFFFFF0FFF000
00FFFFFFFFF0FFF000
00FFFFFFFFF0FFF000
00FFFFFFFFF0FFF000
000000000000000000
000000000000000000
000000000000000000
000000000000000000
000000000000000000
000000000000000000
000000000000000000
000000000000000000
000000000000000000
000000000000000000
000000000000000000
000000000000000000
000000000000000000
000000000000000000
000000000000000000
000000000000000000
ENDCHAR
STARTCHAR U+00E3
ENCODING 227
SWIDTH 1000 0
BBX 68 80 0 -16
DWIDTH 68 0
BITMAP
0000FFFFF000FFF000
0000FFFFF000FFF000
0000FFFFF000FFF000
0000FFFFF000FFF000
0000FFFFF000FFF000
0000FFFFF000FFF000
0000FFFFF000FFF000
0000FFFFF000FFF000
00FFF000FFFFF00000
00FFF000FFFFF00000
00FFF000FFFFF00000
00FFF000FFFFF00000
00FFF000FFFFF00000
00FFF000FFFFF00000
00FFF000FFFFF00000
00FFF000FFFFF00000
000000000000000000
000000000000000000
000000000000000000
000000000000000000
000000000000000000
000000000000000000
000000000000000000
000000000000000000
00FFFFFFFFFFF00000
00FFFFFFFFFFF00000
00FFFFFFFFFFF00000
00FFFFFFFFFFF00000
00FFFFFFFFFFF00000
00FFFFFFFFFFF00000
00FFFFFFFFFFF00000
00FFFFFFFFFFF00000
000000000000FFF000
000000000000FFF000
000000000000FFF000
000000000000FFF000
000000000000FFF000
000000000000FFF000
000000000000FFF000
000000000000FFF000
00FFFFFFFFFFFFF000
00FFFFFFFFFFFFF000
00FFFFFFFFFFFFF000
00FFFFFFFFFFFFF000
00FFFFFFFFFFFFF000
00FFFFFFFFFFFFF000
00FFFFFFFFFFFFF000
00FFFFFFFFFFFFF000
FFF0000000FFFFF000
FFF0000000FFFFF000
FFF0000000FFFFF000
FFF0000000FFFFF000
FFF0000000FFFFF000
FFF0000000FFFFF000
FFF0000000FFFFF000
FFF0000000FFFFF000
00FFFFFFFFF0FFF000
00FFFFFFFFF0FFF000
00FFFFFFFFF0FFF000
00FFFFFFFFF0FFF000
00FFFFFFFFF0FFF000
00FFFFFFFFF0FFF000
00FFFFFFFFF0FFF000
00FFFFFFFFF0FFF000
000000000000000000
000000000000000000
000000000000000000
000000000000000000
000000000000000000
000000000000000000
000000000000000000
000000000000000000
000000000000000000
000000000000000000
000000000000000000
000000000000000000
000000000000000000
000000000000000000
000000000000000000
000000000000000000
ENDCHAR
STARTCHAR U+00E2
ENCODING 226
SWIDTH 1000 0
BBX 68 80 0 -16
DWIDTH 68 0
BITMAP
0000FFFFFFF0000000
0000FFFFFFF0000000
0000FFFFFFF0000000
0000FFFFFFF0000000
0000FFFFFFF0000000
0000FFFFFFF0000000
0000FFFFFFF0000000
0000FFFFFFF0000000
00FFF00000FFF00000
00FFF00000FFF00000
00FFF00000FFF00000
00FFF00000FFF00000
00FFF00000FFF00000
00FFF00000FFF00000
00FFF00000FFF00000
00FFF00000FFF00000
000000000000000000
000000000000000000
000000000000000000
000000000000000000
000000000000000000
000000000000000000
000000000000000000
000000000000000000
00FFFFFFFFFFF00000
00FFFFFFFFFFF00000
00FFFFFFFFFFF00000
00FFFFFFFFFFF00000
00FFFFFFFFFFF00000
00FFFFFFFFFFF00000
00FFFFFFFFFFF00000
00FFFFFFFFFFF00000
000000000000FFF000
000000000000FFF000
000000000000FFF000
000000000000FFF000
000000000000FFF000
000000000000FFF000
000000000000FFF000
000000000000FFF000
00FFFFFFFFFFFFF000
00FFFFFFFFFFFFF000
00FFFFFFFFFFFFF000
00FFFFFFFFFFFFF000
00FFFFFFFFFFFFF000
00FFFFFFFFFFFFF000
00FFFFFFFFFFFFF000
00FFFFFFFFFFFFF000
FFF0000000FFFFF000
FFF0000000FFFFF000
FFF0000000FFFFF000
FFF0000000FFFFF000
FFF0000000FFFFF000
FFF0000000FFFFF000
FFF0000000FFFFF000
FFF0000000FFFFF000
00FFFFFFFFF0FFF000
00FFFFFFFFF0FFF000
00FFFFFFFFF0FFF000
00FFFFFFFFF0FFF000
00FFFFFFFFF0FFF000
00FFFFFFFFF0FFF000
00FFFFFFFFF0FFF000
00FFFFFFFFF0FFF000
000000000000000000
000000000000000000
000000000000000000
000000000000000000
000000000000000000
000000000000000000
000000000000000000
000000000000000000
000000000000000000
000000000000000000
000000000000000000
000000000000000000
000000000000000000
000000000000000000
000000000000000000
000000000000000000
ENDCHAR
STARTCHAR U+00E1
ENCODING 225
SWIDTH 1000 0
BBX 68 80 0 -16
DWIDTH 68 0
BITMAP
000000000000000000
000000000000000000
000000000000000000
000000000000000000
000000000000000000
000000000000000000
000000000000000000
000000000000000000
000000FFFFF0000000
000000FFFFF0000000
000000FFFFF0000000
000000FFFFF0000000
000000FFFFF0000000
000000FFFFF0000000
000000FFFFF0000000
000000FFFFF0000000
00FFFFF00000000000
00FFFFF00000000000
00FFFFF00000000000
00FFFFF00000000000
00FFFFF00000000000
00FFFFF00000000000
00FFFFF00000000000
00FFFFF00000000000
00FFFFFFFFFFF00000
00FFFFFFFFFFF00000
00FFFFFFFFFFF00000
00FFFFFFFFFFF00000
00FFFFFFFFFFF00000
00FFFFFFFFFFF00000
00FFFFFFFFFFF00000
00FFFFFFFFFFF00000
000000000000FFF000
000000000000FFF000
000000000000FFF000
000000000000FFF000
000000000000FFF000
000000000000FFF000
000000000000FFF000
000000000000FFF000
00FFFFFFFFFFFFF000
00FFFFFFFFFFFFF000
00FFFFFFFFFFFFF000
00FFFFFFFFFFFFF000
00FFFFFFFFFFFFF000
00FFFFFFFFFFFFF000
00FFFFFFFFFFFFF000
00FFFFFFFFFFFFF000
FFF0000000FFFFF000
FFF0000000FFFFF000
FFF0000000FFFFF000
FFF0000000FFFFF000
FFF0000000FFFFF000
FFF0000000FFFFF000
FFF0000000FFFFF000
FFF0000000FFFFF000
00FFFFFFFFF0FFF000
00FFFFFFFFF0FFF000
00FFFFFFFFF0FFF000
00FFFFFFFFF0FFF000
00FFFFFFFFF0FFF000
00FFFFFFFFF0FFF000
00FFFFFFFFF0FFF000
00FFFFFFFFF0FFF000
000000000000000000
000000000000000000
000000000000000000
000000000000000000
000000000000000000
000000000000000000
000000000000000000
000000000000000000
000000000000000000
000000000000000000
000000000000000000
000000000000000000
000000000000000000
000000000000000000
000000000000000000
000000000000000000
ENDCHAR
STARTCHAR U+00E0
ENCODING 224
SWIDTH 1000 0
BBX 68 80 0 -16
DWIDTH 68 0
BITMAP
000000000000000000
000000000000000000
000000000000000000
000000000000000000
000000000000000000
000000000000000000
000000000000000000
000000000000000000
0000FFFFF000000000
0000FFFFF000000000
0000FFFFF000000000
0000FFFFF000000000
0000FFFFF000000000
0000FFFFF000000000
0000FFFFF000000000
0000FFFFF000000000
00000000FFFFF00000
00000000FFFFF00000
00000000FFFFF00000
00000000FFFFF00000
00000000FFFFF00000
00000000FFFFF00000
00000000FFFFF00000
00000000FFFFF00000
00FFFFFFFFFFF00000
00FFFFFFFFFFF00000
00FFFFFFFFFFF00000
00FFFFFFFFFFF00000
00FFFFFFFFFFF00000
00FFFFFFFFFFF00000
00FFFFFFFFFFF00000
00FFFFFFFFFFF00000
000000000000FFF000
000000000000FFF000
000000000000FFF000
000000000000FFF000
000000000000FFF000
000000000000FFF000
000000000000FFF000
000000000000FFF000
00FFFFFFFFFFFFF000
00FFFFFFFFFFFFF000
00FFFFFFFFFFFFF000
00FFFFFFFFFFFFF000
00FFFFFFFFFFFFF000
00FFFFFFFFFFFFF000
00FFFFFFFFFFFFF000
00FFFFFFFFFFFFF000
FFF0000000FFFFF000
FFF0000000FFFFF000
FFF0000000FFFFF000
FFF0000000FFFFF000
FFF0000000FFFFF000
FFF0000000FFFFF000
FFF0000000FFFFF000
FFF0000000FFFFF000
00FFFFFFFFF0FFF000
00FFFFFFFFF0FFF000
00FFFFFFFFF0FFF000
00FFFFFFFFF0FFF000
00FFFFFFFFF0FFF000
00FFFFFFFFF0FFF000
00FFFFFFFFF0FFF000
00FFFFFFFFF0FFF000
000000000000000000
000000000000000000
000000000000000000
000000000000000000
000000000000000000
000000000000000000
000000000000000000
000000000000000000
000000000000000000
000000000000000000
000000000000000000
000000000000000000
000000000000000000
000000000000000000
000000000000000000
000000000000000000
ENDCHAR
STARTCHAR U+00DF
ENCODING 223
SWIDTH 1000 0
BBX 68 80 0 -16
DWIDTH 68 0
BITMAP
000000000000000000
000000000000000000
000000000000000000
000000000000000000
000000000000000000
000000000000000000
000000000000000000
000000000000000000
0000FFFFFFF0000000
0000FFFFFFF0000000
0000FFFFFFF0000000
0000FFFFFFF0000000
0000FFFFFFF0000000
0000FFFFFFF0000000
0000FFFFFFF0000000
0000FFFFFFF0000000
00FFF00000FFF00000
00FFF00000FFF00000
00FFF00000FFF00000
00FFF00000FFF00000
00FFF00000FFF00000
00FFF00000FFF00000
00FFF00000FFF00000
00FFF00000FFF00000
FFF0000000FFF00000
FFF0000000FFF00000
FFF0000000FFF00000
FFF0000000FFF00000
FFF0000000FFF00000
FFF0000000FFF00000
FFF0000000FFF00000
FFF0000000FFF00000
FFF0FFFFFFF0000000
FFF0FFFFFFF0000000
FFF0FFFFFFF0000000
FFF0FFFFFFF0000000
FFF0FFFFFFF0000000
FFF0FFFFFFF0000000
FFF0FFFFFFF0000000
FFF0FFFFFFF0000000
FFF0000000FFF00000
FFF0000000FFF00000
FFF0000000FFF00000
FFF0000000FFF00000
FFF0000000FFF00000
FFF0000000FFF00000
FFF0000000FFF00000
FFF0000000FFF00000
FFF0FFF00000FFF000
FFF0FFF00000FFF000
FFF0FFF00000FFF000
FFF0FFF00000FFF000
FFF0FFF00000FFF000
FFF0FFF00000FFF000
FFF0FFF00000FFF000
FFF0FFF00000FFF000
FFF000FFFFFFF00000
FFF000FFFFFFF00000
FFF000FFFFFFF00000
FFF000FFFFFFF00000
FFF000FFFFFFF00000
FFF000FFFFFFF00000
FFF000FFFFFFF00000
FFF000FFFFFFF00000
FFF000000000000000
FFF000000000000000
FFF000000000000000
FFF000000000000000
FFF000000000000000
FFF000000000000000
FFF000000000000000
FFF000000000000000
000000000000000000
000000000000000000
000000000000000000
000000000000000000
000000000000000000
000000000000000000
000000000000000000
000000000000000000
ENDCHAR
STARTCHAR U+00DE
ENCODING 222
SWIDTH 1000 0
BBX 68 80 0 -16
DWIDTH 68 0
BITMAP
000000000000000000
000000000000000000
000000000000000000
000000000000000000
000000000000000000
000000000000000000
000000000000000000
000000000000000000
FFFFFFF00000000000
FFFFFFF00000000000
FFFFFFF00000000000
FFFFFFF00000000000
FFFFFFF00000000000
FFFFFFF00000000000
FFFFFFF00000000000
FFFFFFF00000000000
FFF000FFF000000000
FFF000FFF000000000
FFF000FFF000000000
FFF000FFF000000000
FFF000FFF000000000
FFF000FFF000000000
FFF000FFF000000000
FFF000FFF000000000
FFF000FFF000000000
FFF000FFF000000000
FFF000FFF000000000
FFF000FFF000000000
FFF000FFF000000000
FFF000FFF000000000
FFF000FFF000000000
FFF000FFF000000000
FFF000FFF000000000
FFF000FFF000000000
FFF000FFF000000000
FFF000FFF000000000
FFF000FFF000000000
FFF000FFF000000000
FFF000FFF000000000
FFF000FFF000000000
FFFFFFFFFFFFFFF000
FFFFFFFFFFFFFFF000
FFFFFFFFFFFFFFF000
FFFFFFFFFFFFFFF000
FFFFFFFFFFFFFFF000
FFFFFFFFFFFFFFF000
FFFFFFFFFFFFFFF000
FFFFFFFFFFFFFFF000
000000FFF000000000
000000FFF000000000
000000FFF000000000
000000FFF000000000
000000FFF000000000
000000FFF000000000
000000FFF000000000
000000FFF000000000
000000FFFFFFF00000
000000FFFFFFF00000
000000FFFFFFF00000
000000FFFFFFF00000
000000FFFFFFF00000
000000FFFFFFF00000
000000FFFFFFF00000
000000FFFFFFF00000
000000FFF000000000
000000FFF000000000
000000FFF000000000
000000FFF000000000
000000FFF000000000
000000FFF000000000
000000FFF000000000
000000FFF000000000
000000FFFFFFFFF000
000000FFFFFFFFF000
000000FFFFFFFFF000
000000FFFFFFFFF000
000000FFFFFFFFF000
000000FFFFFFFFF000
000000FFFFFFFFF000
000000FFFFFFFFF000
ENDCHAR
STARTCHAR U+0178
ENCODING 376
SWIDTH 1000 0
BBX 68 80 0 -16
DWIDTH 68 0
BITMAP
00FFF00000FFF00000
00FFF00000FFF00000
00FFF00000FFF00000
00FFF00000FFF00000
00FFF00000FFF00000
00FFF00000FFF00000
00FFF00000FFF00000
00FFF00000FFF00000
000000000000000000
000000000000000000
000000000000000000
000000000000000000
000000000000000000
000000000000000000
000000000000000000
000000000000000000
FFF000000000FFF000
FFF000000000FFF000
FFF000000000FFF000
FFF000000000FFF000
FFF000000000FFF000
FFF000000000FFF000
FFF000000000FFF000
FFF000000000FFF000
00FFF00000FFF00000
00FFF00000FFF00000
00FFF00000FFF00000
00FFF00000FFF00000
00FFF00000FFF00000
00FFF00000FFF00000
00FFF00000FFF00000
00FFF00000FFF00000
0000FFF0FFF0000000
0000FFF0FFF0000000
0000FFF0FFF0000000
0000FFF0FFF0000000
0000FFF0FFF0000000
0000FFF0FFF0000000
0000FFF0FFF0000000
0000FFF0FFF0000000
000000FFF000000000
000000FFF000000000
000000FFF000000000
000000FFF000000000
000000FFF000000000
000000FFF000000000
000000FFF000000000
000000FFF000000000
000000FFF000000000
000000FFF000000000
000000FFF000000000
000000FFF000000000
000000FFF000000000
000000FFF000000000
000000FFF000000000
000000FFF000000000
000000FFF000000000
000000FFF000000000
000000FFF000000000
000000FFF000000000
000000FFF000000000
000000FFF000000000
000000FFF000000000
000000FFF000000000
000000000000000000
000000000000000000
000000000000000000
000000000000000000
000000000000000000
000000000000000000
000000000000000000
000000000000000000
000000000000000000
000000000000000000
000000000000000000
000000000000000000
000000000000000000
000000000000000000
000000000000000000
000000000000000000
ENDCHAR
STARTCHAR U+00DC
ENCODING 220
SWIDTH 1000 0
BBX 68 80 0 -16
DWIDTH 68 0
BITMAP
00FFF00000FFF00000
00FFF00000FFF00000
00FFF00000FFF00000
00FFF00000FFF00000
00FFF00000FFF00000
00FFF00000FFF00000
00FFF00000FFF00000
00FFF00000FFF00000
000000000000000000
000000000000000000
000000000000000000
000000000000000000
000000000000000000
000000000000000000
000000000000000000
000000000000000000
FFF000000000FFF000
FFF000000000FFF000
FFF000000000FFF000
FFF000000000FFF000
FFF000000000FFF000
FFF000000000FFF000
FFF000000000FFF000
FFF000000000FFF000
FFF000000000FFF000
FFF000000000FFF000
FFF000000000FFF000
FFF000000000FFF000
FFF000000000FFF000
FFF000000000FFF000
FFF000000000FFF000
FFF000000000FFF000
FFF000000000FFF000
FFF000000000FFF000
FFF000000000FFF000
FFF000000000FFF000
FFF000000000FFF000
FFF000000000FFF000
FFF000000000FFF000
FFF000000000FFF000
FFF000000000FFF000
FFF000000000FFF000
FFF000000000FFF000
FFF000000000FFF000
FFF000000000FFF000
FFF000000000FFF000
FFF000000000FFF000
FFF000000000FFF000
FFF000000000FFF000
FFF000000000FFF000
FFF000000000FFF000
FFF000000000FFF000
FFF000000000FFF000
FFF000000000FFF000
FFF000000000FFF000
FFF000000000FFF000
00FFFFFFFFFFF00000
00FFFFFFFFFFF00000
00FFFFFFFFFFF00000
00FFFFFFFFFFF00000
00FFFFFFFFFFF00000
00FFFFFFFFFFF00000
00FFFFFFFFFFF00000
00FFFFFFFFFFF00000
000000000000000000
000000000000000000
000000000000000000
000000000000000000
000000000000000000
000000000000000000
000000000000000000
000000000000000000
000000000000000000
000000000000000000
000000000000000000
000000000000000000
000000000000000000
000000000000000000
000000000000000000
000000000000000000
ENDCHAR
STARTCHAR U+00DB
ENCODING 219
SWIDTH 1000 0
BBX 68 80 0 -16
DWIDTH 68 0
BITMAP
000000FFF000000000
000000FFF000000000
000000FFF000000000
000000FFF000000000
000000FFF000000000
000000FFF000000000
000000FFF000000000
000000FFF000000000
0000FFF0FFF0000000
0000FFF0FFF0000000
0000FFF0FFF0000000
0000FFF0FFF0000000
0000FFF0FFF0000000
0000FFF0FFF0000000
0000FFF0FFF0000000
0000FFF0FFF0000000
FFF000000000FFF000
FFF000000000FFF000
FFF000000000FFF000
FFF000000000FFF000
FFF000000000FFF000
FFF000000000FFF000
FFF000000000FFF000
FFF000000000FFF000
FFF000000000FFF000
FFF000000000FFF000
FFF000000000FFF000
FFF000000000FFF000
FFF000000000FFF000
FFF000000000FFF000
FFF000000000FFF000
FFF000000000FFF000
FFF000000000FFF000
FFF000000000FFF000
FFF000000000FFF000
FFF000000000FFF000
FFF000000000FFF000
FFF000000000FFF000
FFF000000000FFF000
FFF000000000FFF000
FFF000000000FFF000
FFF000000000FFF000
FFF000000000FFF000
FFF000000000FFF000
FFF000000000FFF000
FFF000000000FFF000
FFF000000000FFF000
FFF000000000FFF000
FFF000000000FFF000
FFF000000000FFF000
FFF000000000FFF000
FFF000000000FFF000
FFF000000000FFF000
FFF000000000FFF000
FFF000000000FFF000
FFF000000000FFF000
00FFFFFFFFFFF00000
00FFFFFFFFFFF00000
00FFFFFFFFFFF00000
00FFFFFFFFFFF00000
00FFFFFFFFFFF00000
00FFFFFFFFFFF00000
00FFFFFFFFFFF00000
00FFFFFFFFFFF00000
000000000000000000
000000000000000000
000000000000000000
000000000000000000
000000000000000000
000000000000000000
000000000000000000
000000000000000000
000000000000000000
000000000000000000
000000000000000000
000000000000000000
000000000000000000
000000000000000000
000000000000000000
000000000000000000
ENDCHAR
STARTCHAR U+00DA
ENCODING 218
SWIDTH 1000 0
BBX 68 80 0 -16
DWIDTH 68 0
BITMAP
00000000FFFFF00000
00000000FFFFF00000
00000000FFFFF00000
00000000FFFFF00000
00000000FFFFF00000
00000000FFFFF00000
00000000FFFFF00000
00000000FFFFF00000
0000FFFFF000000000
0000FFFFF000000000
0000FFFFF000000000
0000FFFFF000000000
0000FFFFF000000000
0000FFFFF000000000
0000FFFFF000000000
0000FFFFF000000000
FFF000000000FFF000
FFF000000000FFF000
FFF000000000FFF000
FFF000000000FFF000
FFF000000000FFF000
FFF000000000FFF000
FFF000000000FFF000
FFF000000000FFF000
FFF000000000FFF000
FFF000000000FFF000
FFF000000000FFF000
FFF000000000FFF000
FFF000000000FFF000
FFF000000000FFF000
FFF000000000FFF000
FFF000000000FFF000
FFF000000000FFF000
FFF000000000FFF000
FFF000000000FFF000
FFF000000000FFF000
FFF000000000FFF000
FFF000000000FFF000
FFF000000000FFF000
FFF000000000FFF000
FFF000000000FFF000
FFF000000000FFF000
FFF000000000FFF000
FFF000000000FFF000
FFF000000000FFF000
FFF000000000FFF000
FFF000000000FFF000
FFF000000000FFF000
FFF000000000FFF000
FFF000000000FFF000
FFF000000000FFF000
FFF000000000FFF000
FFF000000000FFF000
FFF000000000FFF000
FFF000000000FFF000
FFF000000000FFF000
00FFFFFFFFFFF00000
00FFFFFFFFFFF00000
00FFFFFFFFFFF00000
00FFFFFFFFFFF00000
00FFFFFFFFFFF00000
00FFFFFFFFFFF00000
00FFFFFFFFFFF00000
00FFFFFFFFFFF00000
000000000000000000
000000000000000000
000000000000000000
000000000000000000
000000000000000000
000000000000000000
000000000000000000
000000000000000000
000000000000000000
000000000000000000
000000000000000000
000000000000000000
000000000000000000
000000000000000000
000000000000000000
000000000000000000
ENDCHAR
STARTCHAR U+00D9
ENCODING 217
SWIDTH 1000 0
BBX 68 80 0 -16
DWIDTH 68 0
BITMAP
00FFFFF00000000000
00FFFFF00000000000
00FFFFF00000000000
00FFFFF00000000000
00FFFFF00000000000
00FFFFF00000000000
00FFFFF00000000000
00FFFFF00000000000
000000FFFFF0000000
000000FFFFF0000000
000000FFFFF0000000
000000FFFFF0000000
000000FFFFF0000000
000000FFFFF0000000
000000FFFFF0000000
000000FFFFF0000000
FFF000000000FFF000
FFF000000000FFF000
FFF000000000FFF000
FFF000000000FFF000
FFF000000000FFF000
FFF000000000FFF000
FFF000000000FFF000
FFF000000000FFF000
FFF000000000FFF000
FFF000000000FFF000
FFF000000000FFF000
FFF000000000FFF000
FFF000000000FFF000
FFF000000000FFF000
FFF000000000FFF000
FFF000000000FFF000
FFF000000000FFF000
FFF000000000FFF000
FFF000000000FFF000
FFF000000000FFF000
FFF000000000FFF000
FFF000000000FFF000
FFF000000000FFF000
FFF000000000FFF000
FFF000000000FFF000
FFF000000000FFF000
FFF000000000FFF000
FFF000000000FFF000
FFF000000000FFF000
FFF000000000FFF000
FFF000000000FFF000
FFF000000000FFF000
FFF000000000FFF000
FFF000000000FFF000
FFF000000000FFF000
FFF000000000FFF000
FFF000000000FFF000
FFF000000000FFF000
FFF000000000FFF000
FFF000000000FFF000
00FFFFFFFFFFF00000
00FFFFFFFFFFF00000
00FFFFFFFFFFF00000
00FFFFFFFFFFF00000
00FFFFFFFFFFF00000
00FFFFFFFFFFF00000
00FFFFFFFFFFF00000
00FFFFFFFFFFF00000
000000000000000000
000000000000000000
000000000000000000
000000000000000000
000000000000000000
000000000000000000
000000000000000000
000000000000000000
000000000000000000
000000000000000000
000000000000000000
000000000000000000
000000000000000000
000000000000000000
000000000000000000
000000000000000000
ENDCHAR
STARTCHAR U+00D8
ENCODING 216
SWIDTH 1000 0
BBX 68 80 0 -16
DWIDTH 68 0
BITMAP
000000000000FFF000
000000000000FFF000
000000000000FFF000
000000000000FFF000
000000000000FFF000
000000000000FFF000
000000000000FFF000
000000000000FFF000
00FFFFFFFFFFF00000
00FFFFFFFFFFF00000
00FFFFFFFFFFF00000
00FFFFFFFFFFF00000
00FFFFFFFFFFF00000
00FFFFFFFFFFF00000
00FFFFFFFFFFF00000
00FFFFFFFFFFF00000
FFF0000000FFFFF000
FFF0000000FFFFF000
FFF0000000FFFFF000
FFF0000000FFFFF000
FFF0000000FFFFF000
FFF0000000FFFFF000
FFF0000000FFFFF000
FFF0000000FFFFF000
FFF00000FFF0FFF000
FFF00000FFF0FFF000
FFF00000FFF0FFF000
FFF00000FFF0FFF000
FFF00000FFF0FFF000
FFF00000FFF0FFF000
FFF00000FFF0FFF000
FFF00000FFF0FFF000
FFF000FFF000FFF000
FFF000FFF000FFF000
FFF000FFF000FFF000
FFF000FFF000FFF000
FFF000FFF000FFF000
FFF000FFF000FFF000
FFF000FFF000FFF000
FFF000FFF000FFF000
FFF0FFF00000FFF000
FFF0FFF00000FFF000
FFF0FFF00000FFF000
FFF0FFF00000FFF000
FFF0FFF00000FFF000
FFF0FFF00000FFF000
FFF0FFF00000FFF000
FFF0FFF00000FFF000
FFFFF0000000FFF000
FFFFF0000000FFF000
FFFFF0000000FFF000
FFFFF0000000FFF000
FFFFF0000000FFF000
FFFFF0000000FFF000
FFFFF0000000FFF000
FFFFF0000000FFF000
00FFFFFFFFFFF00000
00FFFFFFFFFFF00000
00FFFFFFFFFFF00000
00FFFFFFFFFFF00000
00FFFFFFFFFFF00000
00FFFFFFFFFFF00000
00FFFFFFFFFFF00000
00FFFFFFFFFFF00000
FFF000000000000000
FFF000000000000000
FFF000000000000000
FFF000000000000000
FFF000000000000000
FFF000000000000000
FFF000000000000000
FFF000000000000000
000000000000000000
000000000000000000
000000000000000000
000000000000000000
000000000000000000
000000000000000000
000000000000000000
000000000000000000
ENDCHAR
STARTCHAR U+0152
ENCODING 338
SWIDTH 1000 0
BBX 68 80 0 -16
DWIDTH 68 0
BITMAP
000000000000000000
000000000000000000
000000000000000000
000000000000000000
000000000000000000
000000000000000000
000000000000000000
000000000000000000
00FFFFF0FFFFFFF000
00FFFFF0FFFFFFF000
00FFFFF0FFFFFFF000
00FFFFF0FFFFFFF000
00FFFFF0FFFFFFF000
00FFFFF0FFFFFFF000
00FFFFF0FFFFFFF000
00FFFFF0FFFFFFF000
FFF000FFF000000000
FFF000FFF000000000
FFF000FFF000000000
FFF000FFF000000000
FFF000FFF000000000
FFF000FFF000000000
FFF000FFF000000000
FFF000FFF000000000
FFF000FFF000000000
FFF000FFF000000000
FFF000FFF000000000
FFF000FFF000000000
FFF000FFF000000000
FFF000FFF000000000
FFF000FFF000000000
FFF000FFF000000000
FFF000FFFFFFF00000
FFF000FFFFFFF00000
FFF000FFFFFFF00000
FFF000FFFFFFF00000
FFF000FFFFFFF00000
FFF000FFFFFFF00000
FFF000FFFFFFF00000
FFF000FFFFFFF00000
FFF000FFF000000000
FFF000FFF000000000
FFF000FFF000000000
FFF000FFF000000000
FFF000FFF000000000
FFF000FFF000000000
FFF000FFF000000000
FFF000FFF000000000
FFF000FFF000000000
FFF000FFF000000000
FFF000FFF000000000
FFF000FFF000000000
FFF000FFF000000000
FFF000FFF000000000
FFF000FFF000000000
FFF000FFF000000000
00FFFFF0FFFFFFF000
00FFFFF0FFFFFFF000
00FFFFF0FFFFFFF000
00FFFFF0FFFFFFF000
00FFFFF0FFFFFFF000
00FFFFF0FFFFFFF000
00FFFFF0FFFFFFF000
00FFFFF0FFFFFFF000
000000000000000000
000000000000000000
000000000000000000
000000000000000000
000000000000000000
000000000000000000
000000000000000000
000000000000000000
000000000000000000
000000000000000000
000000000000000000
000000000000000000
000000000000000000
000000000000000000
000000000000000000
000000000000000000
ENDCHAR
STARTCHAR U+00D6
ENCODING 214
SWIDTH 1000 0
BBX 68 80 0 -16
DWIDTH 68 0
BITMAP
00FFF00000FFF00000
00FFF00000FFF00000
00FFF00000FFF00000
00FFF00000FFF00000
00FFF00000FFF00000
00FFF00000FFF00000
00FFF00000FFF00000
00FFF00000FFF00000
000000000000000000
000000000000000000
000000000000000000
000000000000000000
000000000000000000
000000000000000000
000000000000000000
000000000000000000
00FFFFFFFFFFF00000
00FFFFFFFFFFF00000
00FFFFFFFFFFF00000
00FFFFFFFFFFF00000
00FFFFFFFFFFF00000
00FFFFFFFFFFF00000
00FFFFFFFFFFF00000
00FFFFFFFFFFF00000
FFF000000000FFF000
FFF000000000FFF000
FFF000000000FFF000
FFF000000000FFF000
FFF000000000FFF000
FFF000000000FFF000
FFF000000000FFF000
FFF000000000FFF000
FFF000000000FFF000
FFF000000000FFF000
FFF000000000FFF000
FFF000000000FFF000
FFF000000000FFF000
FFF000000000FFF000
FFF000000000FFF000
FFF000000000FFF000
FFF000000000FFF000
FFF000000000FFF000
FFF000000000FFF000
FFF000000000FFF000
FFF000000000FFF000
FFF000000000FFF000
FFF000000000FFF000
FFF000000000FFF000
FFF000000000FFF000
FFF000000000FFF000
FFF000000000FFF000
FFF000000000FFF000
FFF000000000FFF000
FFF000000000FFF000
FFF000000000FFF000
FFF000000000FFF000
00FFFFFFFFFFF00000
00FFFFFFFFFFF00000
00FFFFFFFFFFF00000
00FFFFFFFFFFF00000
00FFFFFFFFFFF00000
00FFFFFFFFFFF00000
00FFFFFFFFFFF00000
00FFFFFFFFFFF00000
000000000000000000
000000000000000000
000000000000000000
000000000000000000
000000000000000000
000000000000000000
000000000000000000
000000000000000000
000000000000000000
000000000000000000
000000000000000000
000000000000000000
000000000000000000
000000000000000000
000000000000000000
000000000000000000
ENDCHAR
STARTCHAR U+00D5
ENCODING 213
SWIDTH 1000 0
BBX 68 80 0 -16
DWIDTH 68 0
BITMAP
00FFFFF000FFF00000
00FFFFF000FFF00000
00FFFFF000FFF00000
00FFFFF000FFF00000
00FFFFF000FFF00000
00FFFFF000FFF00000
00FFFFF000FFF00000
00FFFFF000FFF00000
FFF000FFFFF0000000
FFF000FFFFF0000000
FFF000FFFFF0000000
FFF000FFFFF0000000
FFF000FFFFF0000000
FFF000FFFFF0000000
FFF000FFFFF0000000
FFF000FFFFF0000000
00FFFFFFFFFFF00000
00FFFFFFFFFFF00000
00FFFFFFFFFFF00000
00FFFFFFFFFFF00000
00FFFFFFFFFFF00000
00FFFFFFFFFFF00000
00FFFFFFFFFFF00000
00FFFFFFFFFFF00000
FFF000000000FFF000
FFF000000000FFF000
FFF000000000FFF000
FFF000000000FFF000
FFF000000000FFF000
FFF000000000FFF000
FFF000000000FFF000
FFF000000000FFF000
FFF000000000FFF000
FFF000000000FFF000
FFF000000000FFF000
FFF000000000FFF000
FFF000000000FFF000
FFF000000000FFF000
FFF000000000FFF000
FFF000000000FFF000
FFF000000000FFF000
FFF000000000FFF000
FFF000000000FFF000
FFF000000000FFF000
FFF000000000FFF000
FFF000000000FFF000
FFF000000000FFF000
FFF000000000FFF000
FFF000000000FFF000
FFF000000000FFF000
FFF000000000FFF000
FFF000000000FFF000
FFF000000000FFF000
FFF000000000FFF000
FFF000000000FFF000
FFF000000000FFF000
00FFFFFFFFFFF00000
00FFFFFFFFFFF00000
00FFFFFFFFFFF00000
00FFFFFFFFFFF00000
00FFFFFFFFFFF00000
00FFFFFFFFFFF00000
00FFFFFFFFFFF00000
00FFFFFFFFFFF00000
000000000000000000
000000000000000000
000000000000000000
000000000000000000
000000000000000000
000000000000000000
000000000000000000
000000000000000000
000000000000000000
000000000000000000
000000000000000000
000000000000000000
000000000000000000
000000000000000000
000000000000000000
000000000000000000
ENDCHAR
STARTCHAR U+00D4
ENCODING 212
SWIDTH 1000 0
BBX 68 80 0 -16
DWIDTH 68 0
BITMAP
0000FFFFFFF0000000
0000FFFFFFF0000000
0000FFFFFFF0000000
0000FFFFFFF0000000
0000FFFFFFF0000000
0000FFFFFFF0000000
0000FFFFFFF0000000
0000FFFFFFF0000000
00FFF00000FFF00000
00FFF00000FFF00000
00FFF00000FFF00000
00FFF00000FFF00000
00FFF00000FFF00000
00FFF00000FFF00000
00FFF00000FFF00000
00FFF00000FFF00000
00FFFFFFFFFFF00000
00FFFFFFFFFFF00000
00FFFFFFFFFFF00000
00FFFFFFFFFFF00000
00FFFFFFFFFFF00000
00FFFFFFFFFFF00000
00FFFFFFFFFFF00000
00FFFFFFFFFFF00000
FFF000000000FFF000
FFF000000000FFF000
FFF000000000FFF000
FFF000000000FFF000
FFF000000000FFF000
FFF000000000FFF000
FFF000000000FFF000
FFF000000000FFF000
FFF000000000FFF000
FFF000000000FFF000
FFF000000000FFF000
FFF000000000FFF000
FFF000000000FFF000
FFF000000000FFF000
FFF000000000FFF000
FFF000000000FFF000
FFF000000000FFF000
FFF000000000FFF000
FFF000000000FFF000
FFF000000000FFF000
FFF000000000FFF000
FFF000000000FFF000
FFF000000000FFF000
FFF000000000FFF000
FFF000000000FFF000
FFF000000000FFF000
FFF000000000FFF000
FFF000000000FFF000
FFF000000000FFF000
FFF000000000FFF000
FFF000000000FFF000
FFF000000000FFF000
00FFFFFFFFFFF00000
00FFFFFFFFFFF00000
00FFFFFFFFFFF00000
00FFFFFFFFFFF00000
00FFFFFFFFFFF00000
00FFFFFFFFFFF00000
00FFFFFFFFFFF00000
00FFFFFFFFFFF00000
000000000000000000
000000000000000000
000000000000000000
000000000000000000
000000000000000000
000000000000000000
000000000000000000
000000000000000000
000000000000000000
000000000000000000
000000000000000000
000000000000000000
000000000000000000
000000000000000000
000000000000000000
000000000000000000
ENDCHAR
STARTCHAR U+00D3
ENCODING 211
SWIDTH 1000 0
BBX 68 80 0 -16
DWIDTH 68 0
BITMAP
000000FFFFF0000000
000000FFFFF0000000
000000FFFFF0000000
000000FFFFF0000000
000000FFFFF0000000
000000FFFFF0000000
000000FFFFF0000000
000000FFFFF0000000
00FFFFF00000000000
00FFFFF00000000000
00FFFFF00000000000
00FFFFF00000000000
00FFFFF00000000000
00FFFFF00000000000
00FFFFF00000000000
00FFFFF00000000000
00FFFFFFFFFFF00000
00FFFFFFFFFFF00000
00FFFFFFFFFFF00000
00FFFFFFFFFFF00000
00FFFFFFFFFFF00000
00FFFFFFFFFFF00000
00FFFFFFFFFFF00000
00FFFFFFFFFFF00000
FFF000000000FFF000
FFF000000000FFF000
FFF000000000FFF000
FFF000000000FFF000
FFF000000000FFF000
FFF000000000FFF000
FFF000000000FFF000
FFF000000000FFF000
FFF000000000FFF000
FFF000000000FFF000
FFF000000000FFF000
FFF000000000FFF000
FFF000000000FFF000
FFF000000000FFF000
FFF000000000FFF000
FFF000000000FFF000
FFF000000000FFF000
FFF000000000FFF000
FFF000000000FFF000
FFF000000000FFF000
FFF000000000FFF000
FFF000000000FFF000
FFF000000000FFF000
FFF000000000FFF000
FFF000000000FFF000
FFF000000000FFF000
FFF000000000FFF000
FFF000000000FFF000
FFF000000000FFF000
FFF000000000FFF000
FFF000000000FFF000
FFF000000000FFF000
00FFFFFFFFFFF00000
00FFFFFFFFFFF00000
00FFFFFFFFFFF00000
00FFFFFFFFFFF00000
00FFFFFFFFFFF00000
00FFFFFFFFFFF00000
00FFFFFFFFFFF00000
00FFFFFFFFFFF00000
000000000000000000
000000000000000000
000000000000000000
000000000000000000
000000000000000000
000000000000000000
000000000000000000
000000000000000000
000000000000000000
000000000000000000
000000000000000000
000000000000000000
000000000000000000
000000000000000000
000000000000000000
000000000000000000
ENDCHAR
STARTCHAR U+00D2
ENCODING 210
SWIDTH 1000 0
BBX 68 80 0 -16
DWIDTH 68 0
BITMAP
0000FFFFF000000000
0000FFFFF000000000
0000FFFFF000000000
0000FFFFF000000000
0000FFFFF000000000
0000FFFFF000000000
0000FFFFF000000000
0000FFFFF000000000
00000000FFFFF00000
00000000FFFFF00000
00000000FFFFF00000
00000000FFFFF00000
00000000FFFFF00000
00000000FFFFF00000
00000000FFFFF00000
00000000FFFFF00000
00FFFFFFFFFFF00000
00FFFFFFFFFFF00000
00FFFFFFFFFFF00000
00FFFFFFFFFFF00000
00FFFFFFFFFFF00000
00FFFFFFFFFFF00000
00FFFFFFFFFFF00000
00FFFFFFFFFFF00000
FFF000000000FFF000
FFF000000000FFF000
FFF000000000FFF000
FFF000000000FFF000
FFF000000000FFF000
FFF000000000FFF000
FFF000000000FFF000
FFF000000000FFF000
FFF000000000FFF000
FFF000000000FFF000
FFF000000000FFF000
FFF000000000FFF000
FFF000000000FFF000
FFF000000000FFF000
FFF000000000FFF000
FFF000000000FFF000
FFF000000000FFF000
FFF000000000FFF000
FFF000000000FFF000
FFF000000000FFF000
FFF000000000FFF000
FFF000000000FFF000
FFF000000000FFF000
FFF000000000FFF000
FFF000000000FFF000
FFF000000000FFF000
FFF000000000FFF000
FFF000000000FFF000
FFF000000000FFF000
FFF000000000FFF000
FFF000000000FFF000
FFF000000000FFF000
00FFFFFFFFFFF00000
00FFFFFFFFFFF00000
00FFFFFFFFFFF00000
00FFFFFFFFFFF00000
00FFFFFFFFFFF00000
00FFFFFFFFFFF00000
00FFFFFFFFFFF00000
00FFFFFFFFFFF00000
000000000000000000
000000000000000000
000000000000000000
000000000000000000
000000000000000000
000000000000000000
000000000000000000
000000000000000000
000000000000000000
000000000000000000
000000000000000000
000000000000000000
000000000000000000
000000000000000000
000000000000000000
000000000000000000
ENDCHAR
STARTCHAR U+00D1
ENCODING 209
SWIDTH 1000 0
BBX 68 80 0 -16
DWIDTH 68 0
BITMAP
0000FFFFF000FFF000
0000FFFFF000FFF000
0000FFFFF000FFF000
0000FFFFF000FFF000
0000FFFFF000FFF000
0000FFFFF000FFF000
0000FFFFF000FFF000
0000FFFFF000FFF000
00FFF000FFFFF00000
00FFF000FFFFF00000
00FFF000FFFFF00000
00FFF000FFFFF00000
00FFF000FFFFF00000
00FFF000FFFFF00000
00FFF000FFFFF00000
00FFF000FFFFF00000
FFFFF0000000FFF000
FFFFF0000000FFF000
FFFFF0000000FFF000
FFFFF0000000FFF000
FFFFF0000000FFF000
FFFFF0000000FFF000
FFFFF0000000FFF000
FFFFF0000000FFF000
FFF0FFF00000FFF000
FFF0FFF00000FFF000
FFF0FFF00000FFF000
FFF0FFF00000FFF000
FFF0FFF00000FFF000
FFF0FFF00000FFF000
FFF0FFF00000FFF000
FFF0FFF00000FFF000
FFF000FFF000FFF000
FFF000FFF000FFF000
FFF000FFF000FFF000
FFF000FFF000FFF000
FFF000FFF000FFF000
FFF000FFF000FFF000
FFF000FFF000FFF000
FFF000FFF000FFF000
FFF00000FFF0FFF000
FFF00000FFF0FFF000
FFF00000FFF0FFF000
FFF00000FFF0FFF000
FFF00000FFF0FFF000
FFF00000FFF0FFF000
FFF00000FFF0FFF000
FFF00000FFF0FFF000
FFF0000000FFFFF000
FFF0000000FFFFF000
FFF0000000FFFFF000
FFF0000000FFFFF000
FFF0000000FFFFF000
FFF0000000FFFFF000
FFF0000000FFFFF000
FFF0000000FFFFF000
FFF000000000FFF000
FFF000000000FFF000
FFF000000000FFF000
FFF000000000FFF000
FFF000000000FFF000
FFF000000000FFF000
FFF000000000FFF000
FFF000000000FFF000
000000000000000000
000000000000000000
000000000000000000
000000000000000000
000000000000000000
000000000000000000
000000000000000000
000000000000000000
000000000000000000
000000000000000000
000000000000000000
000000000000000000
000000000000000000
000000000000000000
000000000000000000
000000000000000000
ENDCHAR
STARTCHAR U+00D0
ENCODING 208
SWIDTH 1000 0
BBX 68 80 0 -16
DWIDTH 68 0
BITMAP
000000000000000000
000000000000000000
000000000000000000
000000000000000000
000000000000000000
000000000000000000
000000000000000000
000000000000000000
FFFFFFF00000000000
FFFFFFF00000000000
FFFFFFF00000000000
FFFFFFF00000000000
FFFFFFF00000000000
FFFFFFF00000000000
FFFFFFF00000000000
FFFFFFF00000000000
FFF000FFF000000000
FFF000FFF000000000
FFF000FFF000000000
FFF000FFF000000000
FFF000FFF000000000
FFF000FFF000000000
FFF000FFF000000000
FFF000FFF000000000
FFF000FFF000000000
FFF000FFF000000000
FFF000FFF000000000
FFF000FFF000000000
FFF000FFF000000000
FFF000FFF000000000
FFF000FFF000000000
FFF000FFF000000000
FFF000FFF000000000
FFF000FFF000000000
FFF000FFF000000000
FFF000FFF000000000
FFF000FFF000000000
FFF000FFF000000000
FFF000FFF000000000
FFF000FFF000000000
FFFFFFF0FFFFF00000
FFFFFFF0FFFFF00000
FFFFFFF0FFFFF00000
FFFFFFF0FFFFF00000
FFFFFFF0FFFFF00000
FFFFFFF0FFFFF00000
FFFFFFF0FFFFF00000
FFFFFFF0FFFFF00000
000000FFF000FFF000
000000FFF000FFF000
000000FFF000FFF000
000000FFF000FFF000
000000FFF000FFF000
000000FFF000FFF000
000000FFF000FFF000
000000FFF000FFF000
000000FFF000FFF000
000000FFF000FFF000
000000FFF000FFF000
000000FFF000FFF000
000000FFF000FFF000
000000FFF000FFF000
000000FFF000FFF000
000000FFF000FFF000
000000FFF000FFF000
000000FFF000FFF000
000000FFF000FFF000
000000FFF000FFF000
000000FFF000FFF000
000000FFF000FFF000
000000FFF000FFF000
000000FFF000FFF000
00000000FFFFF00000
00000000FFFFF00000
00000000FFFFF00000
00000000FFFFF00000
00000000FFFFF00000
00000000FFFFF00000
00000000FFFFF00000
00000000FFFFF00000
ENDCHAR
STARTCHAR U+00CF
ENCODING 207
SWIDTH 1000 0
BBX 68 80 0 -16
DWIDTH 68 0
BITMAP
00FFF00000FFF00000
00FFF00000FFF00000
00FFF00000FFF00000
00FFF00000FFF00000
00FFF00000FFF00000
00FFF00000FFF00000
00FFF00000FFF00000
00FFF00000FFF00000
000000000000000000
000000000000000000
000000000000000000
000000000000000000
000000000000000000
000000000000000000
000000000000000000
000000000000000000
00FFFFFFFFFFF00000
00FFFFFFFFFFF00000
00FFFFFFFFFFF00000
00FFFFFFFFFFF00000
00FFFFFFFFFFF00000
00FFFFFFFFFFF00000
00FFFFFFFFFFF00000
00FFFFFFFFFFF00000
000000FFF000000000
000000FFF000000000
000000FFF000000000
000000FFF000000000
000000FFF000000000
000000FFF000000000
000000FFF000000000
000000FFF000000000
000000FFF000000000
000000FFF000000000
000000FFF000000000
000000FFF000000000
000000FFF000000000
000000FFF000000000
000000FFF000000000
000000FFF000000000
000000FFF000000000
000000FFF000000000
000000FFF000000000
000000FFF000000000
000000FFF000000000
000000FFF000000000
000000FFF000000000
000000FFF000000000
000000FFF000000000
000000FFF000000000
000000FFF000000000
000000FFF000000000
000000FFF000000000
000000FFF000000000
000000FFF000000000
000000FFF000000000
00FFFFFFFFFFF00000
00FFFFFFFFFFF00000
00FFFFFFFFFFF00000
00FFFFFFFFFFF00000
00FFFFFFFFFFF00000
00FFFFFFFFFFF00000
00FFFFFFFFFFF00000
00FFFFFFFFFFF00000
000000000000000000
000000000000000000
000000000000000000
000000000000000000
000000000000000000
000000000000000000
000000000000000000
000000000000000000
000000000000000000
000000000000000000
000000000000000000
000000000000000000
000000000000000000
000000000000000000
000000000000000000
000000000000000000
ENDCHAR
STARTCHAR U+00CE
ENCODING 206
SWIDTH 1000 0
BBX 68 80 0 -16
DWIDTH 68 0
BITMAP
0000FFFFFFF0000000
0000FFFFFFF0000000
0000FFFFFFF0000000
0000FFFFFFF0000000
0000FFFFFFF0000000
0000FFFFFFF0000000
0000FFFFFFF0000000
0000FFFFFFF0000000
00FFF00000FFF00000
00FFF00000FFF00000
00FFF00000FFF00000
00FFF00000FFF00000
00FFF00000FFF00000
00FFF00000FFF00000
00FFF00000FFF00000
00FFF00000FFF00000
00FFFFFFFFFFF00000
00FFFFFFFFFFF00000
00FFFFFFFFFFF00000
00FFFFFFFFFFF00000
00FFFFFFFFFFF00000
00FFFFFFFFFFF00000
00FFFFFFFFFFF00000
00FFFFFFFFFFF00000
000000FFF000000000
000000FFF000000000
000000FFF000000000
000000FFF000000000
000000FFF000000000
000000FFF000000000
000000FFF000000000
000000FFF000000000
000000FFF000000000
000000FFF000000000
000000FFF000000000
000000FFF000000000
000000FFF000000000
000000FFF000000000
000000FFF000000000
000000FFF000000000
000000FFF000000000
000000FFF000000000
000000FFF000000000
000000FFF000000000
000000FFF000000000
000000FFF000000000
000000FFF000000000
000000FFF000000000
000000FFF000000000
000000FFF000000000
000000FFF000000000
000000FFF000000000
000000FFF000000000
000000FFF000000000
000000FFF000000000
000000FFF000000000
00FFFFFFFFFFF00000
00FFFFFFFFFFF00000
00FFFFFFFFFFF00000
00FFFFFFFFFFF00000
00FFFFFFFFFFF00000
00FFFFFFFFFFF00000
00FFFFFFFFFFF00000
00FFFFFFFFFFF00000
000000000000000000
000000000000000000
000000000000000000
000000000000000000
000000000000000000
000000000000000000
000000000000000000
000000000000000000
000000000000000000
000000000000000000
000000000000000000
000000000000000000
000000000000000000
000000000000000000
000000000000000000
000000000000000000
ENDCHAR
STARTCHAR U+00CD
ENCODING 205
SWIDTH 1000 0
BBX 68 80 0 -16
DWIDTH 68 0
BITMAP
000000FFFFF0000000
000000FFFFF0000000
000000FFFFF0000000
000000FFFFF0000000
000000FFFFF0000000
000000FFFFF0000000
000000FFFFF0000000
000000FFFFF0000000
00FFFFF00000000000
00FFFFF00000000000
00FFFFF00000000000
00FFFFF00000000000
00FFFFF00000000000
00FFFFF00000000000
00FFFFF00000000000
00FFFFF00000000000
00FFFFFFFFFFF00000
00FFFFFFFFFFF00000
00FFFFFFFFFFF00000
00FFFFFFFFFFF00000
00FFFFFFFFFFF00000
00FFFFFFFFFFF00000
00FFFFFFFFFFF00000
00FFFFFFFFFFF00000
000000FFF000000000
000000FFF000000000
000000FFF000000000
000000FFF000000000
000000FFF000000000
000000FFF000000000
000000FFF000000000
000000FFF000000000
000000FFF000000000
000000FFF000000000
000000FFF000000000
000000FFF000000000
000000FFF000000000
000000FFF000000000
000000FFF000000000
000000FFF000000000
000000FFF000000000
000000FFF000000000
000000FFF000000000
000000FFF000000000
000000FFF000000000
000000FFF000000000
000000FFF000000000
000000FFF000000000
000000FFF000000000
000000FFF000000000
000000FFF000000000
000000FFF000000000
000000FFF000000000
000000FFF000000000
000000FFF000000000
000000FFF000000000
00FFFFFFFFFFF00000
00FFFFFFFFFFF00000
00FFFFFFFFFFF00000
00FFFFFFFFFFF00000
00FFFFFFFFFFF00000
00FFFFFFFFFFF00000
00FFFFFFFFFFF00000
00FFFFFFFFFFF00000
000000000000000000
000000000000000000
000000000000000000
000000000000000000
000000000000000000
000000000000000000
000000000000000000
000000000000000000
000000000000000000
000000000000000000
000000000000000000
000000000000000000
000000000000000000
000000000000000000
000000000000000000
000000000000000000
ENDCHAR
STARTCHAR U+00CC
ENCODING 204
SWIDTH 1000 0
BBX 68 80 0 -16
DWIDTH 68 0
BITMAP
0000FFFFF000000000
0000FFFFF000000000
0000FFFFF000000000
0000FFFFF000000000
0000FFFFF000000000
0000FFFFF000000000
0000FFFFF000000000
0000FFFFF000000000
00000000FFFFF00000
00000000FFFFF00000
00000000FFFFF00000
00000000FFFFF00000
00000000FFFFF00000
00000000FFFFF00000
00000000FFFFF00000
00000000FFFFF00000
00FFFFFFFFFFF00000
00FFFFFFFFFFF00000
00FFFFFFFFFFF00000
00FFFFFFFFFFF00000
00FFFFFFFFFFF00000
00FFFFFFFFFFF00000
00FFFFFFFFFFF00000
00FFFFFFFFFFF00000
000000FFF000000000
000000FFF000000000
000000FFF000000000
000000FFF000000000
000000FFF000000000
000000FFF000000000
000000FFF000000000
000000FFF000000000
000000FFF000000000
000000FFF000000000
000000FFF000000000
000000FFF000000000
000000FFF000000000
000000FFF000000000
000000FFF000000000
000000FFF000000000
000000FFF000000000
000000FFF000000000
000000FFF000000000
000000FFF000000000
000000FFF000000000
000000FFF000000000
000000FFF000000000
000000FFF000000000
000000FFF000000000
000000FFF000000000
000000FFF000000000
000000FFF000000000
000000FFF000000000
000000FFF000000000
000000FFF000000000
000000FFF000000000
00FFFFFFFFFFF00000
00FFFFFFFFFFF00000
00FFFFFFFFFFF00000
00FFFFFFFFFFF00000
00FFFFFFFFFFF00000
00FFFFFFFFFFF00000
00FFFFFFFFFFF00000
00FFFFFFFFFFF00000
000000000000000000
000000000000000000
000000000000000000
000000000000000000
000000000000000000
000000000000000000
000000000000000000
000000000000000000
000000000000000000
000000000000000000
000000000000000000
000000000000000000
000000000000000000
000000000000000000
000000000000000000
000000000000000000
ENDCHAR
STARTCHAR U+00CB
ENCODING 203
SWIDTH 1000 0
BBX 68 80 0 -16
DWIDTH 68 0
BITMAP
00FFF00000FFF00000
00FFF00000FFF00000
00FFF00000FFF00000
00FFF00000FFF00000
00FFF00000FFF00000
00FFF00000FFF00000
00FFF00000FFF00000
00FFF00000FFF00000
000000000000000000
000000000000000000
000000000000000000
000000000000000000
000000000000000000
000000000000000000
000000000000000000
000000000000000000
FFFFFFFFFFFFFFF000
FFFFFFFFFFFFFFF000
FFFFFFFFFFFFFFF000
FFFFFFFFFFFFFFF000
FFFFFFFFFFFFFFF000
FFFFFFFFFFFFFFF000
FFFFFFFFFFFFFFF000
FFFFFFFFFFFFFFF000
FFF000000000000000
FFF000000000000000
FFF000000000000000
FFF000000000000000
FFF000000000000000
FFF000000000000000
FFF000000000000000
FFF000000000000000
FFFFFFFFFFF0000000
FFFFFFFFFFF0000000
FFFFFFFFFFF0000000
FFFFFFFFFFF0000000
FFFFFFFFFFF0000000
FFFFFFFFFFF0000000
FFFFFFFFFFF0000000
FFFFFFFFFFF0000000
FFF000000000000000
FFF000000000000000
FFF000000000000000
FFF000000000000000
FFF000000000000000
FFF000000000000000
FFF000000000000000
FFF000000000000000
FFF000000000000000
FFF000000000000000
FFF000000000000000
FFF000000000000000
FFF000000000000000
FFF000000000000000
FFF000000000000000
FFF000000000000000
FFFFFFFFFFFFFFF000
FFFFFFFFFFFFFFF000
FFFFFFFFFFFFFFF000
FFFFFFFFFFFFFFF000
FFFFFFFFFFFFFFF000
FFFFFFFFFFFFFFF000
FFFFFFFFFFFFFFF000
FFFFFFFFFFFFFFF000
000000000000000000
000000000000000000
000000000000000000
000000000000000000
000000000000000000
000000000000000000
000000000000000000
000000000000000000
000000000000000000
000000000000000000
000000000000000000
000000000000000000
000000000000000000
000000000000000000
000000000000000000
000000000000000000
ENDCHAR
STARTCHAR U+00CA
ENCODING 202
SWIDTH 1000 0
BBX 68 80 0 -16
DWIDTH 68 0
BITMAP
0000FFFFFFF0000000
0000FFFFFFF0000000
0000FFFFFFF0000000
0000FFFFFFF0000000
0000FFFFFFF0000000
0000FFFFFFF0000000
0000FFFFFFF0000000
0000FFFFFFF0000000
00FFF00000FFF00000
00FFF00000FFF00000
00FFF00000FFF00000
00FFF00000FFF00000
00FFF00000FFF00000
00FFF00000FFF00000
00FFF00000FFF00000
00FFF00000FFF00000
FFFFFFFFFFFFFFF000
FFFFFFFFFFFFFFF000
FFFFFFFFFFFFFFF000
FFFFFFFFFFFFFFF000
FFFFFFFFFFFFFFF000
FFFFFFFFFFFFFFF000
FFFFFFFFFFFFFFF000
FFFFFFFFFFFFFFF000
FFF000000000000000
FFF000000000000000
FFF000000000000000
FFF000000000000000
FFF000000000000000
FFF000000000000000
FFF000000000000000
FFF000000000000000
FFFFFFFFF000000000
FFFFFFFFF000000000
FFFFFFFFF000000000
FFFFFFFFF000000000
FFFFFFFFF000000000
FFFFFFFFF000000000
FFFFFFFFF000000000
FFFFFFFFF000000000
FFF000000000000000
FFF000000000000000
FFF000000000000000
FFF000000000000000
FFF000000000000000
FFF000000000000000
FFF000000000000000
FFF000000000000000
FFF000000000000000
FFF000000000000000
FFF000000000000000
FFF000000000000000
FFF000000000000000
FFF000000000000000
FFF000000000000000
FFF000000000000000
FFFFFFFFFFFFFFF000
FFFFFFFFFFFFFFF000
FFFFFFFFFFFFFFF000
FFFFFFFFFFFFFFF000
FFFFFFFFFFFFFFF000
FFFFFFFFFFFFFFF000
FFFFFFFFFFFFFFF000
FFFFFFFFFFFFFFF000
000000000000000000
000000000000000000
000000000000000000
000000000000000000
000000000000000000
000000000000000000
000000000000000000
000000000000000000
000000000000000000
000000000000000000
000000000000000000
000000000000000000
000000000000000000
000000000000000000
000000000000000000
000000000000000000
ENDCHAR
STARTCHAR U+00C9
ENCODING 201
SWIDTH 1000 0
BBX 68 80 0 -16
DWIDTH 68 0
BITMAP
00000000FFFFF00000
00000000FFFFF00000
00000000FFFFF00000
00000000FFFFF00000
00000000FFFFF00000
00000000FFFFF00000
00000000FFFFF00000
00000000FFFFF00000
0000FFFFF000000000
0000FFFFF000000000
0000FFFFF000000000
0000FFFFF000000000
0000FFFFF000000000
0000FFFFF000000000
0000FFFFF000000000
0000FFFFF000000000
FFFFFFFFFFFFFFF000
FFFFFFFFFFFFFFF000
FFFFFFFFFFFFFFF000
FFFFFFFFFFFFFFF000
FFFFFFFFFFFFFFF000
FFFFFFFFFFFFFFF000
FFFFFFFFFFFFFFF000
FFFFFFFFFFFFFFF000
FFF000000000000000
FFF000000000000000
FFF000000000000000
FFF000000000000000
FFF000000000000000
FFF000000000000000
FFF000000000000000
FFF000000000000000
FFFFFFFFFFF0000000
FFFFFFFFFFF0000000
FFFFFFFFFFF0000000
FFFFFFFFFFF0000000
FFFFFFFFFFF0000000
FFFFFFFFFFF0000000
FFFFFFFFFFF0000000
FFFFFFFFFFF0000000
FFF000000000000000
FFF000000000000000
FFF000000000000000
FFF000000000000000
FFF000000000000000
FFF000000000000000
FFF000000000000000
FFF000000000000000
FFF000000000000000
FFF000000000000000
FFF000000000000000
FFF000000000000000
FFF000000000000000
FFF000000000000000
FFF000000000000000
FFF000000000000000
FFFFFFFFFFFFFFF000
FFFFFFFFFFFFFFF000
FFFFFFFFFFFFFFF000
FFFFFFFFFFFFFFF000
FFFFFFFFFFFFFFF000
FFFFFFFFFFFFFFF000
FFFFFFFFFFFFFFF000
FFFFFFFFFFFFFFF000
000000000000000000
000000000000000000
000000000000000000
000000000000000000
000000000000000000
000000000000000000
000000000000000000
000000000000000000
000000000000000000
000000000000000000
000000000000000000
000000000000000000
000000000000000000
000000000000000000
000000000000000000
000000000000000000
ENDCHAR
STARTCHAR U+00C8
ENCODING 200
SWIDTH 1000 0
BBX 68 80 0 -16
DWIDTH 68 0
BITMAP
00FFFFF00000000000
00FFFFF00000000000
00FFFFF00000000000
00FFFFF00000000000
00FFFFF00000000000
00FFFFF00000000000
00FFFFF00000000000
00FFFFF00000000000
000000FFFFF0000000
000000FFFFF0000000
000000FFFFF0000000
000000FFFFF0000000
000000FFFFF0000000
000000FFFFF0000000
000000FFFFF0000000
000000FFFFF0000000
FFFFFFFFFFFFFFF000
FFFFFFFFFFFFFFF000
FFFFFFFFFFFFFFF000
FFFFFFFFFFFFFFF000
FFFFFFFFFFFFFFF000
FFFFFFFFFFFFFFF000
FFFFFFFFFFFFFFF000
FFFFFFFFFFFFFFF000
FFF000000000000000
FFF000000000000000
FFF000000000000000
FFF000000000000000
FFF000000000000000
FFF000000000000000
FFF000000000000000
FFF000000000000000
FFFFFFFFFFF0000000
FFFFFFFFFFF0000000
FFFFFFFFFFF0000000
FFFFFFFFFFF0000000
FFFFFFFFFFF0000000
FFFFFFFFFFF0000000
FFFFFFFFFFF0000000
FFFFFFFFFFF0000000
FFF000000000000000
FFF000000000000000
FFF000000000000000
FFF000000000000000
FFF000000000000000
FFF000000000000000
FFF000000000000000
FFF000000000000000
FFF000000000000000
FFF000000000000000
FFF000000000000000
FFF000000000000000
FFF000000000000000
FFF000000000000000
FFF000000000000000
FFF000000000000000
FFFFFFFFFFFFFFF000
FFFFFFFFFFFFFFF000
FFFFFFFFFFFFFFF000
FFFFFFFFFFFFFFF000
FFFFFFFFFFFFFFF000
FFFFFFFFFFFFFFF000
FFFFFFFFFFFFFFF000
FFFFFFFFFFFFFFF000
000000000000000000
000000000000000000
000000000000000000
000000000000000000
000000000000000000
000000000000000000
000000000000000000
000000000000000000
000000000000000000
000000000000000000
000000000000000000
000000000000000000
000000000000000000
000000000000000000
000000000000000000
000000000000000000
ENDCHAR
STARTCHAR U+00C7
ENCODING 199
SWIDTH 1000 0
BBX 68 80 0 -16
DWIDTH 68 0
BITMAP
000000000000000000
000000000000000000
000000000000000000
000000000000000000
000000000000000000
000000000000000000
000000000000000000
000000000000000000
0000FFFFFFFFF00000
0000FFFFFFFFF00000
0000FFFFFFFFF00000
0000FFFFFFFFF00000
0000FFFFFFFFF00000
0000FFFFFFFFF00000
0000FFFFFFFFF00000
0000FFFFFFFFF00000
00FFF0000000FFF000
00FFF0000000FFF000
00FFF0000000FFF000
00FFF0000000FFF000
00FFF0000000FFF000
00FFF0000000FFF000
00FFF0000000FFF000
00FFF0000000FFF000
FFF000000000000000
FFF000000000000000
FFF000000000000000
FFF000000000000000
FFF000000000000000
FFF000000000000000
FFF000000000000000
FFF000000000000000
FFF000000000000000
FFF000000000000000
FFF000000000000000
FFF000000000000000
FFF000000000000000
FFF000000000000000
FFF000000000000000
FFF000000000000000
FFF000000000000000
FFF000000000000000
FFF000000000000000
FFF000000000000000
FFF000000000000000
FFF000000000000000
FFF000000000000000
FFF000000000000000
00FFF0000000FFF000
00FFF0000000FFF000
00FFF0000000FFF000
00FFF0000000FFF000
00FFF0000000FFF000
00FFF0000000FFF000
00FFF0000000FFF000
00FFF0000000FFF000
0000FFFFFFFFF00000
0000FFFFFFFFF00000
0000FFFFFFFFF00000
0000FFFFFFFFF00000
0000FFFFFFFFF00000
0000FFFFFFFFF00000
0000FFFFFFFFF00000
0000FFFFFFFFF00000
00000000FFF0000000
00000000FFF0000000
00000000FFF0000000
00000000FFF0000000
00000000FFF0000000
00000000FFF0000000
00000000FFF0000000
00000000FFF0000000
0000FFFFFFF0000000
0000FFFFFFF0000000
0000FFFFFFF0000000
0000FFFFFFF0000000
0000FFFFFFF0000000
0000FFFFFFF0000000
0000FFFFFFF0000000
0000FFFFFFF0000000
ENDCHAR
STARTCHAR U+00C6
ENCODING 198
SWIDTH 1000 0
BBX 68 80 0 -16
DWIDTH 68 0
BITMAP
000000000000000000
000000000000000000
000000000000000000
000000000000000000
000000000000000000
000000000000000000
000000000000000000
000000000000000000
0000FFFFFFFFFFF000
0000FFFFFFFFFFF000
0000FFFFFFFFFFF000
0000FFFFFFFFFFF000
0000FFFFFFFFFFF000
0000FFFFFFFFFFF000
0000FFFFFFFFFFF000
0000FFFFFFFFFFF000
00FFF0FFF000000000
00FFF0FFF000000000
00FFF0FFF000000000
00FFF0FFF000000000
00FFF0FFF000000000
00FFF0FFF000000000
00FFF0FFF000000000
00FFF0FFF000000000
FFF000FFF000000000
FFF000FFF000000000
FFF000FFF000000000
FFF000FFF000000000
FFF000FFF000000000
FFF000FFF000000000
FFF000FFF000000000
FFF000FFF000000000
FFF000FFFFFFF00000
FFF000FFFFFFF00000
FFF000FFFFFFF00000
FFF000FFFFFFF00000
FFF000FFFFFFF00000
FFF000FFFFFFF00000
FFF000FFFFFFF00000
FFF000FFFFFFF00000
FFFFFFFFF000000000
FFFFFFFFF000000000
FFFFFFFFF000000000
FFFFFFFFF000000000
FFFFFFFFF000000000
FFFFFFFFF000000000
FFFFFFFFF000000000
FFFFFFFFF000000000
FFF000FFF000000000
FFF000FFF000000000
FFF000FFF000000000
FFF000FFF000000000
FFF000FFF000000000
FFF000FFF000000000
FFF000FFF000000000
FFF000FFF000000000
FFF000FFFFFFFFF000
FFF000FFFFFFFFF000
FFF000FFFFFFFFF000
FFF000FFFFFFFFF000
FFF000FFFFFFFFF000
FFF000FFFFFFFFF000
FFF000FFFFFFFFF000
FFF000FFFFFFFFF000
000000000000000000
000000000000000000
000000000000000000
000000000000000000
000000000000000000
000000000000000000
000000000000000000
000000000000000000
000000000000000000
000000000000000000
000000000000000000
000000000000000000
000000000000000000
000000000000000000
000000000000000000
000000000000000000
ENDCHAR
STARTCHAR U+00C5
ENCODING 197
SWIDTH 1000 0
BBX 68 80 0 -16
DWIDTH 68 0
BITMAP
0000FFFFFFF0000000
0000FFFFFFF0000000
0000FFFFFFF0000000
0000FFFFFFF0000000
0000FFFFFFF0000000
0000FFFFFFF0000000
0000FFFFFFF0000000
0000FFFFFFF0000000
00FFF00000FFF00000
00FFF00000FFF00000
00FFF00000FFF00000
00FFF00000FFF00000
00FFF00000FFF00000
00FFF00000FFF00000
00FFF00000FFF00000
00FFF00000FFF00000
0000FFFFFFF0000000
0000FFFFFFF0000000
0000FFFFFFF0000000
0000FFFFFFF0000000
0000FFFFFFF0000000
0000FFFFFFF0000000
0000FFFFFFF0000000
0000FFFFFFF0000000
0000FFFFFFF0000000
0000FFFFFFF0000000
0000FFFFFFF0000000
0000FFFFFFF0000000
0000FFFFFFF0000000
0000FFFFFFF0000000
0000FFFFFFF0000000
0000FFFFFFF0000000
00FFF00000FFF00000
00FFF00000FFF00000
00FFF00000FFF00000
00FFF00000FFF00000
00FFF00000FFF00000
00FFF00000FFF00000
00FFF00000FFF00000
00FFF00000FFF00000
FFFFFFFFFFFFFFF000
FFFFFFFFFFFFFFF000
FFFFFFFFFFFFFFF000
FFFFFFFFFFFFFFF000
FFFFFFFFFFFFFFF000
FFFFFFFFFFFFFFF000
FFFFFFFFFFFFFFF000
FFFFFFFFFFFFFFF000
FFF000000000FFF000
FFF000000000FFF000
FFF000000000FFF000
FFF000000000FFF000
FFF000000000FFF000
FFF000000000FFF000
FFF000000000FFF000
FFF000000000FFF000
FFF000000000FFF000
FFF000000000FFF000
FFF000000000FFF000
FFF000000000FFF000
FFF000000000FFF000
FFF000000000FFF000
FFF000000000FFF000
FFF000000000FFF000
000000000000000000
000000000000000000
000000000000000000
000000000000000000
000000000000000000
000000000000000000
000000000000000000
000000000000000000
000000000000000000
000000000000000000
000000000000000000
000000000000000000
000000000000000000
000000000000000000
000000000000000000
000000000000000000
ENDCHAR
STARTCHAR U+00C4
ENCODING 196
SWIDTH 1000 0
BBX 68 80 0 -16
DWIDTH 68 0
BITMAP
00FFF00000FFF00000
00FFF00000FFF00000
00FFF00000FFF00000
00FFF00000FFF00000
00FFF00000FFF00000
00FFF00000FFF00000
00FFF00000FFF00000
00FFF00000FFF00000
000000000000000000
000000000000000000
000000000000000000
000000000000000000
000000000000000000
000000000000000000
000000000000000000
000000000000000000
000000FFF000000000
000000FFF000000000
000000FFF000000000
000000FFF000000000
000000FFF000000000
000000FFF000000000
000000FFF000000000
000000FFF000000000
0000FFF0FFF0000000
0000FFF0FFF0000000
0000FFF0FFF0000000
0000FFF0FFF0000000
0000FFF0FFF0000000
0000FFF0FFF0000000
0000FFF0FFF0000000
0000FFF0FFF0000000
00FFF00000FFF00000
00FFF00000FFF00000
00FFF00000FFF00000
00FFF00000FFF00000
00FFF00000FFF00000
00FFF00000FFF00000
00FFF00000FFF00000
00FFF00000FFF00000
FFFFFFFFFFFFFFF000
FFFFFFFFFFFFFFF000
FFFFFFFFFFFFFFF000
FFFFFFFFFFFFFFF000
FFFFFFFFFFFFFFF000
FFFFFFFFFFFFFFF000
FFFFFFFFFFFFFFF000
FFFFFFFFFFFFFFF000
FFF000000000FFF000
FFF000000000FFF000
FFF000000000FFF000
FFF000000000FFF000
FFF000000000FFF000
FFF000000000FFF000
FFF000000000FFF000
FFF000000000FFF000
FFF000000000FFF000
FFF000000000FFF000
FFF000000000FFF000
FFF000000000FFF000
FFF000000000FFF000
FFF000000000FFF000
FFF000000000FFF000
FFF000000000FFF000
000000000000000000
000000000000000000
000000000000000000
000000000000000000
000000000000000000
000000000000000000
000000000000000000
000000000000000000
000000000000000000
000000000000000000
000000000000000000
000000000000000000
000000000000000000
000000000000000000
000000000000000000
000000000000000000
ENDCHAR
STARTCHAR U+00C3
ENCODING 195
SWIDTH 1000 0
BBX 68 80 0 -16
DWIDTH 68 0
BITMAP
0000FFFFF000FFF000
0000FFFFF000FFF000
0000FFFFF000FFF000
0000FFFFF000FFF000
0000FFFFF000FFF000
0000FFFFF000FFF000
0000FFFFF000FFF000
0000FFFFF000FFF000
00FFF000FFFFF00000
00FFF000FFFFF00000
00FFF000FFFFF00000
00FFF000FFFFF00000
00FFF000FFFFF00000
00FFF000FFFFF00000
00FFF000FFFFF00000
00FFF000FFFFF00000
000000FFF000000000
000000FFF000000000
000000FFF000000000
000000FFF000000000
000000FFF000000000
000000FFF000000000
000000FFF000000000
000000FFF000000000
0000FFF0FFF0000000
0000FFF0FFF0000000
0000FFF0FFF0000000
0000FFF0FFF0000000
0000FFF0FFF0000000
0000FFF0FFF0000000
0000FFF0FFF0000000
0000FFF0FFF0000000
00FFF00000FFF00000
00FFF00000FFF00000
00FFF00000FFF00000
00FFF00000FFF00000
00FFF00000FFF00000
00FFF00000FFF00000
00FFF00000FFF00000
00FFF00000FFF00000
FFFFFFFFFFFFFFF000
FFFFFFFFFFFFFFF000
FFFFFFFFFFFFFFF000
FFFFFFFFFFFFFFF000
FFFFFFFFFFFFFFF000
FFFFFFFFFFFFFFF000
FFFFFFFFFFFFFFF000
FFFFFFFFFFFFFFF000
FFF000000000FFF000
FFF000000000FFF000
FFF000000000FFF000
FFF000000000FFF000
FFF000000000FFF000
FFF000000000FFF000
FFF000000000FFF000
FFF000000000FFF000
FFF000000000FFF000
FFF000000000FFF000
FFF000000000FFF000
FFF000000000FFF000
FFF000000000FFF000
FFF000000000FFF000
FFF000000000FFF000
FFF000000000FFF000
000000000000000000
000000000000000000
000000000000000000
000000000000000000
000000000000000000
000000000000000000
000000000000000000
000000000000000000
000000000000000000
000000000000000000
000000000000000000
000000000000000000
000000000000000000
000000000000000000
000000000000000000
000000000000000000
ENDCHAR
STARTCHAR U+00C2
ENCODING 194
SWIDTH 1000 0
BBX 68 80 0 -16
DWIDTH 68 0
BITMAP
0000FFFFFFF0000000
0000FFFFFFF0000000
0000FFFFFFF0000000
0000FFFFFFF0000000
0000FFFFFFF0000000
0000FFFFFFF0000000
0000FFFFFFF0000000
0000FFFFFFF0000000
00FFF00000FFF00000
00FFF00000FFF00000
00FFF00000FFF00000
00FFF00000FFF00000
00FFF00000FFF00000
00FFF00000FFF00000
00FFF00000FFF00000
00FFF00000FFF00000
000000FFF000000000
000000FFF000000000
000000FFF000000000
000000FFF000000000
000000FFF000000000
000000FFF000000000
000000FFF000000000
000000FFF000000000
0000FFF0FFF0000000
0000FFF0FFF0000000
0000FFF0FFF0000000
0000FFF0FFF0000000
0000FFF0FFF0000000
0000FFF0FFF0000000
0000FFF0FFF0000000
0000FFF0FFF0000000
00FFF00000FFF00000
00FFF00000FFF00000
00FFF00000FFF00000
00FFF00000FFF00000
00FFF00000FFF00000
00FFF00000FFF00000
00FFF00000FFF00000
00FFF00000FFF00000
FFFFFFFFFFFFFFF000
FFFFFFFFFFFFFFF000
FFFFFFFFFFFFFFF000
FFFFFFFFFFFFFFF000
FFFFFFFFFFFFFFF000
FFFFFFFFFFFFFFF000
FFFFFFFFFFFFFFF000
FFFFFFFFFFFFFFF000
FFF000000000FFF000
FFF000000000FFF000
FFF000000000FFF000
FFF000000000FFF000
FFF000000000FFF000
FFF000000000FFF000
FFF000000000FFF000
FFF000000000FFF000
FFF000000000FFF000
FFF000000000FFF000
FFF000000000FFF000
FFF000000000FFF000
FFF000000000FFF000
FFF000000000FFF000
FFF000000000FFF000
FFF000000000FFF000
000000000000000000
000000000000000000
000000000000000000
000000000000000000
000000000000000000
000000000000000000
000000000000000000
000000000000000000
000000000000000000
000000000000000000
000000000000000000
000000000000000000
000000000000000000
000000000000000000
000000000000000000
000000000000000000
ENDCHAR
STARTCHAR U+00C1
ENCODING 193
SWIDTH 1000 0
BBX 68 80 0 -16
DWIDTH 68 0
BITMAP
000000FFFFF0000000
000000FFFFF0000000
000000FFFFF0000000
000000FFFFF0000000
000000FFFFF0000000
000000FFFFF0000000
000000FFFFF0000000
000000FFFFF0000000
00FFFFF00000000000
00FFFFF00000000000
00FFFFF00000000000
00FFFFF00000000000
00FFFFF00000000000
00FFFFF00000000000
00FFFFF00000000000
00FFFFF00000000000
000000FFF000000000
000000FFF000000000
000000FFF000000000
000000FFF000000000
000000FFF000000000
000000FFF000000000
000000FFF000000000
000000FFF000000000
0000FFF0FFF0000000
0000FFF0FFF0000000
0000FFF0FFF0000000
0000FFF0FFF0000000
0000FFF0FFF0000000
0000FFF0FFF0000000
0000FFF0FFF0000000
0000FFF0FFF0000000
00FFF00000FFF00000
00FFF00000FFF00000
00FFF00000FFF00000
00FFF00000FFF00000
00FFF00000FFF00000
00FFF00000FFF00000
00FFF00000FFF00000
00FFF00000FFF00000
FFFFFFFFFFFFFFF000
FFFFFFFFFFFFFFF000
FFFFFFFFFFFFFFF000
FFFFFFFFFFFFFFF000
FFFFFFFFFFFFFFF000
FFFFFFFFFFFFFFF000
FFFFFFFFFFFFFFF000
FFFFFFFFFFFFFFF000
FFF000000000FFF000
FFF000000000FFF000
FFF000000000FFF000
FFF000000000FFF000
FFF000000000FFF000
FFF000000000FFF000
FFF000000000FFF000
FFF000000000FFF000
FFF000000000FFF000
FFF000000000FFF000
FFF000000000FFF000
FFF000000000FFF000
FFF000000000FFF000
FFF000000000FFF000
FFF000000000FFF000
FFF000000000FFF000
000000000000000000
000000000000000000
000000000000000000
000000000000000000
000000000000000000
000000000000000000
000000000000000000
000000000000000000
000000000000000000
000000000000000000
000000000000000000
000000000000000000
000000000000000000
000000000000000000
000000000000000000
000000000000000000
ENDCHAR
STARTCHAR U+00C0
ENCODING 192
SWIDTH 1000 0
BBX 68 80 0 -16
DWIDTH 68 0
BITMAP
0000FFFFF000000000
0000FFFFF000000000
0000FFFFF000000000
0000FFFFF000000000
0000FFFFF000000000
0000FFFFF000000000
0000FFFFF000000000
0000FFFFF000000000
00000000FFFFF00000
00000000FFFFF00000
00000000FFFFF00000
00000000FFFFF00000
00000000FFFFF00000
00000000FFFFF00000
00000000FFFFF00000
00000000FFFFF00000
000000FFF000000000
000000FFF000000000
000000FFF000000000
000000FFF000000000
000000FFF000000000
000000FFF000000000
000000FFF000000000
000000FFF000000000
0000FFF0FFF0000000
0000FFF0FFF0000000
0000FFF0FFF0000000
0000FFF0FFF0000000
0000FFF0FFF0000000
0000FFF0FFF0000000
0000FFF0FFF0000000
0000FFF0FFF0000000
00FFF00000FFF00000
00FFF00000FFF00000
00FFF00000FFF00000
00FFF00000FFF00000
00FFF00000FFF00000
00FFF00000FFF00000
00FFF00000FFF00000
00FFF00000FFF00000
FFFFFFFFFFFFFFF000
FFFFFFFFFFFFFFF000
FFFFFFFFFFFFFFF000
FFFFFFFFFFFFFFF000
FFFFFFFFFFFFFFF000
FFFFFFFFFFFFFFF000
FFFFFFFFFFFFFFF000
FFFFFFFFFFFFFFF000
FFF000000000FFF000
FFF000000000FFF000
FFF000000000FFF000
FFF000000000FFF000
FFF000000000FFF000
FFF000000000FFF000
FFF000000000FFF000
FFF000000000FFF000
FFF000000000FFF000
FFF000000000FFF000
FFF000000000FFF000
FFF000000000FFF000
FFF000000000FFF000
FFF000000000FFF000
FFF000000000FFF000
FFF000000000FFF000
000000000000000000
000000000000000000
000000000000000000
000000000000000000
000000000000000000
000000000000000000
000000000000000000
000000000000000000
000000000000000000
000000000000000000
000000000000000000
000000000000000000
000000000000000000
000000000000000000
000000000000000000
000000000000000000
ENDCHAR
STARTCHAR U+00BF
ENCODING 191
SWIDTH 1000 0
BBX 68 80 0 -16
DWIDTH 68 0
BITMAP
000000000000000000
000000000000000000
000000000000000000
000000000000000000
000000000000000000
000000000000000000
000000000000000000
000000000000000000
000000FFF000000000
000000FFF000000000
000000FFF000000000
000000FFF000000000
000000FFF000000000
000000FFF000000000
000000FFF000000000
000000FFF000000000
000000000000000000
000000000000000000
000000000000000000
000000000000000000
000000000000000000
000000000000000000
000000000000000000
000000000000000000
000000FFF000000000
000000FFF000000000
000000FFF000000000
000000FFF000000000
000000FFF000000000
000000FFF000000000
000000FFF000000000
000000FFF000000000
000000FFF000000000
000000FFF000000000
000000FFF000000000
000000FFF000000000
000000FFF000000000
000000FFF000000000
000000FFF000000000
000000FFF000000000
00FFFFF00000000000
00FFFFF00000000000
00FFFFF00000000000
00FFFFF00000000000
00FFFFF00000000000
00FFFFF00000000000
00FFFFF00000000000
00FFFFF00000000000
FFF000000000FFF000
FFF000000000FFF000
FFF000000000FFF000
FFF000000000FFF000
FFF000000000FFF000
FFF000000000FFF000
FFF000000000FFF000
FFF000000000FFF000
00FFFFFFFFFFF00000
00FFFFFFFFFFF00000
00FFFFFFFFFFF00000
00FFFFFFFFFFF00000
00FFFFFFFFFFF00000
00FFFFFFFFFFF00000
00FFFFFFFFFFF00000
00FFFFFFFFFFF00000
000000000000000000
000000000000000000
000000000000000000
000000000000000000
000000000000000000
000000000000000000
000000000000000000
000000000000000000
000000000000000000
000000000000000000
000000000000000000
000000000000000000
000000000000000000
000000000000000000
000000000000000000
000000000000000000
ENDCHAR
STARTCHAR U+00BE
ENCODING 190
SWIDTH 1000 0
BBX 68 80 0 -16
DWIDTH 68 0
BITMAP
000000000000000000
000000000000000000
000000000000000000
000000000000000000
000000000000000000
000000000000000000
000000000000000000
000000000000000000
FFFFFFF00000000000
FFFFFFF00000000000
FFFFFFF00000000000
FFFFFFF00000000000
FFFFFFF00000000000
FFFFFFF00000000000
FFFFFFF00000000000
FFFFFFF00000000000
FFF000FFF000000000
FFF000FFF000000000
FFF000FFF000000000
FFF000FFF000000000
FFF000FFF000000000
FFF000FFF000000000
FFF000FFF000000000
FFF000FFF000000000
FFFFFFF00000000000
FFFFFFF00000000000
FFFFFFF00000000000
FFFFFFF00000000000
FFFFFFF00000000000
FFFFFFF00000000000
FFFFFFF00000000000
FFFFFFF00000000000
FFF000FFF000000000
FFF000FFF000000000
FFF000FFF000000000
FFF000FFF000000000
FFF000FFF000000000
FFF000FFF000000000
FFF000FFF000000000
FFF000FFF000000000
FFFFFFFFFFFFFFF000
FFFFFFFFFFFFFFF000
FFFFFFFFFFFFFFF000
FFFFFFFFFFFFFFF000
FFFFFFFFFFFFFFF000
FFFFFFFFFFFFFFF000
FFFFFFFFFFFFFFF000
FFFFFFFFFFFFFFF000
000000FFF000000000
000000FFF000000000
000000FFF000000000
000000FFF000000000
000000FFF000000000
000000FFF000000000
000000FFF000000000
000000FFF000000000
000000FFFFFFF00000
000000FFFFFFF00000
000000FFFFFFF00000
000000FFFFFFF00000
000000FFFFFFF00000
000000FFFFFFF00000
000000FFFFFFF00000
000000FFFFFFF00000
000000FFF000000000
000000FFF000000000
000000FFF000000000
000000FFF000000000
000000FFF000000000
000000FFF000000000
000000FFF000000000
000000FFF000000000
000000FFFFFFFFF000
000000FFFFFFFFF000
000000FFFFFFFFF000
000000FFFFFFFFF000
000000FFFFFFFFF000
000000FFFFFFFFF000
000000FFFFFFFFF000
000000FFFFFFFFF000
ENDCHAR
STARTCHAR U+00BD
ENCODING 189
SWIDTH 1000 0
BBX 68 80 0 -16
DWIDTH 68 0
BITMAP
000000000000000000
000000000000000000
000000000000000000
000000000000000000
000000000000000000
000000000000000000
000000000000000000
000000000000000000
00FFF0000000000000
00FFF0000000000000
00FFF0000000000000
00FFF0000000000000
00FFF0000000000000
00FFF0000000000000
00FFF0000000000000
00FFF0000000000000
FFFFF00000FFF00000
FFFFF00000FFF00000
FFFFF00000FFF00000
FFFFF00000FFF00000
FFFFF00000FFF00000
FFFFF00000FFF00000
FFFFF00000FFF00000
FFFFF00000FFF00000
00FFF000FFF0000000
00FFF000FFF0000000
00FFF000FFF0000000
00FFF000FFF0000000
00FFF000FFF0000000
00FFF000FFF0000000
00FFF000FFF0000000
00FFF000FFF0000000
00FFF0FFF000000000
00FFF0FFF000000000
00FFF0FFF000000000
00FFF0FFF000000000
00FFF0FFF000000000
00FFF0FFF000000000
00FFF0FFF000000000
00FFF0FFF000000000
0000FFF0FFFFF00000
0000FFF0FFFFF00000
0000FFF0FFFFF00000
0000FFF0FFFFF00000
0000FFF0FFFFF00000
0000FFF0FFFFF00000
0000FFF0FFFFF00000
0000FFF0FFFFF00000
00FFF0FFF000FFF000
00FFF0FFF000FFF000
00FFF0FFF000FFF000
00FFF0FFF000FFF000
00FFF0FFF000FFF000
00FFF0FFF000FFF000
00FFF0FFF000FFF000
00FFF0FFF000FFF000
FFF0000000FFF00000
FFF0000000FFF00000
FFF0000000FFF00000
FFF0000000FFF00000
FFF0000000FFF00000
FFF0000000FFF00000
FFF0000000FFF00000
FFF0000000FFF00000
00000000FFF0000000
00000000FFF0000000
00000000FFF0000000
00000000FFF0000000
00000000FFF0000000
00000000FFF0000000
00000000FFF0000000
00000000FFF0000000
000000FFFFFFFFF000
000000FFFFFFFFF000
000000FFFFFFFFF000
000000FFFFFFFFF000
000000FFFFFFFFF000
000000FFFFFFFFF000
000000FFFFFFFFF000
000000FFFFFFFFF000
ENDCHAR
STARTCHAR U+00BC
ENCODING 188
SWIDTH 1000 0
BBX 68 80 0 -16
DWIDTH 68 0
BITMAP
000000000000000000
000000000000000000
000000000000000000
000000000000000000
000000000000000000
000000000000000000
000000000000000000
000000000000000000
00FFF0000000000000
00FFF0000000000000
00FFF0000000000000
00FFF0000000000000
00FFF0000000000000
00FFF0000000000000
00FFF0000000000000
00FFF0000000000000
FFFFF00000FFF00000
FFFFF00000FFF00000
FFFFF00000FFF00000
FFFFF00000FFF00000
FFFFF00000FFF00000
FFFFF00000FFF00000
FFFFF00000FFF00000
FFFFF00000FFF00000
00FFF000FFF0000000
00FFF000FFF0000000
00FFF000FFF0000000
00FFF000FFF0000000
00FFF000FFF0000000
00FFF000FFF0000000
00FFF000FFF0000000
00FFF000FFF0000000
00FFF0FFF000000000
00FFF0FFF000000000
00FFF0FFF000000000
00FFF0FFF000000000
00FFF0FFF000000000
00FFF0FFF000000000
00FFF0FFF000000000
00FFF0FFF000000000
0000FFF000FFF00000
0000FFF000FFF00000
0000FFF000FFF00000
0000FFF000FFF00000
0000FFF000FFF00000
0000FFF000FFF00000
0000FFF000FFF00000
0000FFF000FFF00000
00FFF000FFFFF00000
00FFF000FFFFF00000
00FFF000FFFFF00000
00FFF000FFFFF00000
00FFF000FFFFF00000
00FFF000FFFFF00000
00FFF000FFFFF00000
00FFF000FFFFF00000
FFF000FFF0FFF00000
FFF000FFF0FFF00000
FFF000FFF0FFF00000
FFF000FFF0FFF00000
FFF000FFF0FFF00000
FFF000FFF0FFF00000
FFF000FFF0FFF00000
FFF000FFF0FFF00000
0000FFFFFFFFFFF000
0000FFFFFFFFFFF000
0000FFFFFFFFFFF000
0000FFFFFFFFFFF000
0000FFFFFFFFFFF000
0000FFFFFFFFFFF000
0000FFFFFFFFFFF000
0000FFFFFFFFFFF000
0000000000FFF00000
0000000000FFF00000
0000000000FFF00000
0000000000FFF00000
0000000000FFF00000
0000000000FFF00000
0000000000FFF00000
0000000000FFF00000
ENDCHAR
STARTCHAR U+00BB
ENCODING 187
SWIDTH 1000 0
BBX 68 80 0 -16
DWIDTH 68 0
BITMAP
000000000000000000
000000000000000000
000000000000000000
000000000000000000
000000000000000000
000000000000000000
000000000000000000
000000000000000000
FFF000FFF000000000
FFF000FFF000000000
FFF000FFF000000000
FFF000FFF000000000
FFF000FFF000000000
FFF000FFF000000000
FFF000FFF000000000
FFF000FFF000000000
00FFF000FFF0000000
00FFF000FFF0000000
00FFF000FFF0000000
00FFF000FFF0000000
00FFF000FFF0000000
00FFF000FFF0000000
00FFF000FFF0000000
00FFF000FFF0000000
0000FFF000FFF00000
0000FFF000FFF00000
0000FFF000FFF00000
0000FFF000FFF00000
0000FFF000FFF00000
0000FFF000FFF00000
0000FFF000FFF00000
0000FFF000FFF00000
000000FFF000FFF000
000000FFF000FFF000
000000FFF000FFF000
000000FFF000FFF000
000000FFF000FFF000
000000FFF000FFF000
000000FFF000FFF000
000000FFF000FFF000
0000FFF000FFF00000
0000FFF000FFF00000
0000FFF000FFF00000
0000FFF000FFF00000
0000FFF000FFF00000
0000FFF000FFF00000
0000FFF000FFF00000
0000FFF000FFF00000
00FFF000FFF0000000
00FFF000FFF0000000
00FFF000FFF0000000
00FFF000FFF0000000
00FFF000FFF0000000
00FFF000FFF0000000
00FFF000FFF0000000
00FFF000FFF0000000
FFF000FFF000000000
FFF000FFF000000000
FFF000FFF000000000
FFF000FFF000000000
FFF000FFF000000000
FFF000FFF000000000
FFF000FFF000000000
FFF000FFF000000000
000000000000000000
000000000000000000
000000000000000000
000000000000000000
000000000000000000
000000000000000000
000000000000000000
000000000000000000
000000000000000000
000000000000000000
000000000000000000
000000000000000000
000000000000000000
000000000000000000
000000000000000000
000000000000000000
ENDCHAR
STARTCHAR U+00BA
ENCODING 186
SWIDTH 1000 0
BBX 68 80 0 -16
DWIDTH 68 0
BITMAP
000000000000000000
000000000000000000
000000000000000000
000000000000000000
000000000000000000
000000000000000000
000000000000000000
000000000000000000
00FFFFFFFFFFF00000
00FFFFFFFFFFF00000
00FFFFFFFFFFF00000
00FFFFFFFFFFF00000
00FFFFFFFFFFF00000
00FFFFFFFFFFF00000
00FFFFFFFFFFF00000
00FFFFFFFFFFF00000
FFF000000000FFF000
FFF000000000FFF000
FFF000000000FFF000
FFF000000000FFF000
FFF000000000FFF000
FFF000000000FFF000
FFF000000000FFF000
FFF000000000FFF000
FFF000000000FFF000
FFF000000000FFF000
FFF000000000FFF000
FFF000000000FFF000
FFF000000000FFF000
FFF000000000FFF000
FFF000000000FFF000
FFF000000000FFF000
FFF000000000FFF000
FFF000000000FFF000
FFF000000000FFF000
FFF000000000FFF000
FFF000000000FFF000
FFF000000000FFF000
FFF000000000FFF000
FFF000000000FFF000
00FFFFFFFFFFF00000
00FFFFFFFFFFF00000
00FFFFFFFFFFF00000
00FFFFFFFFFFF00000
00FFFFFFFFFFF00000
00FFFFFFFFFFF00000
00FFFFFFFFFFF00000
00FFFFFFFFFFF00000
000000000000000000
000000000000000000
000000000000000000
000000000000000000
000000000000000000
000000000000000000
000000000000000000
000000000000000000
FFFFFFFFFFFFFFF000
FFFFFFFFFFFFFFF000
FFFFFFFFFFFFFFF000
FFFFFFFFFFFFFFF000
FFFFFFFFFFFFFFF000
FFFFFFFFFFFFFFF000
FFFFFFFFFFFFFFF000
FFFFFFFFFFFFFFF000
000000000000000000
000000000000000000
000000000000000000
000000000000000000
000000000000000000
000000000000000000
000000000000000000
000000000000000000
000000000000000000
000000000000000000
000000000000000000
000000000000000000
000000000000000000
000000000000000000
000000000000000000
000000000000000000
ENDCHAR
STARTCHAR U+00B9
ENCODING 185
SWIDTH 1000 0
BBX 68 80 0 -16
DWIDTH 68 0
BITMAP
000000FFF000000000
000000FFF000000000
000000FFF000000000
000000FFF000000000
000000FFF000000000
000000FFF000000000
000000FFF000000000
000000FFF000000000
0000FFFFF000000000
0000FFFFF000000000
0000FFFFF000000000
0000FFFFF000000000
0000FFFFF000000000
0000FFFFF000000000
0000FFFFF000000000
0000FFFFF000000000
000000FFF000000000
000000FFF000000000
000000FFF000000000
000000FFF000000000
000000FFF000000000
000000FFF000000000
000000FFF000000000
000000FFF000000000
000000FFF000000000
000000FFF000000000
000000FFF000000000
000000FFF000000000
000000FFF000000000
000000FFF000000000
000000FFF000000000
000000FFF000000000
0000FFFFFFF0000000
0000FFFFFFF0000000
0000FFFFFFF0000000
0000FFFFFFF0000000
0000FFFFFFF0000000
0000FFFFFFF0000000
0000FFFFFFF0000000
0000FFFFFFF0000000
000000000000000000
000000000000000000
000000000000000000
000000000000000000
000000000000000000
000000000000000000
000000000000000000
000000000000000000
000000000000000000
000000000000000000
000000000000000000
000000000000000000
000000000000000000
000000000000000000
000000000000000000
000000000000000000
000000000000000000
000000000000000000
000000000000000000
000000000000000000
000000000000000000
000000000000000000
000000000000000000
000000000000000000
000000000000000000
000000000000000000
000000000000000000
000000000000000000
000000000000000000
000000000000000000
000000000000000000
000000000000000000
000000000000000000
000000000000000000
000000000000000000
000000000000000000
000000000000000000
000000000000000000
000000000000000000
000000000000000000
ENDCHAR
STARTCHAR U+00B8
ENCODING 184
SWIDTH 1000 0
BBX 68 80 0 -16
DWIDTH 68 0
BITMAP
000000000000000000
000000000000000000
000000000000000000
000000000000000000
000000000000000000
000000000000000000
000000000000000000
000000000000000000
FFFFFFF00000000000
FFFFFFF00000000000
FFFFFFF00000000000
FFFFFFF00000000000
FFFFFFF00000000000
FFFFFFF00000000000
FFFFFFF00000000000
FFFFFFF00000000000
FFF000FFF000000000
FFF000FFF000000000
FFF000FFF000000000
FFF000FFF000000000
FFF000FFF000000000
FFF000FFF000000000
FFF000FFF000000000
FFF000FFF000000000
FFFFFFF00000000000
FFFFFFF00000000000
FFFFFFF00000000000
FFFFFFF00000000000
FFFFFFF00000000000
FFFFFFF00000000000
FFFFFFF00000000000
FFFFFFF00000000000
FFF000FFF000000000
FFF000FFF000000000
FFF000FFF000000000
FFF000FFF000000000
FFF000FFF000000000
FFF000FFF000000000
FFF000FFF000000000
FFF000FFF000000000
FFFFFFF0FFFFF00000
FFFFFFF0FFFFF00000
FFFFFFF0FFFFF00000
FFFFFFF0FFFFF00000
FFFFFFF0FFFFF00000
FFFFFFF0FFFFF00000
FFFFFFF0FFFFF00000
FFFFFFF0FFFFF00000
000000FFF000FFF000
000000FFF000FFF000
000000FFF000FFF000
000000FFF000FFF000
000000FFF000FFF000
000000FFF000FFF000
000000FFF000FFF000
000000FFF000FFF000
00000000FFFFF00000
00000000FFFFF00000
00000000FFFFF00000
00000000FFFFF00000
00000000FFFFF00000
00000000FFFFF00000
00000000FFFFF00000
00000000FFFFF00000
000000FFF000FFF000
000000FFF000FFF000
000000FFF000FFF000
000000FFF000FFF000
000000FFF000FFF000
000000FFF000FFF000
000000FFF000FFF000
000000FFF000FFF000
00000000FFFFF00000
00000000FFFFF00000
00000000FFFFF00000
00000000FFFFF00000
00000000FFFFF00000
00000000FFFFF00000
00000000FFFFF00000
00000000FFFFF00000
ENDCHAR
STARTCHAR U+00B7
ENCODING 183
SWIDTH 1000 0
BBX 68 80 0 -16
DWIDTH 68 0
BITMAP
000000000000000000
000000000000000000
000000000000000000
000000000000000000
000000000000000000
000000000000000000
000000000000000000
000000000000000000
000000000000000000
000000000000000000
000000000000000000
000000000000000000
000000000000000000
000000000000000000
000000000000000000
000000000000000000
000000000000000000
000000000000000000
000000000000000000
000000000000000000
000000000000000000
000000000000000000
000000000000000000
000000000000000000
0000FFFFF000000000
0000FFFFF000000000
0000FFFFF000000000
0000FFFFF000000000
0000FFFFF000000000
0000FFFFF000000000
0000FFFFF000000000
0000FFFFF000000000
0000FFFFF000000000
0000FFFFF000000000
0000FFFFF000000000
0000FFFFF000000000
0000FFFFF000000000
0000FFFFF000000000
0000FFFFF000000000
0000FFFFF000000000
000000000000000000
000000000000000000
000000000000000000
000000000000000000
000000000000000000
000000000000000000
000000000000000000
000000000000000000
000000000000000000
000000000000000000
000000000000000000
000000000000000000
000000000000000000
000000000000000000
000000000000000000
000000000000000000
000000000000000000
000000000000000000
000000000000000000
000000000000000000
000000000000000000
000000000000000000
000000000000000000
000000000000000000
000000000000000000
000000000000000000
000000000000000000
000000000000000000
000000000000000000
000000000000000000
000000000000000000
000000000000000000
000000000000000000
000000000000000000
000000000000000000
000000000000000000
000000000000000000
000000000000000000
000000000000000000
000000000000000000
ENDCHAR
STARTCHAR U+00B6
ENCODING 182
SWIDTH 1000 0
BBX 68 80 0 -16
DWIDTH 68 0
BITMAP
000000000000000000
000000000000000000
000000000000000000
000000000000000000
000000000000000000
000000000000000000
000000000000000000
000000000000000000
00FFFFFFFFFFFFF000
00FFFFFFFFFFFFF000
00FFFFFFFFFFFFF000
00FFFFFFFFFFFFF000
00FFFFFFFFFFFFF000
00FFFFFFFFFFFFF000
00FFFFFFFFFFFFF000
00FFFFFFFFFFFFF000
FFFFF000FFF0FFF000
FFFFF000FFF0FFF000
FFFFF000FFF0FFF000
FFFFF000FFF0FFF000
FFFFF000FFF0FFF000
FFFFF000FFF0FFF000
FFFFF000FFF0FFF000
FFFFF000FFF0FFF000
FFFFF000FFF0FFF000
FFFFF000FFF0FFF000
FFFFF000FFF0FFF000
FFFFF000FFF0FFF000
FFFFF000FFF0FFF000
FFFFF000FFF0FFF000
FFFFF000FFF0FFF000
FFFFF000FFF0FFF000
00FFFFFFFFFFFFF000
00FFFFFFFFFFFFF000
00FFFFFFFFFFFFF000
00FFFFFFFFFFFFF000
00FFFFFFFFFFFFF000
00FFFFFFFFFFFFF000
00FFFFFFFFFFFFF000
00FFFFFFFFFFFFF000
00000000FFF0FFF000
00000000FFF0FFF000
00000000FFF0FFF000
00000000FFF0FFF000
00000000FFF0FFF000
00000000FFF0FFF000
00000000FFF0FFF000
00000000FFF0FFF000
00000000FFF0FFF000
00000000FFF0FFF000
00000000FFF0FFF000
00000000FFF0FFF000
00000000FFF0FFF000
00000000FFF0FFF000
00000000FFF0FFF000
00000000FFF0FFF000
00000000FFF0FFF000
00000000FFF0FFF000
00000000FFF0FFF000
00000000FFF0FFF000
00000000FFF0FFF000
00000000FFF0FFF000
00000000FFF0FFF000
00000000FFF0FFF000
000000000000000000
000000000000000000
000000000000000000
000000000000000000
000000000000000000
000000000000000000
000000000000000000
000000000000000000
000000000000000000
000000000000000000
000000000000000000
000000000000000000
000000000000000000
000000000000000000
000000000000000000
000000000000000000
ENDCHAR
STARTCHAR U+00B5
ENCODING 181
SWIDTH 1000 0
BBX 68 80 0 -16
DWIDTH 68 0
BITMAP
000000000000000000
000000000000000000
000000000000000000
000000000000000000
000000000000000000
000000000000000000
000000000000000000
000000000000000000
000000000000000000
000000000000000000
000000000000000000
000000000000000000
000000000000000000
000000000000000000
000000000000000000
000000000000000000
000000000000000000
000000000000000000
000000000000000000
000000000000000000
000000000000000000
000000000000000000
000000000000000000
000000000000000000
00FFF0000000FFF000
00FFF0000000FFF000
00FFF0000000FFF000
00FFF0000000FFF000
00FFF0000000FFF000
00FFF0000000FFF000
00FFF0000000FFF000
00FFF0000000FFF000
00FFF0000000FFF000
00FFF0000000FFF000
00FFF0000000FFF000
00FFF0000000FFF000
00FFF0000000FFF000
00FFF0000000FFF000
00FFF0000000FFF000
00FFF0000000FFF000
00FFF0000000FFF000
00FFF0000000FFF000
00FFF0000000FFF000
00FFF0000000FFF000
00FFF0000000FFF000
00FFF0000000FFF000
00FFF0000000FFF000
00FFF0000000FFF000
00FFFFF000FFFFF000
00FFFFF000FFFFF000
00FFFFF000FFFFF000
00FFFFF000FFFFF000
00FFFFF000FFFFF000
00FFFFF000FFFFF000
00FFFFF000FFFFF000
00FFFFF000FFFFF000
00FFF0FFFFF0FFF000
00FFF0FFFFF0FFF000
00FFF0FFFFF0FFF000
00FFF0FFFFF0FFF000
00FFF0FFFFF0FFF000
00FFF0FFFFF0FFF000
00FFF0FFFFF0FFF000
00FFF0FFFFF0FFF000
00FFF0000000000000
00FFF0000000000000
00FFF0000000000000
00FFF0000000000000
00FFF0000000000000
00FFF0000000000000
00FFF0000000000000
00FFF0000000000000
FFF000000000000000
FFF000000000000000
FFF000000000000000
FFF000000000000000
FFF000000000000000
FFF000000000000000
FFF000000000000000
FFF000000000000000
ENDCHAR
STARTCHAR U+00B4
ENCODING 180
SWIDTH 1000 0
BBX 68 80 0 -16
DWIDTH 68 0
BITMAP
000000000000000000
000000000000000000
000000000000000000
000000000000000000
000000000000000000
000000000000000000
000000000000000000
000000000000000000
FFFFFFF00000000000
FFFFFFF00000000000
FFFFFFF00000000000
FFFFFFF00000000000
FFFFFFF00000000000
FFFFFFF00000000000
FFFFFFF00000000000
FFFFFFF00000000000
FFF000FFF000000000
FFF000FFF000000000
FFF000FFF000000000
FFF000FFF000000000
FFF000FFF000000000
FFF000FFF000000000
FFF000FFF000000000
FFF000FFF000000000
FFFFFFF00000000000
FFFFFFF00000000000
FFFFFFF00000000000
FFFFFFF00000000000
FFFFFFF00000000000
FFFFFFF00000000000
FFFFFFF00000000000
FFFFFFF00000000000
FFF000FFF000000000
FFF000FFF000000000
FFF000FFF000000000
FFF000FFF000000000
FFF000FFF000000000
FFF000FFF000000000
FFF000FFF000000000
FFF000FFF000000000
FFFFFFF000FFF00000
FFFFFFF000FFF00000
FFFFFFF000FFF00000
FFFFFFF000FFF00000
FFFFFFF000FFF00000
FFFFFFF000FFF00000
FFFFFFF000FFF00000
FFFFFFF000FFF00000
00000000FFFFF00000
00000000FFFFF00000
00000000FFFFF00000
00000000FFFFF00000
00000000FFFFF00000
00000000FFFFF00000
00000000FFFFF00000
00000000FFFFF00000
000000FFF0FFF00000
000000FFF0FFF00000
000000FFF0FFF00000
000000FFF0FFF00000
000000FFF0FFF00000
000000FFF0FFF00000
000000FFF0FFF00000
000000FFF0FFF00000
0000FFFFFFFFFFF000
0000FFFFFFFFFFF000
0000FFFFFFFFFFF000
0000FFFFFFFFFFF000
0000FFFFFFFFFFF000
0000FFFFFFFFFFF000
0000FFFFFFFFFFF000
0000FFFFFFFFFFF000
0000000000FFF00000
0000000000FFF00000
0000000000FFF00000
0000000000FFF00000
0000000000FFF00000
0000000000FFF00000
0000000000FFF00000
0000000000FFF00000
ENDCHAR
STARTCHAR U+00B3
ENCODING 179
SWIDTH 1000 0
BBX 68 80 0 -16
DWIDTH 68 0
BITMAP
00FFFFFFFFFFF00000
00FFFFFFFFFFF00000
00FFFFFFFFFFF00000
00FFFFFFFFFFF00000
00FFFFFFFFFFF00000
00FFFFFFFFFFF00000
00FFFFFFFFFFF00000
00FFFFFFFFFFF00000
0000000000FFF00000
0000000000FFF00000
0000000000FFF00000
0000000000FFF00000
0000000000FFF00000
0000000000FFF00000
0000000000FFF00000
0000000000FFF00000
000000FFFFF0000000
000000FFFFF0000000
000000FFFFF0000000
000000FFFFF0000000
000000FFFFF0000000
000000FFFFF0000000
000000FFFFF0000000
000000FFFFF0000000
0000000000FFF00000
0000000000FFF00000
0000000000FFF00000
0000000000FFF00000
0000000000FFF00000
0000000000FFF00000
0000000000FFF00000
0000000000FFF00000
00FFFFFFFFF0000000
00FFFFFFFFF0000000
00FFFFFFFFF0000000
00FFFFFFFFF0000000
00FFFFFFFFF0000000
00FFFFFFFFF0000000
00FFFFFFFFF0000000
00FFFFFFFFF0000000
000000000000000000
000000000000000000
000000000000000000
000000000000000000
000000000000000000
000000000000000000
000000000000000000
000000000000000000
000000000000000000
000000000000000000
000000000000000000
000000000000000000
000000000000000000
000000000000000000
000000000000000000
000000000000000000
000000000000000000
000000000000000000
000000000000000000
000000000000000000
000000000000000000
000000000000000000
000000000000000000
000000000000000000
000000000000000000
000000000000000000
000000000000000000
000000000000000000
000000000000000000
000000000000000000
000000000000000000
000000000000000000
000000000000000000
000000000000000000
000000000000000000
000000000000000000
000000000000000000
000000000000000000
000000000000000000
000000000000000000
ENDCHAR
STARTCHAR U+00B2
ENCODING 178
SWIDTH 1000 0
BBX 68 80 0 -16
DWIDTH 68 0
BITMAP
0000FFFFFFF0000000
0000FFFFFFF0000000
0000FFFFFFF0000000
0000FFFFFFF0000000
0000FFFFFFF0000000
0000FFFFFFF0000000
0000FFFFFFF0000000
0000FFFFFFF0000000
00FFF00000FFF00000
00FFF00000FFF00000
00FFF00000FFF00000
00FFF00000FFF00000
00FFF00000FFF00000
00FFF00000FFF00000
00FFF00000FFF00000
00FFF00000FFF00000
000000FFFFF0000000
000000FFFFF0000000
000000FFFFF0000000
000000FFFFF0000000
000000FFFFF0000000
000000FFFFF0000000
000000FFFFF0000000
000000FFFFF0000000
0000FFF00000000000
0000FFF00000000000
0000FFF00000000000
0000FFF00000000000
0000FFF00000000000
0000FFF00000000000
0000FFF00000000000
0000FFF00000000000
00FFFFFFFFFFF00000
00FFFFFFFFFFF00000
00FFFFFFFFFFF00000
00FFFFFFFFFFF00000
00FFFFFFFFFFF00000
00FFFFFFFFFFF00000
00FFFFFFFFFFF00000
00FFFFFFFFFFF00000
000000000000000000
000000000000000000
000000000000000000
000000000000000000
000000000000000000
000000000000000000
000000000000000000
000000000000000000
000000000000000000
000000000000000000
000000000000000000
000000000000000000
000000000000000000
000000000000000000
000000000000000000
000000000000000000
000000000000000000
000000000000000000
000000000000000000
000000000000000000
000000000000000000
000000000000000000
000000000000000000
000000000000000000
000000000000000000
000000000000000000
000000000000000000
000000000000000000
000000000000000000
000000000000000000
000000000000000000
000000000000000000
000000000000000000
000000000000000000
000000000000000000
000000000000000000
000000000000000000
000000000000000000
000000000000000000
000000000000000000
ENDCHAR
STARTCHAR U+00B1
ENCODING 177
SWIDTH 1000 0
BBX 68 80 0 -16
DWIDTH 68 0
BITMAP
000000000000000000
000000000000000000
000000000000000000
000000000000000000
000000000000000000
000000000000000000
000000000000000000
000000000000000000
000000000000000000
000000000000000000
000000000000000000
000000000000000000
000000000000000000
000000000000000000
000000000000000000
000000000000000000
000000FFF000000000
000000FFF000000000
000000FFF000000000
000000FFF000000000
000000FFF000000000
000000FFF000000000
000000FFF000000000
000000FFF000000000
000000FFF000000000
000000FFF000000000
000000FFF000000000
000000FFF000000000
000000FFF000000000
000000FFF000000000
000000FFF000000000
000000FFF000000000
FFFFFFFFFFFFFFF000
FFFFFFFFFFFFFFF000
FFFFFFFFFFFFFFF000
FFFFFFFFFFFFFFF000
FFFFFFFFFFFFFFF000
FFFFFFFFFFFFFFF000
FFFFFFFFFFFFFFF000
FFFFFFFFFFFFFFF000
000000FFF000000000
000000FFF000000000
000000FFF000000000
000000FFF000000000
000000FFF000000000
000000FFF000000000
000000FFF000000000
000000FFF000000000
000000FFF000000000
000000FFF000000000
000000FFF000000000
000000FFF000000000
000000FFF000000000
000000FFF000000000
000000FFF000000000
000000FFF000000000
FFFFFFFFFFFFFFF000
FFFFFFFFFFFFFFF000
FFFFFFFFFFFFFFF000
FFFFFFFFFFFFFFF000
FFFFFFFFFFFFFFF000
FFFFFFFFFFFFFFF000
FFFFFFFFFFFFFFF000
FFFFFFFFFFFFFFF000
000000000000000000
000000000000000000
000000000000000000
000000000000000000
000000000000000000
000000000000000000
000000000000000000
000000000000000000
000000000000000000
000000000000000000
000000000000000000
000000000000000000
000000000000000000
000000000000000000
000000000000000000
000000000000000000
ENDCHAR
STARTCHAR U+00B0
ENCODING 176
SWIDTH 1000 0
BBX 68 80 0 -16
DWIDTH 68 0
BITMAP
000000000000000000
000000000000000000
000000000000000000
000000000000000000
000000000000000000
000000000000000000
000000000000000000
000000000000000000
0000FFFFFFF0000000
0000FFFFFFF0000000
0000FFFFFFF0000000
0000FFFFFFF0000000
0000FFFFFFF0000000
0000FFFFFFF0000000
0000FFFFFFF0000000
0000FFFFFFF0000000
00FFF00000FFF00000
00FFF00000FFF00000
00FFF00000FFF00000
00FFF00000FFF00000
00FFF00000FFF00000
00FFF00000FFF00000
00FFF00000FFF00000
00FFF00000FFF00000
0000FFFFFFF0000000
0000FFFFFFF0000000
0000FFFFFFF0000000
0000FFFFFFF0000000
0000FFFFFFF0000000
0000FFFFFFF0000000
0000FFFFFFF0000000
0000FFFFFFF0000000
000000000000000000
000000000000000000
000000000000000000
000000000000000000
000000000000000000
000000000000000000
000000000000000000
000000000000000000
000000000000000000
000000000000000000
000000000000000000
000000000000000000
000000000000000000
000000000000000000
000000000000000000
000000000000000000
000000000000000000
000000000000000000
000000000000000000
000000000000000000
000000000000000000
000000000000000000
000000000000000000
000000000000000000
000000000000000000
000000000000000000
000000000000000000
000000000000000000
000000000000000000
000000000000000000
000000000000000000
000000000000000000
000000000000000000
000000000000000000
000000000000000000
000000000000000000
000000000000000000
000000000000000000
000000000000000000
000000000000000000
000000000000000000
000000000000000000
000000000000000000
000000000000000000
000000000000000000
000000000000000000
000000000000000000
000000000000000000
ENDCHAR
STARTCHAR U+00AF
ENCODING 175
SWIDTH 1000 0
BBX 68 80 0 -16
DWIDTH 68 0
BITMAP
000000000000000000
000000000000000000
000000000000000000
000000000000000000
000000000000000000
000000000000000000
000000000000000000
000000000000000000
00FFFFF00000000000
00FFFFF00000000000
00FFFFF00000000000
00FFFFF00000000000
00FFFFF00000000000
00FFFFF00000000000
00FFFFF00000000000
00FFFFF00000000000
FFF000FFF000000000
FFF000FFF000000000
FFF000FFF000000000
FFF000FFF000000000
FFF000FFF000000000
FFF000FFF000000000
FFF000FFF000000000
FFF000FFF000000000
FFFFFFFFF000000000
FFFFFFFFF000000000
FFFFFFFFF000000000
FFFFFFFFF000000000
FFFFFFFFF000000000
FFFFFFFFF000000000
FFFFFFFFF000000000
FFFFFFFFF000000000
FFF000FFF000000000
FFF000FFF000000000
FFF000FFF000000000
FFF000FFF000000000
FFF000FFF000000000
FFF000FFF000000000
FFF000FFF000000000
FFF000FFF000000000
FFF000FFFFFFFFF000
FFF000FFFFFFFFF000
FFF000FFFFFFFFF000
FFF000FFFFFFFFF000
FFF000FFFFFFFFF000
FFF000FFFFFFFFF000
FFF000FFFFFFFFF000
FFF000FFFFFFFFF000
000000FFF000000000
000000FFF000000000
000000FFF000000000
000000FFF000000000
000000FFF000000000
000000FFF000000000
000000FFF000000000
000000FFF000000000
000000FFFFFFF00000
000000FFFFFFF00000
000000FFFFFFF00000
000000FFFFFFF00000
000000FFFFFFF00000
000000FFFFFFF00000
000000FFFFFFF00000
000000FFFFFFF00000
000000FFF000000000
000000FFF000000000
000000FFF000000000
000000FFF000000000
000000FFF000000000
000000FFF000000000
000000FFF000000000
000000FFF000000000
000000FFF000000000
000000FFF000000000
000000FFF000000000
000000FFF000000000
000000FFF000000000
000000FFF000000000
000000FFF000000000
000000FFF000000000
ENDCHAR
STARTCHAR U+00AE
ENCODING 174
SWIDTH 1000 0
BBX 68 80 0 -16
DWIDTH 68 0
BITMAP
000000000000000000
000000000000000000
000000000000000000
000000000000000000
000000000000000000
000000000000000000
000000000000000000
000000000000000000
00FFFFF00000000000
00FFFFF00000000000
00FFFFF00000000000
00FFFFF00000000000
00FFFFF00000000000
00FFFFF00000000000
00FFFFF00000000000
00FFFFF00000000000
FFF000FFF000000000
FFF000FFF000000000
FFF000FFF000000000
FFF000FFF000000000
FFF000FFF000000000
FFF000FFF000000000
FFF000FFF000000000
FFF000FFF000000000
FFFFFFFFF000000000
FFFFFFFFF000000000
FFFFFFFFF000000000
FFFFFFFFF000000000
FFFFFFFFF000000000
FFFFFFFFF000000000
FFFFFFFFF000000000
FFFFFFFFF000000000
FFF000FFF000000000
FFF000FFF000000000
FFF000FFF000000000
FFF000FFF000000000
FFF000FFF000000000
FFF000FFF000000000
FFF000FFF000000000
FFF000FFF000000000
FFF000FFFFFFFFF000
FFF000FFFFFFFFF000
FFF000FFFFFFFFF000
FFF000FFFFFFFFF000
FFF000FFFFFFFFF000
FFF000FFFFFFFFF000
FFF000FFFFFFFFF000
FFF000FFFFFFFFF000
000000FFF000000000
000000FFF000000000
000000FFF000000000
000000FFF000000000
000000FFF000000000
000000FFF000000000
000000FFF000000000
000000FFF000000000
000000FFFFFFF00000
000000FFFFFFF00000
000000FFFFFFF00000
000000FFFFFFF00000
000000FFFFFFF00000
000000FFFFFFF00000
000000FFFFFFF00000
000000FFFFFFF00000
000000FFF000000000
000000FFF000000000
000000FFF000000000
000000FFF000000000
000000FFF000000000
000000FFF000000000
000000FFF000000000
000000FFF000000000
000000FFFFFFFFF000
000000FFFFFFFFF000
000000FFFFFFFFF000
000000FFFFFFFFF000
000000FFFFFFFFF000
000000FFFFFFFFF000
000000FFFFFFFFF000
000000FFFFFFFFF000
ENDCHAR
STARTCHAR U+00AC
ENCODING 172
SWIDTH 1000 0
BBX 68 80 0 -16
DWIDTH 68 0
BITMAP
000000000000000000
000000000000000000
000000000000000000
000000000000000000
000000000000000000
000000000000000000
000000000000000000
000000000000000000
00FFFFF00000000000
00FFFFF00000000000
00FFFFF00000000000
00FFFFF00000000000
00FFFFF00000000000
00FFFFF00000000000
00FFFFF00000000000
00FFFFF00000000000
FFF000FFF000000000
FFF000FFF000000000
FFF000FFF000000000
FFF000FFF000000000
FFF000FFF000000000
FFF000FFF000000000
FFF000FFF000000000
FFF000FFF000000000
FFFFFFFFF000000000
FFFFFFFFF000000000
FFFFFFFFF000000000
FFFFFFFFF000000000
FFFFFFFFF000000000
FFFFFFFFF000000000
FFFFFFFFF000000000
FFFFFFFFF000000000
FFF000FFF000000000
FFF000FFF000000000
FFF000FFF000000000
FFF000FFF000000000
FFF000FFF000000000
FFF000FFF000000000
FFF000FFF000000000
FFF000FFF000000000
FFF000FFFFFFFFF000
FFF000FFFFFFFFF000
FFF000FFFFFFFFF000
FFF000FFFFFFFFF000
FFF000FFFFFFFFF000
FFF000FFFFFFFFF000
FFF000FFFFFFFFF000
FFF000FFFFFFFFF000
000000FFF000000000
000000FFF000000000
000000FFF000000000
000000FFF000000000
000000FFF000000000
000000FFF000000000
000000FFF000000000
000000FFF000000000
000000FFF000000000
000000FFF000000000
000000FFF000000000
000000FFF000000000
000000FFF000000000
000000FFF000000000
000000FFF000000000
000000FFF000000000
000000FFF000000000
000000FFF000000000
000000FFF000000000
000000FFF000000000
000000FFF000000000
000000FFF000000000
000000FFF000000000
000000FFF000000000
00000000FFFFFFF000
00000000FFFFFFF000
00000000FFFFFFF000
00000000FFFFFFF000
00000000FFFFFFF000
00000000FFFFFFF000
00000000FFFFFFF000
00000000FFFFFFF000
ENDCHAR
STARTCHAR U+00AB
ENCODING 171
SWIDTH 1000 0
BBX 68 80 0 -16
DWIDTH 68 0
BITMAP
000000000000000000
000000000000000000
000000000000000000
000000000000000000
000000000000000000
000000000000000000
000000000000000000
000000000000000000
000000FFF000FFF000
000000FFF000FFF000
000000FFF000FFF000
000000FFF000FFF000
000000FFF000FFF000
000000FFF000FFF000
000000FFF000FFF000
000000FFF000FFF000
0000FFF000FFF00000
0000FFF000FFF00000
0000FFF000FFF00000
0000FFF000FFF00000
0000FFF000FFF00000
0000FFF000FFF00000
0000FFF000FFF00000
0000FFF000FFF00000
00FFF000FFF0000000
00FFF000FFF0000000
00FFF000FFF0000000
00FFF000FFF0000000
00FFF000FFF0000000
00FFF000FFF0000000
00FFF000FFF0000000
00FFF000FFF0000000
FFF000FFF000000000
FFF000FFF000000000
FFF000FFF000000000
FFF000FFF000000000
FFF000FFF000000000
FFF000FFF000000000
FFF000FFF000000000
FFF000FFF000000000
00FFF000FFF0000000
00FFF000FFF0000000
00FFF000FFF0000000
00FFF000FFF0000000
00FFF000FFF0000000
00FFF000FFF0000000
00FFF000FFF0000000
00FFF000FFF0000000
0000FFF000FFF00000
0000FFF000FFF00000
0000FFF000FFF00000
0000FFF000FFF00000
0000FFF000FFF00000
0000FFF000FFF00000
0000FFF000FFF00000
0000FFF000FFF00000
000000FFF000FFF000
000000FFF000FFF000
000000FFF000FFF000
000000FFF000FFF000
000000FFF000FFF000
000000FFF000FFF000
000000FFF000FFF000
000000FFF000FFF000
000000000000000000
000000000000000000
000000000000000000
000000000000000000
000000000000000000
000000000000000000
000000000000000000
000000000000000000
000000000000000000
000000000000000000
000000000000000000
000000000000000000
000000000000000000
000000000000000000
000000000000000000
000000000000000000
ENDCHAR
STARTCHAR U+00AA
ENCODING 170
SWIDTH 1000 0
BBX 68 80 0 -16
DWIDTH 68 0
BITMAP
000000000000000000
000000000000000000
000000000000000000
000000000000000000
000000000000000000
000000000000000000
000000000000000000
000000000000000000
00FFFFFFFFFFF00000
00FFFFFFFFFFF00000
00FFFFFFFFFFF00000
00FFFFFFFFFFF00000
00FFFFFFFFFFF00000
00FFFFFFFFFFF00000
00FFFFFFFFFFF00000
00FFFFFFFFFFF00000
000000000000FFF000
000000000000FFF000
000000000000FFF000
000000000000FFF000
000000000000FFF000
000000000000FFF000
000000000000FFF000
000000000000FFF000
00FFFFFFFFFFFFF000
00FFFFFFFFFFFFF000
00FFFFFFFFFFFFF000
00FFFFFFFFFFFFF000
00FFFFFFFFFFFFF000
00FFFFFFFFFFFFF000
00FFFFFFFFFFFFF000
00FFFFFFFFFFFFF000
FFF0000000FFFFF000
FFF0000000FFFFF000
FFF0000000FFFFF000
FFF0000000FFFFF000
FFF0000000FFFFF000
FFF0000000FFFFF000
FFF0000000FFFFF000
FFF0000000FFFFF000
00FFFFFFFFF0FFF000
00FFFFFFFFF0FFF000
00FFFFFFFFF0FFF000
00FFFFFFFFF0FFF000
00FFFFFFFFF0FFF000
00FFFFFFFFF0FFF000
00FFFFFFFFF0FFF000
00FFFFFFFFF0FFF000
000000000000000000
000000000000000000
000000000000000000
000000000000000000
000000000000000000
000000000000000000
000000000000000000
000000000000000000
FFFFFFFFFFFFFFF000
FFFFFFFFFFFFFFF000
FFFFFFFFFFFFFFF000
FFFFFFFFFFFFFFF000
FFFFFFFFFFFFFFF000
FFFFFFFFFFFFFFF000
FFFFFFFFFFFFFFF000
FFFFFFFFFFFFFFF000
000000000000000000
000000000000000000
000000000000000000
000000000000000000
000000000000000000
000000000000000000
000000000000000000
000000000000000000
000000000000000000
000000000000000000
000000000000000000
000000000000000000
000000000000000000
000000000000000000
000000000000000000
000000000000000000
ENDCHAR
STARTCHAR U+00A9
ENCODING 169
SWIDTH 1000 0
BBX 68 80 0 -16
DWIDTH 68 0
BITMAP
000000000000000000
000000000000000000
000000000000000000
000000000000000000
000000000000000000
000000000000000000
000000000000000000
000000000000000000
0000FFFFFFF0000000
0000FFFFFFF0000000
0000FFFFFFF0000000
0000FFFFFFF0000000
0000FFFFFFF0000000
0000FFFFFFF0000000
0000FFFFFFF0000000
0000FFFFFFF0000000
00FFF00000FFF00000
00FFF00000FFF00000
00FFF00000FFF00000
00FFF00000FFF00000
00FFF00000FFF00000
00FFF00000FFF00000
00FFF00000FFF00000
00FFF00000FFF00000
FFF000FFFFF0FFF000
FFF000FFFFF0FFF000
FFF000FFFFF0FFF000
FFF000FFFFF0FFF000
FFF000FFFFF0FFF000
FFF000FFFFF0FFF000
FFF000FFFFF0FFF000
FFF000FFFFF0FFF000
FFF0FFF00000FFF000
FFF0FFF00000FFF000
FFF0FFF00000FFF000
FFF0FFF00000FFF000
FFF0FFF00000FFF000
FFF0FFF00000FFF000
FFF0FFF00000FFF000
FFF0FFF00000FFF000
FFF0FFF00000FFF000
FFF0FFF00000FFF000
FFF0FFF00000FFF000
FFF0FFF00000FFF000
FFF0FFF00000FFF000
FFF0FFF00000FFF000
FFF0FFF00000FFF000
FFF0FFF00000FFF000
FFF000FFFFF0FFF000
FFF000FFFFF0FFF000
FFF000FFFFF0FFF000
FFF000FFFFF0FFF000
FFF000FFFFF0FFF000
FFF000FFFFF0FFF000
FFF000FFFFF0FFF000
FFF000FFFFF0FFF000
00FFF00000FFF00000
00FFF00000FFF00000
00FFF00000FFF00000
00FFF00000FFF00000
00FFF00000FFF00000
00FFF00000FFF00000
00FFF00000FFF00000
00FFF00000FFF00000
0000FFFFFFF0000000
0000FFFFFFF0000000
0000FFFFFFF0000000
0000FFFFFFF0000000
0000FFFFFFF0000000
0000FFFFFFF0000000
0000FFFFFFF0000000
0000FFFFFFF0000000
000000000000000000
000000000000000000
000000000000000000
000000000000000000
000000000000000000
000000000000000000
000000000000000000
000000000000000000
ENDCHAR
STARTCHAR U+00A4
ENCODING 164
SWIDTH 1000 0
BBX 68 80 0 -16
DWIDTH 68 0
BITMAP
000000000000000000
000000000000000000
000000000000000000
000000000000000000
000000000000000000
000000000000000000
000000000000000000
000000000000000000
000000000000000000
000000000000000000
000000000000000000
000000000000000000
000000000000000000
000000000000000000
000000000000000000
000000000000000000
FFF000000000FFF000
FFF000000000FFF000
FFF000000000FFF000
FFF000000000FFF000
FFF000000000FFF000
FFF000000000FFF000
FFF000000000FFF000
FFF000000000FFF000
00FFFFFFFFFFF00000
00FFFFFFFFFFF00000
00FFFFFFFFFFF00000
00FFFFFFFFFFF00000
00FFFFFFFFFFF00000
00FFFFFFFFFFF00000
00FFFFFFFFFFF00000
00FFFFFFFFFFF00000
00FFF00000FFF00000
00FFF00000FFF00000
00FFF00000FFF00000
00FFF00000FFF00000
00FFF00000FFF00000
00FFF00000FFF00000
00FFF00000FFF00000
00FFF00000FFF00000
00FFFFFFFFFFF00000
00FFFFFFFFFFF00000
00FFFFFFFFFFF00000
00FFFFFFFFFFF00000
00FFFFFFFFFFF00000
00FFFFFFFFFFF00000
00FFFFFFFFFFF00000
00FFFFFFFFFFF00000
FFF000000000FFF000
FFF000000000FFF000
FFF000000000FFF000
FFF000000000FFF000
FFF000000000FFF000
FFF000000000FFF000
FFF000000000FFF000
FFF000000000FFF000
000000000000000000
000000000000000000
000000000000000000
000000000000000000
000000000000000000
000000000000000000
000000000000000000
000000000000000000
000000000000000000
000000000000000000
000000000000000000
000000000000000000
000000000000000000
000000000000000000
000000000000000000
000000000000000000
000000000000000000
000000000000000000
000000000000000000
000000000000000000
000000000000000000
000000000000000000
000000000000000000
000000000000000000
ENDCHAR
STARTCHAR U+00A7
ENCODING 167
SWIDTH 1000 0
BBX 68 80 0 -16
DWIDTH 68 0
BITMAP
000000000000000000
000000000000000000
000000000000000000
000000000000000000
000000000000000000
000000000000000000
000000000000000000
000000000000000000
0000FFFFFFFFF00000
0000FFFFFFFFF00000
0000FFFFFFFFF00000
0000FFFFFFFFF00000
0000FFFFFFFFF00000
0000FFFFFFFFF00000
0000FFFFFFFFF00000
0000FFFFFFFFF00000
00FFF0000000000000
00FFF0000000000000
00FFF0000000000000
00FFF0000000000000
00FFF0000000000000
00FFF0000000000000
00FFF0000000000000
00FFF0000000000000
0000FFFFFFF0000000
0000FFFFFFF0000000
0000FFFFFFF0000000
0000FFFFFFF0000000
0000FFFFFFF0000000
0000FFFFFFF0000000
0000FFFFFFF0000000
0000FFFFFFF0000000
00FFF00000FFF00000
00FFF00000FFF00000
00FFF00000FFF00000
00FFF00000FFF00000
00FFF00000FFF00000
00FFF00000FFF00000
00FFF00000FFF00000
00FFF00000FFF00000
0000FFFFFFF0000000
0000FFFFFFF0000000
0000FFFFFFF0000000
0000FFFFFFF0000000
0000FFFFFFF0000000
0000FFFFFFF0000000
0000FFFFFFF0000000
0000FFFFFFF0000000
0000000000FFF00000
0000000000FFF00000
0000000000FFF00000
0000000000FFF00000
0000000000FFF00000
0000000000FFF00000
0000000000FFF00000
0000000000FFF00000
00FFFFFFFFF0000000
00FFFFFFFFF0000000
00FFFFFFFFF0000000
00FFFFFFFFF0000000
00FFFFFFFFF0000000
00FFFFFFFFF0000000
00FFFFFFFFF0000000
00FFFFFFFFF0000000
000000000000000000
000000000000000000
000000000000000000
000000000000000000
000000000000000000
000000000000000000
000000000000000000
000000000000000000
000000000000000000
000000000000000000
000000000000000000
000000000000000000
000000000000000000
000000000000000000
000000000000000000
000000000000000000
ENDCHAR
STARTCHAR U+00A6
ENCODING 166
SWIDTH 1000 0
BBX 68 80 0 -16
DWIDTH 68 0
BITMAP
000000000000000000
000000000000000000
000000000000000000
000000000000000000
000000000000000000
000000000000000000
000000000000000000
000000000000000000
00FFFFF00000000000
00FFFFF00000000000
00FFFFF00000000000
00FFFFF00000000000
00FFFFF00000000000
00FFFFF00000000000
00FFFFF00000000000
00FFFFF00000000000
FFF000FFF000000000
FFF000FFF000000000
FFF000FFF000000000
FFF000FFF000000000
FFF000FFF000000000
FFF000FFF000000000
FFF000FFF000000000
FFF000FFF000000000
FFFFFFFFF000000000
FFFFFFFFF000000000
FFFFFFFFF000000000
FFFFFFFFF000000000
FFFFFFFFF000000000
FFFFFFFFF000000000
FFFFFFFFF000000000
FFFFFFFFF000000000
FFF000FFF000000000
FFF000FFF000000000
FFF000FFF000000000
FFF000FFF000000000
FFF000FFF000000000
FFF000FFF000000000
FFF000FFF000000000
FFF000FFF000000000
FFF000FFF0FFFFF000
FFF000FFF0FFFFF000
FFF000FFF0FFFFF000
FFF000FFF0FFFFF000
FFF000FFF0FFFFF000
FFF000FFF0FFFFF000
FFF000FFF0FFFFF000
FFF000FFF0FFFFF000
00000000FFF0000000
00000000FFF0000000
00000000FFF0000000
00000000FFF0000000
00000000FFF0000000
00000000FFF0000000
00000000FFF0000000
00000000FFF0000000
000000FFFFFFF00000
000000FFFFFFF00000
000000FFFFFFF00000
000000FFFFFFF00000
000000FFFFFFF00000
000000FFFFFFF00000
000000FFFFFFF00000
000000FFFFFFF00000
000000FFF000FFF000
000000FFF000FFF000
000000FFF000FFF000
000000FFF000FFF000
000000FFF000FFF000
000000FFF000FFF000
000000FFF000FFF000
000000FFF000FFF000
00000000FFFFF00000
00000000FFFFF00000
00000000FFFFF00000
00000000FFFFF00000
00000000FFFFF00000
00000000FFFFF00000
00000000FFFFF00000
00000000FFFFF00000
ENDCHAR
STARTCHAR U+00A5
ENCODING 165
SWIDTH 1000 0
BBX 68 80 0 -16
DWIDTH 68 0
BITMAP
000000000000000000
000000000000000000
000000000000000000
000000000000000000
000000000000000000
000000000000000000
000000000000000000
000000000000000000
FFF000000000FFF000
FFF000000000FFF000
FFF000000000FFF000
FFF000000000FFF000
FFF000000000FFF000
FFF000000000FFF000
FFF000000000FFF000
FFF000000000FFF000
00FFF00000FFF00000
00FFF00000FFF00000
00FFF00000FFF00000
00FFF00000FFF00000
00FFF00000FFF00000
00FFF00000FFF00000
00FFF00000FFF00000
00FFF00000FFF00000
0000FFF0FFF0000000
0000FFF0FFF0000000
0000FFF0FFF0000000
0000FFF0FFF0000000
0000FFF0FFF0000000
0000FFF0FFF0000000
0000FFF0FFF0000000
0000FFF0FFF0000000
000000FFF000000000
000000FFF000000000
000000FFF000000000
000000FFF000000000
000000FFF000000000
000000FFF000000000
000000FFF000000000
000000FFF000000000
FFFFFFFFFFFFFFF000
FFFFFFFFFFFFFFF000
FFFFFFFFFFFFFFF000
FFFFFFFFFFFFFFF000
FFFFFFFFFFFFFFF000
FFFFFFFFFFFFFFF000
FFFFFFFFFFFFFFF000
FFFFFFFFFFFFFFF000
000000FFF000000000
000000FFF000000000
000000FFF000000000
000000FFF000000000
000000FFF000000000
000000FFF000000000
000000FFF000000000
000000FFF000000000
000000FFF000000000
000000FFF000000000
000000FFF000000000
000000FFF000000000
000000FFF000000000
000000FFF000000000
000000FFF000000000
000000FFF000000000
000000000000000000
000000000000000000
000000000000000000
000000000000000000
000000000000000000
000000000000000000
000000000000000000
000000000000000000
000000000000000000
000000000000000000
000000000000000000
000000000000000000
000000000000000000
000000000000000000
000000000000000000
000000000000000000
ENDCHAR
STARTCHAR U+00A8
ENCODING 168
SWIDTH 1000 0
BBX 68 80 0 -16
DWIDTH 68 0
BITMAP
000000000000000000
000000000000000000
000000000000000000
000000000000000000
000000000000000000
000000000000000000
000000000000000000
000000000000000000
00FFFFF00000000000
00FFFFF00000000000
00FFFFF00000000000
00FFFFF00000000000
00FFFFF00000000000
00FFFFF00000000000
00FFFFF00000000000
00FFFFF00000000000
FFF000FFF000000000
FFF000FFF000000000
FFF000FFF000000000
FFF000FFF000000000
FFF000FFF000000000
FFF000FFF000000000
FFF000FFF000000000
FFF000FFF000000000
FFFFFFFFF000000000
FFFFFFFFF000000000
FFFFFFFFF000000000
FFFFFFFFF000000000
FFFFFFFFF000000000
FFFFFFFFF000000000
FFFFFFFFF000000000
FFFFFFFFF000000000
FFF000FFF000000000
FFF000FFF000000000
FFF000FFF000000000
FFF000FFF000000000
FFF000FFF000000000
FFF000FFF000000000
FFF000FFF000000000
FFF000FFF000000000
FFF000FFF0FFF00000
FFF000FFF0FFF00000
FFF000FFF0FFF00000
FFF000FFF0FFF00000
FFF000FFF0FFF00000
FFF000FFF0FFF00000
FFF000FFF0FFF00000
FFF000FFF0FFF00000
00000000FFFFF00000
00000000FFFFF00000
00000000FFFFF00000
00000000FFFFF00000
00000000FFFFF00000
00000000FFFFF00000
00000000FFFFF00000
00000000FFFFF00000
000000FFF0FFF00000
000000FFF0FFF00000
000000FFF0FFF00000
000000FFF0FFF00000
000000FFF0FFF00000
000000FFF0FFF00000
000000FFF0FFF00000
000000FFF0FFF00000
0000FFFFFFFFFFF000
0000FFFFFFFFFFF000
0000FFFFFFFFFFF000
0000FFFFFFFFFFF000
0000FFFFFFFFFFF000
0000FFFFFFFFFFF000
0000FFFFFFFFFFF000
0000FFFFFFFFFFF000
0000000000FFF00000
0000000000FFF00000
0000000000FFF00000
0000000000FFF00000
0000000000FFF00000
0000000000FFF00000
0000000000FFF00000
0000000000FFF00000
ENDCHAR
STARTCHAR U+00A3
ENCODING 163
SWIDTH 1000 0
BBX 68 80 0 -16
DWIDTH 68 0
BITMAP
000000000000000000
000000000000000000
000000000000000000
000000000000000000
000000000000000000
000000000000000000
000000000000000000
000000000000000000
000000FFFFFFF00000
000000FFFFFFF00000
000000FFFFFFF00000
000000FFFFFFF00000
000000FFFFFFF00000
000000FFFFFFF00000
000000FFFFFFF00000
000000FFFFFFF00000
0000FFF00000FFF000
0000FFF00000FFF000
0000FFF00000FFF000
0000FFF00000FFF000
0000FFF00000FFF000
0000FFF00000FFF000
0000FFF00000FFF000
0000FFF00000FFF000
0000FFF00000000000
0000FFF00000000000
0000FFF00000000000
0000FFF00000000000
0000FFF00000000000
0000FFF00000000000
0000FFF00000000000
0000FFF00000000000
FFFFFFFFFFF0000000
FFFFFFFFFFF0000000
FFFFFFFFFFF0000000
FFFFFFFFFFF0000000
FFFFFFFFFFF0000000
FFFFFFFFFFF0000000
FFFFFFFFFFF0000000
FFFFFFFFFFF0000000
0000FFF00000000000
0000FFF00000000000
0000FFF00000000000
0000FFF00000000000
0000FFF00000000000
0000FFF00000000000
0000FFF00000000000
0000FFF00000000000
00FFFFFFFFF0000000
00FFFFFFFFF0000000
00FFFFFFFFF0000000
00FFFFFFFFF0000000
00FFFFFFFFF0000000
00FFFFFFFFF0000000
00FFFFFFFFF0000000
00FFFFFFFFF0000000
FFF0FFF000FFFFF000
FFF0FFF000FFFFF000
FFF0FFF000FFFFF000
FFF0FFF000FFFFF000
FFF0FFF000FFFFF000
FFF0FFF000FFFFF000
FFF0FFF000FFFFF000
FFF0FFF000FFFFF000
00FFF0000000000000
00FFF0000000000000
00FFF0000000000000
00FFF0000000000000
00FFF0000000000000
00FFF0000000000000
00FFF0000000000000
00FFF0000000000000
000000000000000000
000000000000000000
000000000000000000
000000000000000000
000000000000000000
000000000000000000
000000000000000000
000000000000000000
ENDCHAR
STARTCHAR U+00A2
ENCODING 162
SWIDTH 1000 0
BBX 68 80 0 -16
DWIDTH 68 0
BITMAP
000000000000000000
000000000000000000
000000000000000000
000000000000000000
000000000000000000
000000000000000000
000000000000000000
000000000000000000
000000000000000000
000000000000000000
000000000000000000
000000000000000000
000000000000000000
000000000000000000
000000000000000000
000000000000000000
000000FFF000000000
000000FFF000000000
000000FFF000000000
000000FFF000000000
000000FFF000000000
000000FFF000000000
000000FFF000000000
000000FFF000000000
00FFFFFFFFFFF00000
00FFFFFFFFFFF00000
00FFFFFFFFFFF00000
00FFFFFFFFFFF00000
00FFFFFFFFFFF00000
00FFFFFFFFFFF00000
00FFFFFFFFFFF00000
00FFFFFFFFFFF00000
FFF000FFF000FFF000
FFF000FFF000FFF000
FFF000FFF000FFF000
FFF000FFF000FFF000
FFF000FFF000FFF000
FFF000FFF000FFF000
FFF000FFF000FFF000
FFF000FFF000FFF000
FFF000FFF000000000
FFF000FFF000000000
FFF000FFF000000000
FFF000FFF000000000
FFF000FFF000000000
FFF000FFF000000000
FFF000FFF000000000
FFF000FFF000000000
FFF000FFF000FFF000
FFF000FFF000FFF000
FFF000FFF000FFF000
FFF000FFF000FFF000
FFF000FFF000FFF000
FFF000FFF000FFF000
FFF000FFF000FFF000
FFF000FFF000FFF000
00FFFFFFFFFFF00000
00FFFFFFFFFFF00000
00FFFFFFFFFFF00000
00FFFFFFFFFFF00000
00FFFFFFFFFFF00000
00FFFFFFFFFFF00000
00FFFFFFFFFFF00000
00FFFFFFFFFFF00000
000000FFF000000000
000000FFF000000000
000000FFF000000000
000000FFF000000000
000000FFF000000000
000000FFF000000000
000000FFF000000000
000000FFF000000000
000000000000000000
000000000000000000
000000000000000000
000000000000000000
000000000000000000
000000000000000000
000000000000000000
000000000000000000
ENDCHAR
STARTCHAR U+00A1
ENCODING 161
SWIDTH 1000 0
BBX 68 80 0 -16
DWIDTH 68 0
BITMAP
000000000000000000
000000000000000000
000000000000000000
000000000000000000
000000000000000000
000000000000000000
000000000000000000
000000000000000000
000000FFF000000000
000000FFF000000000
000000FFF000000000
000000FFF000000000
000000FFF000000000
000000FFF000000000
000000FFF000000000
000000FFF000000000
000000000000000000
000000000000000000
000000000000000000
000000000000000000
000000000000000000
000000000000000000
000000000000000000
000000000000000000
000000FFF000000000
000000FFF000000000
000000FFF000000000
000000FFF000000000
000000FFF000000000
000000FFF000000000
000000FFF000000000
000000FFF000000000
000000FFF000000000
000000FFF000000000
000000FFF000000000
000000FFF000000000
000000FFF000000000
000000FFF000000000
000000FFF000000000
000000FFF000000000
000000FFF000000000
000000FFF000000000
000000FFF000000000
000000FFF000000000
000000FFF000000000
000000FFF000000000
000000FFF000000000
000000FFF000000000
000000FFF000000000
000000FFF000000000
000000FFF000000000
000000FFF000000000
000000FFF000000000
000000FFF000000000
000000FFF000000000
000000FFF000000000
000000FFF000000000
000000FFF000000000
000000FFF000000000
000000FFF000000000
000000FFF000000000
000000FFF000000000
000000FFF000000000
000000FFF000000000
000000000000000000
000000000000000000
000000000000000000
000000000000000000
000000000000000000
000000000000000000
000000000000000000
000000000000000000
000000000000000000
000000000000000000
000000000000000000
000000000000000000
000000000000000000
000000000000000000
000000000000000000
000000000000000000
ENDCHAR
STARTCHAR U+007F
ENCODING 127
SWIDTH 1000 0
BBX 68 80 0 -16
DWIDTH 68 0
BITMAP
000000000000000000
000000000000000000
000000000000000000
000000000000000000
000000000000000000
000000000000000000
000000000000000000
000000000000000000
FFFFFFF00000000000
FFFFFFF00000000000
FFFFFFF00000000000
FFFFFFF00000000000
FFFFFFF00000000000
FFFFFFF00000000000
FFFFFFF00000000000
FFFFFFF00000000000
FFF000FFF000000000
FFF000FFF000000000
FFF000FFF000000000
FFF000FFF000000000
FFF000FFF000000000
FFF000FFF000000000
FFF000FFF000000000
FFF000FFF000000000
FFF000FFF000000000
FFF000FFF000000000
FFF000FFF000000000
FFF000FFF000000000
FFF000FFF000000000
FFF000FFF000000000
FFF000FFF000000000
FFF000FFF000000000
FFF000FFF000000000
FFF000FFF000000000
FFF000FFF000000000
FFF000FFF000000000
FFF000FFF000000000
FFF000FFF000000000
FFF000FFF000000000
FFF000FFF000000000
FFFFFFFFFFF0000000
FFFFFFFFFFF0000000
FFFFFFFFFFF0000000
FFFFFFFFFFF0000000
FFFFFFFFFFF0000000
FFFFFFFFFFF0000000
FFFFFFFFFFF0000000
FFFFFFFFFFF0000000
0000FFF00000000000
0000FFF00000000000
0000FFF00000000000
0000FFF00000000000
0000FFF00000000000
0000FFF00000000000
0000FFF00000000000
0000FFF00000000000
0000FFF00000000000
0000FFF00000000000
0000FFF00000000000
0000FFF00000000000
0000FFF00000000000
0000FFF00000000000
0000FFF00000000000
0000FFF00000000000
0000FFF00000000000
0000FFF00000000000
0000FFF00000000000
0000FFF00000000000
0000FFF00000000000
0000FFF00000000000
0000FFF00000000000
0000FFF00000000000
0000FFF00000000000
0000FFF00000000000
0000FFF00000000000
0000FFF00000000000
0000FFF00000000000
0000FFF00000000000
0000FFF00000000000
0000FFF00000000000
ENDCHAR
STARTCHAR U+007E
ENCODING 126
SWIDTH 1000 0
BBX 68 80 0 -16
DWIDTH 68 0
BITMAP
000000000000000000
000000000000000000
000000000000000000
000000000000000000
000000000000000000
000000000000000000
000000000000000000
000000000000000000
00FFFFF00000FFF000
00FFFFF00000FFF000
00FFFFF00000FFF000
00FFFFF00000FFF000
00FFFFF00000FFF000
00FFFFF00000FFF000
00FFFFF00000FFF000
00FFFFF00000FFF000
FFF000FFF000FFF000
FFF000FFF000FFF000
FFF000FFF000FFF000
FFF000FFF000FFF000
FFF000FFF000FFF000
FFF000FFF000FFF000
FFF000FFF000FFF000
FFF000FFF000FFF000
FFF00000FFFFF00000
FFF00000FFFFF00000
FFF00000FFFFF00000
FFF00000FFFFF00000
FFF00000FFFFF00000
FFF00000FFFFF00000
FFF00000FFFFF00000
FFF00000FFFFF00000
000000000000000000
000000000000000000
000000000000000000
000000000000000000
000000000000000000
000000000000000000
000000000000000000
000000000000000000
000000000000000000
000000000000000000
000000000000000000
000000000000000000
000000000000000000
000000000000000000
000000000000000000
000000000000000000
000000000000000000
000000000000000000
000000000000000000
000000000000000000
000000000000000000
000000000000000000
000000000000000000
000000000000000000
000000000000000000
000000000000000000
000000000000000000
000000000000000000
000000000000000000
000000000000000000
000000000000000000
000000000000000000
000000000000000000
000000000000000000
000000000000000000
000000000000000000
000000000000000000
000000000000000000
000000000000000000
000000000000000000
000000000000000000
000000000000000000
000000000000000000
000000000000000000
000000000000000000
000000000000000000
000000000000000000
000000000000000000
ENDCHAR
STARTCHAR U+007D
ENCODING 125
SWIDTH 1000 0
BBX 68 80 0 -16
DWIDTH 68 0
BITMAP
000000000000000000
000000000000000000
000000000000000000
000000000000000000
000000000000000000
000000000000000000
000000000000000000
000000000000000000
FFFFFFF00000000000
FFFFFFF00000000000
FFFFFFF00000000000
FFFFFFF00000000000
FFFFFFF00000000000
FFFFFFF00000000000
FFFFFFF00000000000
FFFFFFF00000000000
000000FFF000000000
000000FFF000000000
000000FFF000000000
000000FFF000000000
000000FFF000000000
000000FFF000000000
000000FFF000000000
000000FFF000000000
0000FFF00000000000
0000FFF00000000000
0000FFF00000000000
0000FFF00000000000
0000FFF00000000000
0000FFF00000000000
0000FFF00000000000
0000FFF00000000000
000000FFFFF0000000
000000FFFFF0000000
000000FFFFF0000000
000000FFFFF0000000
000000FFFFF0000000
000000FFFFF0000000
000000FFFFF0000000
000000FFFFF0000000
0000FFF00000000000
0000FFF00000000000
0000FFF00000000000
0000FFF00000000000
0000FFF00000000000
0000FFF00000000000
0000FFF00000000000
0000FFF00000000000
000000FFF000000000
000000FFF000000000
000000FFF000000000
000000FFF000000000
000000FFF000000000
000000FFF000000000
000000FFF000000000
000000FFF000000000
FFFFFFF00000000000
FFFFFFF00000000000
FFFFFFF00000000000
FFFFFFF00000000000
FFFFFFF00000000000
FFFFFFF00000000000
FFFFFFF00000000000
FFFFFFF00000000000
000000000000000000
000000000000000000
000000000000000000
000000000000000000
000000000000000000
000000000000000000
000000000000000000
000000000000000000
000000000000000000
000000000000000000
000000000000000000
000000000000000000
000000000000000000
000000000000000000
000000000000000000
000000000000000000
ENDCHAR
STARTCHAR U+007C
ENCODING 124
SWIDTH 1000 0
BBX 68 80 0 -16
DWIDTH 68 0
BITMAP
000000000000000000
000000000000000000
000000000000000000
000000000000000000
000000000000000000
000000000000000000
000000000000000000
000000000000000000
000000FFF000000000
000000FFF000000000
000000FFF000000000
000000FFF000000000
000000FFF000000000
000000FFF000000000
000000FFF000000000
000000FFF000000000
000000FFF000000000
000000FFF000000000
000000FFF000000000
000000FFF000000000
000000FFF000000000
000000FFF000000000
000000FFF000000000
000000FFF000000000
000000FFF000000000
000000FFF000000000
000000FFF000000000
000000FFF000000000
000000FFF000000000
000000FFF000000000
000000FFF000000000
000000FFF000000000
000000FFF000000000
000000FFF000000000
000000FFF000000000
000000FFF000000000
000000FFF000000000
000000FFF000000000
000000FFF000000000
000000FFF000000000
000000FFF000000000
000000FFF000000000
000000FFF000000000
000000FFF000000000
000000FFF000000000
000000FFF000000000
000000FFF000000000
000000FFF000000000
000000FFF000000000
000000FFF000000000
000000FFF000000000
000000FFF000000000
000000FFF000000000
000000FFF000000000
000000FFF000000000
000000FFF000000000
000000FFF000000000
000000FFF000000000
000000FFF000000000
000000FFF000000000
000000FFF000000000
000000FFF000000000
000000FFF000000000
000000FFF000000000
000000000000000000
000000000000000000
000000000000000000
000000000000000000
000000000000000000
000000000000000000
000000000000000000
000000000000000000
000000000000000000
000000000000000000
000000000000000000
000000000000000000
000000000000000000
000000000000000000
000000000000000000
000000000000000000
ENDCHAR
STARTCHAR U+007B
ENCODING 123
SWIDTH 1000 0
BBX 68 80 0 -16
DWIDTH 68 0
BITMAP
000000000000000000
000000000000000000
000000000000000000
000000000000000000
000000000000000000
000000000000000000
000000000000000000
000000000000000000
00000000FFFFFFF000
00000000FFFFFFF000
00000000FFFFFFF000
00000000FFFFFFF000
00000000FFFFFFF000
00000000FFFFFFF000
00000000FFFFFFF000
00000000FFFFFFF000
000000FFF000000000
000000FFF000000000
000000FFF000000000
000000FFF000000000
000000FFF000000000
000000FFF000000000
000000FFF000000000
000000FFF000000000
00000000FFF0000000
00000000FFF0000000
00000000FFF0000000
00000000FFF0000000
00000000FFF0000000
00000000FFF0000000
00000000FFF0000000
00000000FFF0000000
0000FFFFF000000000
0000FFFFF000000000
0000FFFFF000000000
0000FFFFF000000000
0000FFFFF000000000
0000FFFFF000000000
0000FFFFF000000000
0000FFFFF000000000
00000000FFF0000000
00000000FFF0000000
00000000FFF0000000
00000000FFF0000000
00000000FFF0000000
00000000FFF0000000
00000000FFF0000000
00000000FFF0000000
000000FFF000000000
000000FFF000000000
000000FFF000000000
000000FFF000000000
000000FFF000000000
000000FFF000000000
000000FFF000000000
000000FFF000000000
00000000FFFFFFF000
00000000FFFFFFF000
00000000FFFFFFF000
00000000FFFFFFF000
00000000FFFFFFF000
00000000FFFFFFF000
00000000FFFFFFF000
00000000FFFFFFF000
000000000000000000
000000000000000000
000000000000000000
000000000000000000
000000000000000000
000000000000000000
000000000000000000
000000000000000000
000000000000000000
000000000000000000
000000000000000000
000000000000000000
000000000000000000
000000000000000000
000000000000000000
000000000000000000
ENDCHAR
STARTCHAR U+007A
ENCODING 122
SWIDTH 1000 0
BBX 68 80 0 -16
DWIDTH 68 0
BITMAP
000000000000000000
000000000000000000
000000000000000000
000000000000000000
000000000000000000
000000000000000000
000000000000000000
000000000000000000
000000000000000000
000000000000000000
000000000000000000
000000000000000000
000000000000000000
000000000000000000
000000000000000000
000000000000000000
000000000000000000
000000000000000000
000000000000000000
000000000000000000
000000000000000000
000000000000000000
000000000000000000
000000000000000000
FFFFFFFFFFFFFFF000
FFFFFFFFFFFFFFF000
FFFFFFFFFFFFFFF000
FFFFFFFFFFFFFFF000
FFFFFFFFFFFFFFF000
FFFFFFFFFFFFFFF000
FFFFFFFFFFFFFFF000
FFFFFFFFFFFFFFF000
0000000000FFF00000
0000000000FFF00000
0000000000FFF00000
0000000000FFF00000
0000000000FFF00000
0000000000FFF00000
0000000000FFF00000
0000000000FFF00000
000000FFFFF0000000
000000FFFFF0000000
000000FFFFF0000000
000000FFFFF0000000
000000FFFFF0000000
000000FFFFF0000000
000000FFFFF0000000
000000FFFFF0000000
0000FFF00000000000
0000FFF00000000000
0000FFF00000000000
0000FFF00000000000
0000FFF00000000000
0000FFF00000000000
0000FFF00000000000
0000FFF00000000000
FFFFFFFFFFFFFFF000
FFFFFFFFFFFFFFF000
FFFFFFFFFFFFFFF000
FFFFFFFFFFFFFFF000
FFFFFFFFFFFFFFF000
FFFFFFFFFFFFFFF000
FFFFFFFFFFFFFFF000
FFFFFFFFFFFFFFF000
000000000000000000
000000000000000000
000000000000000000
000000000000000000
000000000000000000
000000000000000000
000000000000000000
000000000000000000
000000000000000000
000000000000000000
000000000000000000
000000000000000000
000000000000000000
000000000000000000
000000000000000000
000000000000000000
ENDCHAR
STARTCHAR U+0079
ENCODING 121
SWIDTH 1000 0
BBX 68 80 0 -16
DWIDTH 68 0
BITMAP
000000000000000000
000000000000000000
000000000000000000
000000000000000000
000000000000000000
000000000000000000
000000000000000000
000000000000000000
000000000000000000
000000000000000000
000000000000000000
000000000000000000
000000000000000000
000000000000000000
000000000000000000
000000000000000000
000000000000000000
000000000000000000
000000000000000000
000000000000000000
000000000000000000
000000000000000000
000000000000000000
000000000000000000
FFF0000000FFF00000
FFF0000000FFF00000
FFF0000000FFF00000
FFF0000000FFF00000
FFF0000000FFF00000
FFF0000000FFF00000
FFF0000000FFF00000
FFF0000000FFF00000
FFF0000000FFF00000
FFF0000000FFF00000
FFF0000000FFF00000
FFF0000000FFF00000
FFF0000000FFF00000
FFF0000000FFF00000
FFF0000000FFF00000
FFF0000000FFF00000
FFF00000FFFFF00000
FFF00000FFFFF00000
FFF00000FFFFF00000
FFF00000FFFFF00000
FFF00000FFFFF00000
FFF00000FFFFF00000
FFF00000FFFFF00000
FFF00000FFFFF00000
00FFFFFFF0FFF00000
00FFFFFFF0FFF00000
00FFFFFFF0FFF00000
00FFFFFFF0FFF00000
00FFFFFFF0FFF00000
00FFFFFFF0FFF00000
00FFFFFFF0FFF00000
00FFFFFFF0FFF00000
0000000000FFF00000
0000000000FFF00000
0000000000FFF00000
0000000000FFF00000
0000000000FFF00000
0000000000FFF00000
0000000000FFF00000
0000000000FFF00000
FFF0000000FFF00000
FFF0000000FFF00000
FFF0000000FFF00000
FFF0000000FFF00000
FFF0000000FFF00000
FFF0000000FFF00000
FFF0000000FFF00000
FFF0000000FFF00000
00FFFFFFFFF0000000
00FFFFFFFFF0000000
00FFFFFFFFF0000000
00FFFFFFFFF0000000
00FFFFFFFFF0000000
00FFFFFFFFF0000000
00FFFFFFFFF0000000
00FFFFFFFFF0000000
ENDCHAR
STARTCHAR U+0078
ENCODING 120
SWIDTH 1000 0
BBX 68 80 0 -16
DWIDTH 68 0
BITMAP
000000000000000000
000000000000000000
000000000000000000
000000000000000000
000000000000000000
000000000000000000
000000000000000000
000000000000000000
000000000000000000
000000000000000000
000000000000000000
000000000000000000
000000000000000000
000000000000000000
000000000000000000
000000000000000000
000000000000000000
000000000000000000
000000000000000000
000000000000000000
000000000000000000
000000000000000000
000000000000000000
000000000000000000
FFF0000000FFF00000
FFF0000000FFF00000
FFF0000000FFF00000
FFF0000000FFF00000
FFF0000000FFF00000
FFF0000000FFF00000
FFF0000000FFF00000
FFF0000000FFF00000
00FFF000FFF0000000
00FFF000FFF0000000
00FFF000FFF0000000
00FFF000FFF0000000
00FFF000FFF0000000
00FFF000FFF0000000
00FFF000FFF0000000
00FFF000FFF0000000
0000FFFFF000000000
0000FFFFF000000000
0000FFFFF000000000
0000FFFFF000000000
0000FFFFF000000000
0000FFFFF000000000
0000FFFFF000000000
0000FFFFF000000000
00FFF000FFF0000000
00FFF000FFF0000000
00FFF000FFF0000000
00FFF000FFF0000000
00FFF000FFF0000000
00FFF000FFF0000000
00FFF000FFF0000000
00FFF000FFF0000000
FFF0000000FFF00000
FFF0000000FFF00000
FFF0000000FFF00000
FFF0000000FFF00000
FFF0000000FFF00000
FFF0000000FFF00000
FFF0000000FFF00000
FFF0000000FFF00000
000000000000000000
000000000000000000
000000000000000000
000000000000000000
000000000000000000
000000000000000000
000000000000000000
000000000000000000
000000000000000000
000000000000000000
000000000000000000
000000000000000000
000000000000000000
000000000000000000
000000000000000000
000000000000000000
ENDCHAR
STARTCHAR U+0077
ENCODING 119
SWIDTH 1000 0
BBX 68 80 0 -16
DWIDTH 68 0
BITMAP
000000000000000000
000000000000000000
000000000000000000
000000000000000000
000000000000000000
000000000000000000
000000000000000000
000000000000000000
000000000000000000
000000000000000000
000000000000000000
000000000000000000
000000000000000000
000000000000000000
000000000000000000
000000000000000000
000000000000000000
000000000000000000
000000000000000000
000000000000000000
000000000000000000
000000000000000000
000000000000000000
000000000000000000
FFF000000000FFF000
FFF000000000FFF000
FFF000000000FFF000
FFF000000000FFF000
FFF000000000FFF000
FFF000000000FFF000
FFF000000000FFF000
FFF000000000FFF000
FFF000000000FFF000
FFF000000000FFF000
FFF000000000FFF000
FFF000000000FFF000
FFF000000000FFF000
FFF000000000FFF000
FFF000000000FFF000
FFF000000000FFF000
FFF000FFF000FFF000
FFF000FFF000FFF000
FFF000FFF000FFF000
FFF000FFF000FFF000
FFF000FFF000FFF000
FFF000FFF000FFF000
FFF000FFF000FFF000
FFF000FFF000FFF000
FFF0FFF0FFF0FFF000
FFF0FFF0FFF0FFF000
FFF0FFF0FFF0FFF000
FFF0FFF0FFF0FFF000
FFF0FFF0FFF0FFF000
FFF0FFF0FFF0FFF000
FFF0FFF0FFF0FFF000
FFF0FFF0FFF0FFF000
00FFF00000FFF00000
00FFF00000FFF00000
00FFF00000FFF00000
00FFF00000FFF00000
00FFF00000FFF00000
00FFF00000FFF00000
00FFF00000FFF00000
00FFF00000FFF00000
000000000000000000
000000000000000000
000000000000000000
000000000000000000
000000000000000000
000000000000000000
000000000000000000
000000000000000000
000000000000000000
000000000000000000
000000000000000000
000000000000000000
000000000000000000
000000000000000000
000000000000000000
000000000000000000
ENDCHAR
STARTCHAR U+0076
ENCODING 118
SWIDTH 1000 0
BBX 68 80 0 -16
DWIDTH 68 0
BITMAP
000000000000000000
000000000000000000
000000000000000000
000000000000000000
000000000000000000
000000000000000000
000000000000000000
000000000000000000
000000000000000000
000000000000000000
000000000000000000
000000000000000000
000000000000000000
000000000000000000
000000000000000000
000000000000000000
000000000000000000
000000000000000000
000000000000000000
000000000000000000
000000000000000000
000000000000000000
000000000000000000
000000000000000000
FFF000000000FFF000
FFF000000000FFF000
FFF000000000FFF000
FFF000000000FFF000
FFF000000000FFF000
FFF000000000FFF000
FFF000000000FFF000
FFF000000000FFF000
FFF000000000FFF000
FFF000000000FFF000
FFF000000000FFF000
FFF000000000FFF000
FFF000000000FFF000
FFF000000000FFF000
FFF000000000FFF000
FFF000000000FFF000
00FFF00000FFF00000
00FFF00000FFF00000
00FFF00000FFF00000
00FFF00000FFF00000
00FFF00000FFF00000
00FFF00000FFF00000
00FFF00000FFF00000
00FFF00000FFF00000
0000FFF0FFF0000000
0000FFF0FFF0000000
0000FFF0FFF0000000
0000FFF0FFF0000000
0000FFF0FFF0000000
0000FFF0FFF0000000
0000FFF0FFF0000000
0000FFF0FFF0000000
000000FFF000000000
000000FFF000000000
000000FFF000000000
000000FFF000000000
000000FFF000000000
000000FFF000000000
000000FFF000000000
000000FFF000000000
000000000000000000
000000000000000000
000000000000000000
000000000000000000
000000000000000000
000000000000000000
000000000000000000
000000000000000000
000000000000000000
000000000000000000
000000000000000000
000000000000000000
000000000000000000
000000000000000000
000000000000000000
000000000000000000
ENDCHAR
STARTCHAR U+0075
ENCODING 117
SWIDTH 1000 0
BBX 68 80 0 -16
DWIDTH 68 0
BITMAP
000000000000000000
000000000000000000
000000000000000000
000000000000000000
000000000000000000
000000000000000000
000000000000000000
000000000000000000
000000000000000000
000000000000000000
000000000000000000
000000000000000000
000000000000000000
000000000000000000
000000000000000000
000000000000000000
000000000000000000
000000000000000000
000000000000000000
000000000000000000
000000000000000000
000000000000000000
000000000000000000
000000000000000000
FFF0000000FFF00000
FFF0000000FFF00000
FFF0000000FFF00000
FFF0000000FFF00000
FFF0000000FFF00000
FFF0000000FFF00000
FFF0000000FFF00000
FFF0000000FFF00000
FFF0000000FFF00000
FFF0000000FFF00000
FFF0000000FFF00000
FFF0000000FFF00000
FFF0000000FFF00000
FFF0000000FFF00000
FFF0000000FFF00000
FFF0000000FFF00000
FFF0000000FFF00000
FFF0000000FFF00000
FFF0000000FFF00000
FFF0000000FFF00000
FFF0000000FFF00000
FFF0000000FFF00000
FFF0000000FFF00000
FFF0000000FFF00000
FFF0000000FFF00000
FFF0000000FFF00000
FFF0000000FFF00000
FFF0000000FFF00000
FFF0000000FFF00000
FFF0000000FFF00000
FFF0000000FFF00000
FFF0000000FFF00000
00FFFFFFFFF0FFF000
00FFFFFFFFF0FFF000
00FFFFFFFFF0FFF000
00FFFFFFFFF0FFF000
00FFFFFFFFF0FFF000
00FFFFFFFFF0FFF000
00FFFFFFFFF0FFF000
00FFFFFFFFF0FFF000
000000000000000000
000000000000000000
000000000000000000
000000000000000000
000000000000000000
000000000000000000
000000000000000000
000000000000000000
000000000000000000
000000000000000000
000000000000000000
000000000000000000
000000000000000000
000000000000000000
000000000000000000
000000000000000000
ENDCHAR
STARTCHAR U+0074
ENCODING 116
SWIDTH 1000 0
BBX 68 80 0 -16
DWIDTH 68 0
BITMAP
000000000000000000
000000000000000000
000000000000000000
000000000000000000
000000000000000000
000000000000000000
000000000000000000
000000000000000000
0000FFF00000000000
0000FFF00000000000
0000FFF00000000000
0000FFF00000000000
0000FFF00000000000
0000FFF00000000000
0000FFF00000000000
0000FFF00000000000
0000FFF00000000000
0000FFF00000000000
0000FFF00000000000
0000FFF00000000000
0000FFF00000000000
0000FFF00000000000
0000FFF00000000000
0000FFF00000000000
FFFFFFFFFFF0000000
FFFFFFFFFFF0000000
FFFFFFFFFFF0000000
FFFFFFFFFFF0000000
FFFFFFFFFFF0000000
FFFFFFFFFFF0000000
FFFFFFFFFFF0000000
FFFFFFFFFFF0000000
0000FFF00000000000
0000FFF00000000000
0000FFF00000000000
0000FFF00000000000
0000FFF00000000000
0000FFF00000000000
0000FFF00000000000
0000FFF00000000000
0000FFF00000000000
0000FFF00000000000
0000FFF00000000000
0000FFF00000000000
0000FFF00000000000
0000FFF00000000000
0000FFF00000000000
0000FFF00000000000
0000FFF000FFF00000
0000FFF000FFF00000
0000FFF000FFF00000
0000FFF000FFF00000
0000FFF000FFF00000
0000FFF000FFF00000
0000FFF000FFF00000
0000FFF000FFF00000
000000FFFFF0000000
000000FFFFF0000000
000000FFFFF0000000
000000FFFFF0000000
000000FFFFF0000000
000000FFFFF0000000
000000FFFFF0000000
000000FFFFF0000000
000000000000000000
000000000000000000
000000000000000000
000000000000000000
000000000000000000
000000000000000000
000000000000000000
000000000000000000
000000000000000000
000000000000000000
000000000000000000
000000000000000000
000000000000000000
000000000000000000
000000000000000000
000000000000000000
ENDCHAR
STARTCHAR U+0073
ENCODING 115
SWIDTH 1000 0
BBX 68 80 0 -16
DWIDTH 68 0
BITMAP
000000000000000000
000000000000000000
000000000000000000
000000000000000000
000000000000000000
000000000000000000
000000000000000000
000000000000000000
000000000000000000
000000000000000000
000000000000000000
000000000000000000
000000000000000000
000000000000000000
000000000000000000
000000000000000000
000000000000000000
000000000000000000
000000000000000000
000000000000000000
000000000000000000
000000000000000000
000000000000000000
000000000000000000
00FFFFFFFFFFF00000
00FFFFFFFFFFF00000
00FFFFFFFFFFF00000
00FFFFFFFFFFF00000
00FFFFFFFFFFF00000
00FFFFFFFFFFF00000
00FFFFFFFFFFF00000
00FFFFFFFFFFF00000
FFF000000000000000
FFF000000000000000
FFF000000000000000
FFF000000000000000
FFF000000000000000
FFF000000000000000
FFF000000000000000
FFF000000000000000
00FFFFFFFFFFF00000
00FFFFFFFFFFF00000
00FFFFFFFFFFF00000
00FFFFFFFFFFF00000
00FFFFFFFFFFF00000
00FFFFFFFFFFF00000
00FFFFFFFFFFF00000
00FFFFFFFFFFF00000
000000000000FFF000
000000000000FFF000
000000000000FFF000
000000000000FFF000
000000000000FFF000
000000000000FFF000
000000000000FFF000
000000000000FFF000
FFFFFFFFFFFFF00000
FFFFFFFFFFFFF00000
FFFFFFFFFFFFF00000
FFFFFFFFFFFFF00000
FFFFFFFFFFFFF00000
FFFFFFFFFFFFF00000
FFFFFFFFFFFFF00000
FFFFFFFFFFFFF00000
000000000000000000
000000000000000000
000000000000000000
000000000000000000
000000000000000000
000000000000000000
000000000000000000
000000000000000000
000000000000000000
000000000000000000
000000000000000000
000000000000000000
000000000000000000
000000000000000000
000000000000000000
000000000000000000
ENDCHAR
STARTCHAR U+0072
ENCODING 114
SWIDTH 1000 0
BBX 68 80 0 -16
DWIDTH 68 0
BITMAP
000000000000000000
000000000000000000
000000000000000000
000000000000000000
000000000000000000
000000000000000000
000000000000000000
000000000000000000
000000000000000000
000000000000000000
000000000000000000
000000000000000000
000000000000000000
000000000000000000
000000000000000000
000000000000000000
000000000000000000
000000000000000000
000000000000000000
000000000000000000
000000000000000000
000000000000000000
000000000000000000
000000000000000000
FFF000FFFFFFF00000
FFF000FFFFFFF00000
FFF000FFFFFFF00000
FFF000FFFFFFF00000
FFF000FFFFFFF00000
FFF000FFFFFFF00000
FFF000FFFFFFF00000
FFF000FFFFFFF00000
00FFFFF00000FFF000
00FFFFF00000FFF000
00FFFFF00000FFF000
00FFFFF00000FFF000
00FFFFF00000FFF000
00FFFFF00000FFF000
00FFFFF00000FFF000
00FFFFF00000FFF000
00FFF0000000000000
00FFF0000000000000
00FFF0000000000000
00FFF0000000000000
00FFF0000000000000
00FFF0000000000000
00FFF0000000000000
00FFF0000000000000
00FFF0000000000000
00FFF0000000000000
00FFF0000000000000
00FFF0000000000000
00FFF0000000000000
00FFF0000000000000
00FFF0000000000000
00FFF0000000000000
00FFF0000000000000
00FFF0000000000000
00FFF0000000000000
00FFF0000000000000
00FFF0000000000000
00FFF0000000000000
00FFF0000000000000
00FFF0000000000000
000000000000000000
000000000000000000
000000000000000000
000000000000000000
000000000000000000
000000000000000000
000000000000000000
000000000000000000
000000000000000000
000000000000000000
000000000000000000
000000000000000000
000000000000000000
000000000000000000
000000000000000000
000000000000000000
ENDCHAR
STARTCHAR U+0071
ENCODING 113
SWIDTH 1000 0
BBX 68 80 0 -16
DWIDTH 68 0
BITMAP
000000000000000000
000000000000000000
000000000000000000
000000000000000000
000000000000000000
000000000000000000
000000000000000000
000000000000000000
000000000000000000
000000000000000000
000000000000000000
000000000000000000
000000000000000000
000000000000000000
000000000000000000
000000000000000000
000000000000000000
000000000000000000
000000000000000000
000000000000000000
000000000000000000
000000000000000000
000000000000000000
000000000000000000
00FFFFFFFFF0FFF000
00FFFFFFFFF0FFF000
00FFFFFFFFF0FFF000
00FFFFFFFFF0FFF000
00FFFFFFFFF0FFF000
00FFFFFFFFF0FFF000
00FFFFFFFFF0FFF000
00FFFFFFFFF0FFF000
FFF0000000FFFFF000
FFF0000000FFFFF000
FFF0000000FFFFF000
FFF0000000FFFFF000
FFF0000000FFFFF000
FFF0000000FFFFF000
FFF0000000FFFFF000
FFF0000000FFFFF000
FFF0000000FFFFF000
FFF0000000FFFFF000
FFF0000000FFFFF000
FFF0000000FFFFF000
FFF0000000FFFFF000
FFF0000000FFFFF000
FFF0000000FFFFF000
FFF0000000FFFFF000
00FFFFFFFFF0FFF000
00FFFFFFFFF0FFF000
00FFFFFFFFF0FFF000
00FFFFFFFFF0FFF000
00FFFFFFFFF0FFF000
00FFFFFFFFF0FFF000
00FFFFFFFFF0FFF000
00FFFFFFFFF0FFF000
000000000000FFF000
000000000000FFF000
000000000000FFF000
000000000000FFF000
000000000000FFF000
000000000000FFF000
000000000000FFF000
000000000000FFF000
000000000000FFF000
000000000000FFF000
000000000000FFF000
000000000000FFF000
000000000000FFF000
000000000000FFF000
000000000000FFF000
000000000000FFF000
000000000000FFF000
000000000000FFF000
000000000000FFF000
000000000000FFF000
000000000000FFF000
000000000000FFF000
000000000000FFF000
000000000000FFF000
ENDCHAR
STARTCHAR U+0070
ENCODING 112
SWIDTH 1000 0
BBX 68 80 0 -16
DWIDTH 68 0
BITMAP
000000000000000000
000000000000000000
000000000000000000
000000000000000000
000000000000000000
000000000000000000
000000000000000000
000000000000000000
000000000000000000
000000000000000000
000000000000000000
000000000000000000
000000000000000000
000000000000000000
000000000000000000
000000000000000000
000000000000000000
000000000000000000
000000000000000000
000000000000000000
000000000000000000
000000000000000000
000000000000000000
000000000000000000
FFF0FFFFFFFFF00000
FFF0FFFFFFFFF00000
FFF0FFFFFFFFF00000
FFF0FFFFFFFFF00000
FFF0FFFFFFFFF00000
FFF0FFFFFFFFF00000
FFF0FFFFFFFFF00000
FFF0FFFFFFFFF00000
FFFFF0000000FFF000
FFFFF0000000FFF000
FFFFF0000000FFF000
FFFFF0000000FFF000
FFFFF0000000FFF000
FFFFF0000000FFF000
FFFFF0000000FFF000
FFFFF0000000FFF000
FFFFF0000000FFF000
FFFFF0000000FFF000
FFFFF0000000FFF000
FFFFF0000000FFF000
FFFFF0000000FFF000
FFFFF0000000FFF000
FFFFF0000000FFF000
FFFFF0000000FFF000
FFF0FFFFFFFFF00000
FFF0FFFFFFFFF00000
FFF0FFFFFFFFF00000
FFF0FFFFFFFFF00000
FFF0FFFFFFFFF00000
FFF0FFFFFFFFF00000
FFF0FFFFFFFFF00000
FFF0FFFFFFFFF00000
FFF000000000000000
FFF000000000000000
FFF000000000000000
FFF000000000000000
FFF000000000000000
FFF000000000000000
FFF000000000000000
FFF000000000000000
FFF000000000000000
FFF000000000000000
FFF000000000000000
FFF000000000000000
FFF000000000000000
FFF000000000000000
FFF000000000000000
FFF000000000000000
FFF000000000000000
FFF000000000000000
FFF000000000000000
FFF000000000000000
FFF000000000000000
FFF000000000000000
FFF000000000000000
FFF000000000000000
ENDCHAR
STARTCHAR U+006f
ENCODING 111
SWIDTH 1000 0
BBX 68 80 0 -16
DWIDTH 68 0
BITMAP
000000000000000000
000000000000000000
000000000000000000
000000000000000000
000000000000000000
000000000000000000
000000000000000000
000000000000000000
000000000000000000
000000000000000000
000000000000000000
000000000000000000
000000000000000000
000000000000000000
000000000000000000
000000000000000000
000000000000000000
000000000000000000
000000000000000000
000000000000000000
000000000000000000
000000000000000000
000000000000000000
000000000000000000
00FFFFFFFFFFF00000
00FFFFFFFFFFF00000
00FFFFFFFFFFF00000
00FFFFFFFFFFF00000
00FFFFFFFFFFF00000
00FFFFFFFFFFF00000
00FFFFFFFFFFF00000
00FFFFFFFFFFF00000
FFF000000000FFF000
FFF000000000FFF000
FFF000000000FFF000
FFF000000000FFF000
FFF000000000FFF000
FFF000000000FFF000
FFF000000000FFF000
FFF000000000FFF000
FFF000000000FFF000
FFF000000000FFF000
FFF000000000FFF000
FFF000000000FFF000
FFF000000000FFF000
FFF000000000FFF000
FFF000000000FFF000
FFF000000000FFF000
FFF000000000FFF000
FFF000000000FFF000
FFF000000000FFF000
FFF000000000FFF000
FFF000000000FFF000
FFF000000000FFF000
FFF000000000FFF000
FFF000000000FFF000
00FFFFFFFFFFF00000
00FFFFFFFFFFF00000
00FFFFFFFFFFF00000
00FFFFFFFFFFF00000
00FFFFFFFFFFF00000
00FFFFFFFFFFF00000
00FFFFFFFFFFF00000
00FFFFFFFFFFF00000
000000000000000000
000000000000000000
000000000000000000
000000000000000000
000000000000000000
000000000000000000
000000000000000000
000000000000000000
000000000000000000
000000000000000000
000000000000000000
000000000000000000
000000000000000000
000000000000000000
000000000000000000
000000000000000000
ENDCHAR
STARTCHAR U+006e
ENCODING 110
SWIDTH 1000 0
BBX 68 80 0 -16
DWIDTH 68 0
BITMAP
000000000000000000
000000000000000000
000000000000000000
000000000000000000
000000000000000000
000000000000000000
000000000000000000
000000000000000000
000000000000000000
000000000000000000
000000000000000000
000000000000000000
000000000000000000
000000000000000000
000000000000000000
000000000000000000
000000000000000000
000000000000000000
000000000000000000
000000000000000000
000000000000000000
000000000000000000
000000000000000000
000000000000000000
FFF0FFFFFFFFF00000
FFF0FFFFFFFFF00000
FFF0FFFFFFFFF00000
FFF0FFFFFFFFF00000
FFF0FFFFFFFFF00000
FFF0FFFFFFFFF00000
FFF0FFFFFFFFF00000
FFF0FFFFFFFFF00000
FFFFF0000000FFF000
FFFFF0000000FFF000
FFFFF0000000FFF000
FFFFF0000000FFF000
FFFFF0000000FFF000
FFFFF0000000FFF000
FFFFF0000000FFF000
FFFFF0000000FFF000
FFF000000000FFF000
FFF000000000FFF000
FFF000000000FFF000
FFF000000000FFF000
FFF000000000FFF000
FFF000000000FFF000
FFF000000000FFF000
FFF000000000FFF000
FFF000000000FFF000
FFF000000000FFF000
FFF000000000FFF000
FFF000000000FFF000
FFF000000000FFF000
FFF000000000FFF000
FFF000000000FFF000
FFF000000000FFF000
FFF000000000FFF000
FFF000000000FFF000
FFF000000000FFF000
FFF000000000FFF000
FFF000000000FFF000
FFF000000000FFF000
FFF000000000FFF000
FFF000000000FFF000
000000000000000000
000000000000000000
000000000000000000
000000000000000000
000000000000000000
000000000000000000
000000000000000000
000000000000000000
000000000000000000
000000000000000000
000000000000000000
000000000000000000
000000000000000000
000000000000000000
000000000000000000
000000000000000000
ENDCHAR
STARTCHAR U+006d
ENCODING 109
SWIDTH 1000 0
BBX 68 80 0 -16
DWIDTH 68 0
BITMAP
000000000000000000
000000000000000000
000000000000000000
000000000000000000
000000000000000000
000000000000000000
000000000000000000
000000000000000000
000000000000000000
000000000000000000
000000000000000000
000000000000000000
000000000000000000
000000000000000000
000000000000000000
000000000000000000
000000000000000000
000000000000000000
000000000000000000
000000000000000000
000000000000000000
000000000000000000
000000000000000000
000000000000000000
FFFFF00000FFF00000
FFFFF00000FFF00000
FFFFF00000FFF00000
FFFFF00000FFF00000
FFFFF00000FFF00000
FFFFF00000FFF00000
FFFFF00000FFF00000
FFFFF00000FFF00000
FFF0FFF0FFF0FFF000
FFF0FFF0FFF0FFF000
FFF0FFF0FFF0FFF000
FFF0FFF0FFF0FFF000
FFF0FFF0FFF0FFF000
FFF0FFF0FFF0FFF000
FFF0FFF0FFF0FFF000
FFF0FFF0FFF0FFF000
FFF000FFF000FFF000
FFF000FFF000FFF000
FFF000FFF000FFF000
FFF000FFF000FFF000
FFF000FFF000FFF000
FFF000FFF000FFF000
FFF000FFF000FFF000
FFF000FFF000FFF000
FFF000FFF000FFF000
FFF000FFF000FFF000
FFF000FFF000FFF000
FFF000FFF000FFF000
FFF000FFF000FFF000
FFF000FFF000FFF000
FFF000FFF000FFF000
FFF000FFF000FFF000
FFF000000000FFF000
FFF000000000FFF000
FFF000000000FFF000
FFF000000000FFF000
FFF000000000FFF000
FFF000000000FFF000
FFF000000000FFF000
FFF000000000FFF000
000000000000000000
000000000000000000
000000000000000000
000000000000000000
000000000000000000
000000000000000000
000000000000000000
000000000000000000
000000000000000000
000000000000000000
000000000000000000
000000000000000000
000000000000000000
000000000000000000
000000000000000000
000000000000000000
ENDCHAR
STARTCHAR U+006c
ENCODING 108
SWIDTH 1000 0
BBX 68 80 0 -16
DWIDTH 68 0
BITMAP
000000000000000000
000000000000000000
000000000000000000
000000000000000000
000000000000000000
000000000000000000
000000000000000000
000000000000000000
0000FFFFF000000000
0000FFFFF000000000
0000FFFFF000000000
0000FFFFF000000000
0000FFFFF000000000
0000FFFFF000000000
0000FFFFF000000000
0000FFFFF000000000
000000FFF000000000
000000FFF000000000
000000FFF000000000
000000FFF000000000
000000FFF000000000
000000FFF000000000
000000FFF000000000
000000FFF000000000
000000FFF000000000
000000FFF000000000
000000FFF000000000
000000FFF000000000
000000FFF000000000
000000FFF000000000
000000FFF000000000
000000FFF000000000
000000FFF000000000
000000FFF000000000
000000FFF000000000
000000FFF000000000
000000FFF000000000
000000FFF000000000
000000FFF000000000
000000FFF000000000
000000FFF000000000
000000FFF000000000
000000FFF000000000
000000FFF000000000
000000FFF000000000
000000FFF000000000
000000FFF000000000
000000FFF000000000
000000FFF000000000
000000FFF000000000
000000FFF000000000
000000FFF000000000
000000FFF000000000
000000FFF000000000
000000FFF000000000
000000FFF000000000
0000FFFFFFF0000000
0000FFFFFFF0000000
0000FFFFFFF0000000
0000FFFFFFF0000000
0000FFFFFFF0000000
0000FFFFFFF0000000
0000FFFFFFF0000000
0000FFFFFFF0000000
000000000000000000
000000000000000000
000000000000000000
000000000000000000
000000000000000000
000000000000000000
000000000000000000
000000000000000000
000000000000000000
000000000000000000
000000000000000000
000000000000000000
000000000000000000
000000000000000000
000000000000000000
000000000000000000
ENDCHAR
STARTCHAR U+006b
ENCODING 107
SWIDTH 1000 0
BBX 68 80 0 -16
DWIDTH 68 0
BITMAP
000000000000000000
000000000000000000
000000000000000000
000000000000000000
000000000000000000
000000000000000000
000000000000000000
000000000000000000
FFF000000000000000
FFF000000000000000
FFF000000000000000
FFF000000000000000
FFF000000000000000
FFF000000000000000
FFF000000000000000
FFF000000000000000
FFF000000000000000
FFF000000000000000
FFF000000000000000
FFF000000000000000
FFF000000000000000
FFF000000000000000
FFF000000000000000
FFF000000000000000
FFF00000FFF0000000
FFF00000FFF0000000
FFF00000FFF0000000
FFF00000FFF0000000
FFF00000FFF0000000
FFF00000FFF0000000
FFF00000FFF0000000
FFF00000FFF0000000
FFF000FFF000000000
FFF000FFF000000000
FFF000FFF000000000
FFF000FFF000000000
FFF000FFF000000000
FFF000FFF000000000
FFF000FFF000000000
FFF000FFF000000000
FFFFFFF00000000000
FFFFFFF00000000000
FFFFFFF00000000000
FFFFFFF00000000000
FFFFFFF00000000000
FFFFFFF00000000000
FFFFFFF00000000000
FFFFFFF00000000000
FFF00000FFF0000000
FFF00000FFF0000000
FFF00000FFF0000000
FFF00000FFF0000000
FFF00000FFF0000000
FFF00000FFF0000000
FFF00000FFF0000000
FFF00000FFF0000000
FFF000000000FFF000
FFF000000000FFF000
FFF000000000FFF000
FFF000000000FFF000
FFF000000000FFF000
FFF000000000FFF000
FFF000000000FFF000
FFF000000000FFF000
000000000000000000
000000000000000000
000000000000000000
000000000000000000
000000000000000000
000000000000000000
000000000000000000
000000000000000000
000000000000000000
000000000000000000
000000000000000000
000000000000000000
000000000000000000
000000000000000000
000000000000000000
000000000000000000
ENDCHAR
STARTCHAR U+006a
ENCODING 106
SWIDTH 1000 0
BBX 68 80 0 -16
DWIDTH 68 0
BITMAP
000000000000000000
000000000000000000
000000000000000000
000000000000000000
000000000000000000
000000000000000000
000000000000000000
000000000000000000
0000000000FFF00000
0000000000FFF00000
0000000000FFF00000
0000000000FFF00000
0000000000FFF00000
0000000000FFF00000
0000000000FFF00000
0000000000FFF00000
000000000000000000
000000000000000000
000000000000000000
000000000000000000
000000000000000000
000000000000000000
000000000000000000
000000000000000000
0000000000FFF00000
0000000000FFF00000
0000000000FFF00000
0000000000FFF00000
0000000000FFF00000
0000000000FFF00000
0000000000FFF00000
0000000000FFF00000
0000000000FFF00000
0000000000FFF00000
0000000000FFF00000
0000000000FFF00000
0000000000FFF00000
0000000000FFF00000
0000000000FFF00000
0000000000FFF00000
0000000000FFF00000
0000000000FFF00000
0000000000FFF00000
0000000000FFF00000
0000000000FFF00000
0000000000FFF00000
0000000000FFF00000
0000000000FFF00000
0000000000FFF00000
0000000000FFF00000
0000000000FFF00000
0000000000FFF00000
0000000000FFF00000
0000000000FFF00000
0000000000FFF00000
0000000000FFF00000
FFF0000000FFF00000
FFF0000000FFF00000
FFF0000000FFF00000
FFF0000000FFF00000
FFF0000000FFF00000
FFF0000000FFF00000
FFF0000000FFF00000
FFF0000000FFF00000
FFF0000000FFF00000
FFF0000000FFF00000
FFF0000000FFF00000
FFF0000000FFF00000
FFF0000000FFF00000
FFF0000000FFF00000
FFF0000000FFF00000
FFF0000000FFF00000
00FFFFFFFFF0000000
00FFFFFFFFF0000000
00FFFFFFFFF0000000
00FFFFFFFFF0000000
00FFFFFFFFF0000000
00FFFFFFFFF0000000
00FFFFFFFFF0000000
00FFFFFFFFF0000000
ENDCHAR
STARTCHAR U+0069
ENCODING 105
SWIDTH 1000 0
BBX 68 80 0 -16
DWIDTH 68 0
BITMAP
000000000000000000
000000000000000000
000000000000000000
000000000000000000
000000000000000000
000000000000000000
000000000000000000
000000000000000000
000000FFF000000000
000000FFF000000000
000000FFF000000000
000000FFF000000000
000000FFF000000000
000000FFF000000000
000000FFF000000000
000000FFF000000000
000000000000000000
000000000000000000
000000000000000000
000000000000000000
000000000000000000
000000000000000000
000000000000000000
000000000000000000
0000FFFFF000000000
0000FFFFF000000000
0000FFFFF000000000
0000FFFFF000000000
0000FFFFF000000000
0000FFFFF000000000
0000FFFFF000000000
0000FFFFF000000000
000000FFF000000000
000000FFF000000000
000000FFF000000000
000000FFF000000000
000000FFF000000000
000000FFF000000000
000000FFF000000000
000000FFF000000000
000000FFF000000000
000000FFF000000000
000000FFF000000000
000000FFF000000000
000000FFF000000000
000000FFF000000000
000000FFF000000000
000000FFF000000000
000000FFF000000000
000000FFF000000000
000000FFF000000000
000000FFF000000000
000000FFF000000000
000000FFF000000000
000000FFF000000000
000000FFF000000000
00FFFFFFFFFFF00000
00FFFFFFFFFFF00000
00FFFFFFFFFFF00000
00FFFFFFFFFFF00000
00FFFFFFFFFFF00000
00FFFFFFFFFFF00000
00FFFFFFFFFFF00000
00FFFFFFFFFFF00000
000000000000000000
000000000000000000
000000000000000000
000000000000000000
000000000000000000
000000000000000000
000000000000000000
000000000000000000
000000000000000000
000000000000000000
000000000000000000
000000000000000000
000000000000000000
000000000000000000
000000000000000000
000000000000000000
ENDCHAR
STARTCHAR U+0068
ENCODING 104
SWIDTH 1000 0
BBX 68 80 0 -16
DWIDTH 68 0
BITMAP
000000000000000000
000000000000000000
000000000000000000
000000000000000000
000000000000000000
000000000000000000
000000000000000000
000000000000000000
FFF000000000000000
FFF000000000000000
FFF000000000000000
FFF000000000000000
FFF000000000000000
FFF000000000000000
FFF000000000000000
FFF000000000000000
FFF000000000000000
FFF000000000000000
FFF000000000000000
FFF000000000000000
FFF000000000000000
FFF000000000000000
FFF000000000000000
FFF000000000000000
FFF0FFFFFFFFF00000
FFF0FFFFFFFFF00000
FFF0FFFFFFFFF00000
FFF0FFFFFFFFF00000
FFF0FFFFFFFFF00000
FFF0FFFFFFFFF00000
FFF0FFFFFFFFF00000
FFF0FFFFFFFFF00000
FFFFF0000000FFF000
FFFFF0000000FFF000
FFFFF0000000FFF000
FFFFF0000000FFF000
FFFFF0000000FFF000
FFFFF0000000FFF000
FFFFF0000000FFF000
FFFFF0000000FFF000
FFF000000000FFF000
FFF000000000FFF000
FFF000000000FFF000
FFF000000000FFF000
FFF000000000FFF000
FFF000000000FFF000
FFF000000000FFF000
FFF000000000FFF000
FFF000000000FFF000
FFF000000000FFF000
FFF000000000FFF000
FFF000000000FFF000
FFF000000000FFF000
FFF000000000FFF000
FFF000000000FFF000
FFF000000000FFF000
FFF000000000FFF000
FFF000000000FFF000
FFF000000000FFF000
FFF000000000FFF000
FFF000000000FFF000
FFF000000000FFF000
FFF000000000FFF000
FFF000000000FFF000
000000000000000000
000000000000000000
000000000000000000
000000000000000000
000000000000000000
000000000000000000
000000000000000000
000000000000000000
000000000000000000
000000000000000000
000000000000000000
000000000000000000
000000000000000000
000000000000000000
000000000000000000
000000000000000000
ENDCHAR
STARTCHAR U+0067
ENCODING 103
SWIDTH 1000 0
BBX 68 80 0 -16
DWIDTH 68 0
BITMAP
000000000000000000
000000000000000000
000000000000000000
000000000000000000
000000000000000000
000000000000000000
000000000000000000
000000000000000000
000000000000000000
000000000000000000
000000000000000000
000000000000000000
000000000000000000
000000000000000000
000000000000000000
000000000000000000
000000000000000000
000000000000000000
000000000000000000
000000000000000000
000000000000000000
000000000000000000
000000000000000000
000000000000000000
00FFFFFFFFF0FFF000
00FFFFFFFFF0FFF000
00FFFFFFFFF0FFF000
00FFFFFFFFF0FFF000
00FFFFFFFFF0FFF000
00FFFFFFFFF0FFF000
00FFFFFFFFF0FFF000
00FFFFFFFFF0FFF000
FFF0000000FFF00000
FFF0000000FFF00000
FFF0000000FFF00000
FFF0000000FFF00000
FFF0000000FFF00000
FFF0000000FFF00000
FFF0000000FFF00000
FFF0000000FFF00000
00FFFFFFFFF0000000
00FFFFFFFFF0000000
00FFFFFFFFF0000000
00FFFFFFFFF0000000
00FFFFFFFFF0000000
00FFFFFFFFF0000000
00FFFFFFFFF0000000
00FFFFFFFFF0000000
FFF000000000000000
FFF000000000000000
FFF000000000000000
FFF000000000000000
FFF000000000000000
FFF000000000000000
FFF000000000000000
FFF000000000000000
00FFFFFFFFFFF00000
00FFFFFFFFFFF00000
00FFFFFFFFFFF00000
00FFFFFFFFFFF00000
00FFFFFFFFFFF00000
00FFFFFFFFFFF00000
00FFFFFFFFFFF00000
00FFFFFFFFFFF00000
FFF000000000FFF000
FFF000000000FFF000
FFF000000000FFF000
FFF000000000FFF000
FFF000000000FFF000
FFF000000000FFF000
FFF000000000FFF000
FFF000000000FFF000
00FFFFFFFFFFF00000
00FFFFFFFFFFF00000
00FFFFFFFFFFF00000
00FFFFFFFFFFF00000
00FFFFFFFFFFF00000
00FFFFFFFFFFF00000
00FFFFFFFFFFF00000
00FFFFFFFFFFF00000
ENDCHAR
STARTCHAR U+0066
ENCODING 102
SWIDTH 1000 0
BBX 68 80 0 -16
DWIDTH 68 0
BITMAP
000000000000000000
000000000000000000
000000000000000000
000000000000000000
000000000000000000
000000000000000000
000000000000000000
000000000000000000
000000FFFFFFF00000
000000FFFFFFF00000
000000FFFFFFF00000
000000FFFFFFF00000
000000FFFFFFF00000
000000FFFFFFF00000
000000FFFFFFF00000
000000FFFFFFF00000
0000FFF00000FFF000
0000FFF00000FFF000
0000FFF00000FFF000
0000FFF00000FFF000
0000FFF00000FFF000
0000FFF00000FFF000
0000FFF00000FFF000
0000FFF00000FFF000
0000FFF00000000000
0000FFF00000000000
0000FFF00000000000
0000FFF00000000000
0000FFF00000000000
0000FFF00000000000
0000FFF00000000000
0000FFF00000000000
FFFFFFFFFFF0000000
FFFFFFFFFFF0000000
FFFFFFFFFFF0000000
FFFFFFFFFFF0000000
FFFFFFFFFFF0000000
FFFFFFFFFFF0000000
FFFFFFFFFFF0000000
FFFFFFFFFFF0000000
0000FFF00000000000
0000FFF00000000000
0000FFF00000000000
0000FFF00000000000
0000FFF00000000000
0000FFF00000000000
0000FFF00000000000
0000FFF00000000000
0000FFF00000000000
0000FFF00000000000
0000FFF00000000000
0000FFF00000000000
0000FFF00000000000
0000FFF00000000000
0000FFF00000000000
0000FFF00000000000
0000FFF00000000000
0000FFF00000000000
0000FFF00000000000
0000FFF00000000000
0000FFF00000000000
0000FFF00000000000
0000FFF00000000000
0000FFF00000000000
000000000000000000
000000000000000000
000000000000000000
000000000000000000
000000000000000000
000000000000000000
000000000000000000
000000000000000000
000000000000000000
000000000000000000
000000000000000000
000000000000000000
000000000000000000
000000000000000000
000000000000000000
000000000000000000
ENDCHAR
STARTCHAR U+0065
ENCODING 101
SWIDTH 1000 0
BBX 68 80 0 -16
DWIDTH 68 0
BITMAP
000000000000000000
000000000000000000
000000000000000000
000000000000000000
000000000000000000
000000000000000000
000000000000000000
000000000000000000
000000000000000000
000000000000000000
000000000000000000
000000000000000000
000000000000000000
000000000000000000
000000000000000000
000000000000000000
000000000000000000
000000000000000000
000000000000000000
000000000000000000
000000000000000000
000000000000000000
000000000000000000
000000000000000000
00FFFFFFFFFFF00000
00FFFFFFFFFFF00000
00FFFFFFFFFFF00000
00FFFFFFFFFFF00000
00FFFFFFFFFFF00000
00FFFFFFFFFFF00000
00FFFFFFFFFFF00000
00FFFFFFFFFFF00000
FFF000000000FFF000
FFF000000000FFF000
FFF000000000FFF000
FFF000000000FFF000
FFF000000000FFF000
FFF000000000FFF000
FFF000000000FFF000
FFF000000000FFF000
FFFFFFFFFFFFFFF000
FFFFFFFFFFFFFFF000
FFFFFFFFFFFFFFF000
FFFFFFFFFFFFFFF000
FFFFFFFFFFFFFFF000
FFFFFFFFFFFFFFF000
FFFFFFFFFFFFFFF000
FFFFFFFFFFFFFFF000
FFF000000000000000
FFF000000000000000
FFF000000000000000
FFF000000000000000
FFF000000000000000
FFF000000000000000
FFF000000000000000
FFF000000000000000
00FFFFFFFFFFF00000
00FFFFFFFFFFF00000
00FFFFFFFFFFF00000
00FFFFFFFFFFF00000
00FFFFFFFFFFF00000
00FFFFFFFFFFF00000
00FFFFFFFFFFF00000
00FFFFFFFFFFF00000
000000000000000000
000000000000000000
000000000000000000
000000000000000000
000000000000000000
000000000000000000
000000000000000000
000000000000000000
000000000000000000
000000000000000000
000000000000000000
000000000000000000
000000000000000000
000000000000000000
000000000000000000
000000000000000000
ENDCHAR
STARTCHAR U+0064
ENCODING 100
SWIDTH 1000 0
BBX 68 80 0 -16
DWIDTH 68 0
BITMAP
000000000000000000
000000000000000000
000000000000000000
000000000000000000
000000000000000000
000000000000000000
000000000000000000
000000000000000000
000000000000FFF000
000000000000FFF000
000000000000FFF000
000000000000FFF000
000000000000FFF000
000000000000FFF000
000000000000FFF000
000000000000FFF000
000000000000FFF000
000000000000FFF000
000000000000FFF000
000000000000FFF000
000000000000FFF000
000000000000FFF000
000000000000FFF000
000000000000FFF000
00FFFFFFFFF0FFF000
00FFFFFFFFF0FFF000
00FFFFFFFFF0FFF000
00FFFFFFFFF0FFF000
00FFFFFFFFF0FFF000
00FFFFFFFFF0FFF000
00FFFFFFFFF0FFF000
00FFFFFFFFF0FFF000
FFF0000000FFFFF000
FFF0000000FFFFF000
FFF0000000FFFFF000
FFF0000000FFFFF000
FFF0000000FFFFF000
FFF0000000FFFFF000
FFF0000000FFFFF000
FFF0000000FFFFF000
FFF000000000FFF000
FFF000000000FFF000
FFF000000000FFF000
FFF000000000FFF000
FFF000000000FFF000
FFF000000000FFF000
FFF000000000FFF000
FFF000000000FFF000
FFF0000000FFFFF000
FFF0000000FFFFF000
FFF0000000FFFFF000
FFF0000000FFFFF000
FFF0000000FFFFF000
FFF0000000FFFFF000
FFF0000000FFFFF000
FFF0000000FFFFF000
00FFFFFFFFF0FFF000
00FFFFFFFFF0FFF000
00FFFFFFFFF0FFF000
00FFFFFFFFF0FFF000
00FFFFFFFFF0FFF000
00FFFFFFFFF0FFF000
00FFFFFFFFF0FFF000
00FFFFFFFFF0FFF000
000000000000000000
000000000000000000
000000000000000000
000000000000000000
000000000000000000
000000000000000000
000000000000000000
000000000000000000
000000000000000000
000000000000000000
000000000000000000
000000000000000000
000000000000000000
000000000000000000
000000000000000000
000000000000000000
ENDCHAR
STARTCHAR U+0063
ENCODING 99
SWIDTH 1000 0
BBX 68 80 0 -16
DWIDTH 68 0
BITMAP
000000000000000000
000000000000000000
000000000000000000
000000000000000000
000000000000000000
000000000000000000
000000000000000000
000000000000000000
000000000000000000
000000000000000000
000000000000000000
000000000000000000
000000000000000000
000000000000000000
000000000000000000
000000000000000000
000000000000000000
000000000000000000
000000000000000000
000000000000000000
000000000000000000
000000000000000000
000000000000000000
000000000000000000
00FFFFFFFFFFF00000
00FFFFFFFFFFF00000
00FFFFFFFFFFF00000
00FFFFFFFFFFF00000
00FFFFFFFFFFF00000
00FFFFFFFFFFF00000
00FFFFFFFFFFF00000
00FFFFFFFFFFF00000
FFF000000000FFF000
FFF000000000FFF000
FFF000000000FFF000
FFF000000000FFF000
FFF000000000FFF000
FFF000000000FFF000
FFF000000000FFF000
FFF000000000FFF000
FFF000000000000000
FFF000000000000000
FFF000000000000000
FFF000000000000000
FFF000000000000000
FFF000000000000000
FFF000000000000000
FFF000000000000000
FFF000000000000000
FFF000000000000000
FFF000000000000000
FFF000000000000000
FFF000000000000000
FFF000000000000000
FFF000000000000000
FFF000000000000000
00FFFFFFFFFFFFF000
00FFFFFFFFFFFFF000
00FFFFFFFFFFFFF000
00FFFFFFFFFFFFF000
00FFFFFFFFFFFFF000
00FFFFFFFFFFFFF000
00FFFFFFFFFFFFF000
00FFFFFFFFFFFFF000
000000000000000000
000000000000000000
000000000000000000
000000000000000000
000000000000000000
000000000000000000
000000000000000000
000000000000000000
000000000000000000
000000000000000000
000000000000000000
000000000000000000
000000000000000000
000000000000000000
000000000000000000
000000000000000000
ENDCHAR
ENDFONT
